<svg id="SvgjsSvg1076" width="288" height="288" xmlns="http://www.w3.org/2000/svg" version="1.1" xmlns:xlink="http://www.w3.org/1999/xlink" xmlns:svgjs="http://svgjs.com/svgjs"><defs id="SvgjsDefs1077"></defs><g id="SvgjsG1078"><svg xmlns="http://www.w3.org/2000/svg" enable-background="new 0 0 64 64" viewBox="0 0 64 64" width="288" height="288"><path d="M33.61 18.2c.2.23.47.34.75.34.23 0 .47-.08.66-.25.42-.36.46-1 .09-1.41-1.96-2.24-4.27-2.24-6.23 0-.36.42-.32 1.05.09 1.41.42.36 1.05.32 1.41-.09C31.56 16.87 32.44 16.87 33.61 18.2zM31 49.07v3.23c0 .55.45 1 1 1s1-.45 1-1v-3.23c0-.55-.45-1-1-1S31 48.52 31 49.07z" fill="#fc5c9c" class="color000 svgShape"></path><path d="M62.46,30.85l-6.8-3.48v-2.81c0-0.55-0.45-1-1-1s-1,0.45-1,1v1.78l-5.93-3.04v-2.77c0-0.55-0.45-1-1-1s-1,0.45-1,1v1.75		l-5.71-2.93c-0.98-4.43-3.19-8.55-6.47-11.91L32.71,6.6c-0.38-0.38-1.05-0.38-1.43,0l-0.83,0.84c-1.17,1.2-2.24,2.55-3.17,4
		c-0.3,0.47-0.16,1.08,0.31,1.38c0.47,0.3,1.08,0.16,1.38-0.31c1.41-2.22,2.94-3.7,3.03-3.8c0.12,0.16,4.75,4.37,6.17,11.59
		c0,0,0,0.01,0,0.01c1.22,6.2-0.32,9.01-3.16,32.73c-0.2,1.5-1.5,2.64-3.02,2.64s-2.82-1.14-3.02-2.64
		c-2.2-22.13-5.78-28.06-1.66-37.44c0.22-0.51-0.01-1.1-0.51-1.32c-0.51-0.22-1.1,0.01-1.32,0.51c-0.64,1.46-1.13,2.98-1.48,4.53
		l-5.74,2.94v-1.75c0-0.55-0.45-1-1-1s-1,0.45-1,1v2.77l-5.93,3.04v-1.78c0-0.55-0.45-1-1-1s-1,0.45-1,1v2.81l-6.8,3.48
		C1.21,31.02,1,31.37,1,31.74v7.22c0,0.29,0.12,0.56,0.34,0.75c0.18,0.16,0.42,0.25,0.66,0.25c0.04,0,0.09,0,0.13-0.01l22.67-3.08
		l1.18,8.85l-7.62,3.79c-0.34,0.17-0.56,0.52-0.56,0.9v2.79c0,0.55,0.45,1,1,1h8.39c0.66,2.05,2.59,3.51,4.8,3.51
		s4.14-1.46,4.8-3.51h8.39c0.55,0,1-0.45,1-1v-2.79c0-0.38-0.21-0.73-0.56-0.9l-7.62-3.79l1.18-8.85l10.82,1.47
		c0.05,0.01,0.09,0.01,0.14,0.01c0.49,0,0.92-0.36,0.99-0.87c0.07-0.55-0.31-1.05-0.86-1.13l-10.83-1.47
		c0.61-5.6,1.52-8.35,0.97-13.08L61,32.35v5.47l-7.21-0.98c-0.55-0.08-1.05,0.31-1.13,0.86c-0.07,0.55,0.31,1.05,0.86,1.13
		l8.34,1.13c0.04,0.01,0.09,0.01,0.13,0.01c0.24,0,0.47-0.09,0.66-0.25c0.22-0.19,0.34-0.46,0.34-0.75v-7.22
		C63,31.37,62.79,31.02,62.46,30.85z M3,37.82v-5.47L23.59,21.8c-0.58,4.79,0.33,7.41,0.95,13.09L3,37.82z M19.81,51.03l6.46-3.21
		l0.58,4.37h-7.04V51.03z M44.19,51.03v1.17h-7.04l0.58-4.37L44.19,51.03z" fill="#fc5c9c" class="color000 svgShape"></path></svg></g></svg>