<svg id="SvgjsSvg1053" width="288" height="288" xmlns="http://www.w3.org/2000/svg" version="1.1" xmlns:xlink="http://www.w3.org/1999/xlink" xmlns:svgjs="http://svgjs.com/svgjs"><defs id="SvgjsDefs1054"></defs><g id="SvgjsG1055"><svg xmlns="http://www.w3.org/2000/svg" data-name="Layer 3" viewBox="0 0 64 64" width="288" height="288"><path d="M32,1A31,31,0,1,0,63,32,31.036,31.036,0,0,0,32,1Zm0,60A29,29,0,1,1,61,32,29.032,29.032,0,0,1,32,61Z" fill="#fc5c9c" class="color000 svgShape"></path><path d="M32,5A27,27,0,1,0,59,32,27.03,27.03,0,0,0,32,5Zm0,52A25,25,0,1,1,57,32,25.028,25.028,0,0,1,32,57Z" fill="#fc5c9c" class="color000 svgShape"></path><path d="M37.4,24.4A8.273,8.273,0,0,0,32.789,23H21.943a6.812,6.812,0,0,0-5.906,3.42A31.229,31.229,0,0,0,12.19,37.6l-.077.537A3,3,0,0,0,13,44h1.424a4.99,4.99,0,0,0,9.152,0H40.424a4.99,4.99,0,0,0,9.152,0H53a1,1,0,0,0,1-1V41a10.012,10.012,0,0,0-9.5-9.987A30.089,30.089,0,0,0,37.4,24.4ZM47.553,37.724A4.883,4.883,0,0,0,42,38.03,20.443,20.443,0,0,0,41.329,33H44a7.945,7.945,0,0,1,3,.589V36A2.972,2.972,0,0,0,47.553,37.724ZM36.285,26.059A28.074,28.074,0,0,1,41.891,31H29V25h3.789A6.278,6.278,0,0,1,36.285,26.059ZM21,29.243A9.231,9.231,0,0,1,22.054,25H27v5.847l-6-.857Zm-3.229-1.827a4.809,4.809,0,0,1,1.865-1.825A11.216,11.216,0,0,0,19,29.243V29.7l-2.253-.321C17.065,28.717,17.4,28.06,17.771,27.416ZM14,42H13a1,1,0,0,1,0-2,1,1,0,0,0,.99-.858l.18-1.262c.079-.554.179-1.1.289-1.65a4.9,4.9,0,0,1,2.182,1.389A4.984,4.984,0,0,0,14,42Zm5,3a3,3,0,1,1,3-3A3,3,0,0,1,19,45Zm0-8c-.1,0-.194.024-.293.03a6.894,6.894,0,0,0-3.786-2.745,28.958,28.958,0,0,1,.993-3l10.662,1.523a10.316,10.316,0,0,0,.163,7.233L27.523,42H24A5.006,5.006,0,0,0,19,37Zm10.677,5L28.6,39.3a8.23,8.23,0,0,1,.061-6.3H39.248A18.393,18.393,0,0,1,40,38.163V42ZM45,45a3,3,0,1,1,3-3A3,3,0,0,1,45,45Zm7-3H50a4.956,4.956,0,0,0-1.264-3.289A2.975,2.975,0,0,0,50,39h1.737A7.946,7.946,0,0,1,52,41Zm-1.082-5H50a1,1,0,0,1-1-1V34.765A8.056,8.056,0,0,1,50.918,37Z" fill="#fc5c9c" class="color000 svgShape"></path><circle cx="19" cy="42" r="2" fill="#fc5c9c" class="color000 svgShape"></circle><circle cx="45" cy="42" r="2" fill="#fc5c9c" class="color000 svgShape"></circle><path d="M20 19h.764A2.224 2.224 0 0122 21h2a4.208 4.208 0 00-1.025-2.76A2.988 2.988 0 0021 13H19a1 1 0 00-1 1v7h2zm0-4h1a1 1 0 010 2H20zM26 21h4V19H27V18h3V16H27V15h3V13H26a1 1 0 00-1 1v6A1 1 0 0026 21zM33 15h.153l.861 5.165A1 1 0 0035 21h2a1 1 0 001-1V13H36v6h-.153l-.861-5.165A1 1 0 0034 13H32a1 1 0 00-1 1v7h2z" fill="#fc5c9c" class="color000 svgShape"></path><polygon points="41 21 43 21 43 15 45 15 45 13 39 13 39 15 41 15 41 21" fill="#fc5c9c" class="color000 svgShape"></polygon><rect width="4" height="2" x="30" y="35" fill="#fc5c9c" class="color000 svgShape"></rect></svg></g></svg>