<svg id="SvgjsSvg1047" width="288" height="288" xmlns="http://www.w3.org/2000/svg" version="1.1" xmlns:xlink="http://www.w3.org/1999/xlink" xmlns:svgjs="http://svgjs.com/svgjs"><defs id="SvgjsDefs1048"></defs><g id="SvgjsG1049"><svg xmlns="http://www.w3.org/2000/svg" enable-background="new 206 -206 512 512" viewBox="206 -206 512 512" width="288" height="288"><path d="M668.7,140h-2.4c13.7-4,25.4-14.4,33.2-28.3c12.4-22,11.7-48.5-1.9-69.2c-3.6-5.5-8.3-10.4-13.7-14.1
		v-7.6c0-12.5-8-23.4-19.4-26.5l-29.1-8c-5.4-1.5-11.1-1.5-16.5,0l-28.8,8C578.9-2.7,571,8.2,571,20.7v7.4
		c-5.6,3.9-10.4,8.8-14.1,14.5c-13.6,20.8-14.3,47.1-1.9,69.2c7.8,13.9,19.6,24.3,33.2,28.3h-13.9c-11.9-13.3-28.8-20.9-46.6-21H497
		v-7.8C525.1,98,544.2,71,547.2,40c12.6-0.7,22.5-11.2,22.4-23.8C569.4,4,560.2-6.2,548-7.5v-36.6c0-9.6-2.1-19-6.4-27.6
		c-10.3-21-31.8-34.3-55.2-34.2h-55.4c-12.5,0-24.1,6.7-30.3,17.6c-23.4,11.9-27.5,39-27.6,40.2c-0.1,0.4-0.1,0.7-0.1,1.1v39.6
		c-5.7,0.3-11.1,2.8-15.1,6.9c-4.5,4.5-7,10.5-7,16.8c0,12.7,9.9,23.1,22.6,23.8c1.8,20.3,10.8,39.3,25.2,53.7
		c8.2,8,17.8,14.3,28.3,18.8v6.5h-30.8c-22,0.2-42.3,11.9-53.3,31H321v-1.2l13-8.5c0.4-0.3,0.9-0.7,1.2-1.1
		c8.8-8.8,14.4-20.2,16.1-32.5c8.3-1.7,14.2-8.9,14.3-17.4c0.1-8.2-5.5-15.4-13.5-17.2V37.1c0-11.9-8.1-22.3-19.7-25.2L303,4.4
		c-2.4-0.6-4.9-0.9-7.4-1c-3-0.1-5.9,0.3-8.8,0.9c-0.1,0-0.1,0-0.2,0l-29,7.5C246.1,14.8,238,25.2,238,37.1v11.5
		c0,0.6-0.3,1.2-0.3,1.8c0,0.8,0.3,1.5,0.3,2.2v19.5c-8,1.8-13.6,9-13.5,17.2c0,8.5,5.9,15.7,14.2,17.5c2.5,18.5,14,34.1,30.7,43.1
		h-13.9c-22.8,0-41.5,18.2-41.5,41v20.2c0.1,4.4,3.8,7.9,8.3,7.8H334v21.2c0.1,4.4,3.7,7.9,8.1,7.8c0,0,0,0,0,0h239.7
		c4.4,0.1,8-3.4,8.1-7.8c0,0,0,0,0,0V219h111.7c4.4,0.1,8.1-3.3,8.3-7.8v-27C710,160,691.3,140,668.7,140z M684,50.6
		c0,0.2,0.3,0.5,0.4,0.7c1.5,2.3,2.8,4.8,3.9,7.3c-1.4-0.7-2.8-1.3-4.3-1.8V50.6z M683.4,92.9c3-0.7,5.8-2.2,8-4.3
		c-1.1,5.4-3,10.6-5.7,15.4c-2.6,4.7-5.9,8.9-9.9,12.4C679.8,109.2,682.4,101.1,683.4,92.9z M548,8.7c4.1,1.2,6.5,5.6,5.3,9.7
		c-0.8,2.7-2.9,4.7-5.6,5.4L548,8.7z M373,23.9c-3.5-1-5.9-4.1-6.1-7.7c0-2.1,0.8-4.1,2.3-5.5c1.1-1,2.4-1.7,3.8-2.1V23.9z
		 M304.4,28H303v-1.8c0-2.3-0.9-4.4-2.6-5.9l28,7.1c4.5,1.1,7.6,5.1,7.7,9.7v25.4c-10,3.9-20,3.1-29-2.3c-3.5-2.1-6.7-4.7-9.5-7.7
		c3.3-1.1,5.4-4.2,5.4-7.6V44h1.4c4.4,0,8-3.6,8-8S308.8,28,304.4,28z M254,50.4V37.1c0-4.6,3.2-8.6,7.6-9.7l28.1-7.2
		c-1.7,1.5-2.7,3.7-2.7,6V28h-1.4c-4.4,0-8,3.6-8,8s3.6,8,8,8h1.4v0.4c-1-0.1-2.4-0.1-3.7-0.1c-11.4,0-21.3,4.5-29.3,9.2V50.4z
		 M254,99.1V73.5c5-4.1,16.2-13,28.9-13.2c4.3,5.2,9.3,9.7,15,13.3c7.6,4.8,16.4,7.3,25.4,7.4c4.3,0,8.5-0.6,12.7-1.7v19.8
		c0,10.6-4.2,20.7-11.5,28.2l-15.9,10.2c-4.4,1.6-9,2.3-13.6,2.3c-4.4,0-8.8-0.7-13-2.1C265.3,132.2,254,116.6,254,99.1z M287,203
		h-57v-12c0-13.9,11.6-25,25.5-25h20.5l10.9,10.6V203z M288.4,155.4c5.2,0.6,10.4,0.5,15.5-0.3L296,163L288.4,155.4z M334,181.3V203
		h-31v-24.3l12.9-12.7h20.3C334.8,171,334,176.2,334,181.3z M528.6,178.9c5.9,0,10.7,4.8,10.7,10.7c0,5.9-4.8,10.7-10.7,10.7
		c0,0,0,0,0,0c-2.8,0-5.6-1.1-7.5-3.1c-4.2-4.2-4.2-11,0-15.2C523.1,180.1,525.8,178.9,528.6,178.9z M413.9-78.9
		C413.9-78.9,413.9-79,413.9-78.9c3.1-6.8,9.8-11.1,17.2-11.1h55.4c17.4,0,33.2,9.8,40.9,25.4c3.1,6.4,4.7,13.4,4.7,20.5v28.6
		c-16-8.3-30.2-19.8-41.7-33.7c-1.5-1.8-3.7-2.9-6-2.9h-53.2c-10.5,0-18.9-8.5-18.9-19C412.1-73.7,412.7-76.4,413.9-78.9z M389-46.5
		c1-2,2.2-10.4,7.7-17.9c2.8,14.6,14.6,25.8,29.3,28c-10.6,8.3-23.6,13-37,13.6V-46.5z M389-6.9c13-0.3,38.4-5.1,60-29.1h31.5
		c8.8,10,22.1,22,40.6,33H390.4C390-3,390-3.3,389-3.2V-6.9z M522.2,13c-0.5,11.6-10.3,20.6-21.9,20.1c-8.1-0.4-15.2-5.3-18.4-12.8
		c-0.9-2.3-1.5-4.8-1.6-7.3H522.2z M464.4,15h-8.1c0.1-1,0.1-1,0.1-2h7.8C464.3,14,464.3,14,464.4,15z M440.4,13
		c-0.2,2.5-0.7,4.9-1.6,7.2c0,0,0-0.1,0-0.1C434.3,30.9,422,36,411.3,31.5c-7.5-3.1-12.6-10.3-12.9-18.5H440.4z M410,82.4
		c-13.1-13-20.6-30.6-20.8-49.1c11.9,16.6,35,20.5,51.7,8.6c4.1-2.9,7.5-6.6,10.1-10.8h18.8c10.6,17.4,33.3,23,50.7,12.4
		c4.3-2.6,8-6.1,11-10.2c-0.6,38.8-32.3,70-71.1,70c-7.7,0-15.3-1.2-22.5-3.6C427.4,96,417.8,90.1,410,82.4L410,82.4z M452,232H350
		v-50.7c0.1-6.9,1.7-13.7,4.8-19.8c7.1-14.5,21.1-24.4,37.2-26v5.1c-5.6,1.3-10.6,4.2-14.5,8.4c-6.1,6-9.5,14.3-9.5,22.8v34
		c0,4.4,3.1,8.2,7.6,8.2h9.6c4.4,0,8-3.6,8-8s-3.6-8-8-8H384v-26.2c-0.1-4.2,1.5-8.3,4.5-11.3c2.9-2.9,6.9-4.6,11-4.5h0.3
		c9,0,16.2,6.8,16.2,15.8V198h-4.1c-4.4,0-8,3.6-8,8s3.6,8,8,8H424c4.5-0.1,8-3.8,8-8.2v-34c0.2-14.7-9.7-27.7-24-31.3V135h23.7
		l20.3,21V232z M443,124v-6.5c12.6,2.5,25.5,2.3,38-0.7v7.3l-18.9,19L443,124z M574,232H468v-72.7l24.1-24.3H521v29.1
		c-11.2,3.4-18.9,13.8-18.9,25.5c0.1,14.7,12.1,26.6,26.8,26.5s26.6-12.1,26.5-26.8c-0.1-11.5-7.5-21.6-18.4-25.2v-28
		c21.6,4.2,37.1,23.2,37,45.2V232z M636.7,11H635V8.9c0.1-3.6-2.3-6.8-5.8-7.7c0.6,0.1,1.3,0.2,1.9,0.4l29.2,8
		c4.5,1.2,7.7,5.8,7.7,11.1V50c-23,3.7-36.2-8.2-40.5-12.8c4.3-0.1,7.6-3.7,7.5-8c0,0,0,0,0,0V27h1.7c4.4,0,8-3.6,8-8
		S641.2,11,636.7,11z M587,32.8V20.7c0-5.3,3.1-9.9,7.6-11.1l28.8-8c0.7-0.2,1.4-0.4,2.2-0.4c-3.7,0.8-6.4,4-6.5,7.8V11h-0.8
		c-4.4,0-8,3.6-8,8s3.6,8,8,8h0.8v2.1c0.1,1,0.3,2,0.8,2.9c-0.1,0-0.2,0-0.3,0c-2.6,0-5,1.3-6.5,3.5c-9,13-19,15.8-26,16.1V32.8z
		 M570.2,51.3c0.3-0.4,0.8-0.8,0.8-1.2v6.7c-1.7,0.4-3.4,1.1-4.8,2.1C567.3,56.2,568.7,53.7,570.2,51.3z M568.9,104
		c-2.8-4.9-4.8-10.3-5.8-15.8c2.3,2.3,5.2,3.9,8.4,4.6c1,8.5,3.6,16.7,7.8,24.1C575.2,113.2,571.6,108.9,568.9,104z M587,85.3V67.6
		c9-0.2,21.6-3.1,33.3-15.5c13.1,11.4,30.5,16.5,47.7,14v19.1c0.1,11.4-4,22.5-11.6,31.1l-15.1,10.5l-14.6,2.9
		c-4-0.1-8-0.8-11.8-2.2l-0.4-0.1c-0.4-0.1-0.8-0.3-1.1-0.5c-0.1,0-0.2-0.1-0.3-0.1C597.5,120.4,587,103.6,587,85.3z M619,203h-29
		v-21.7c-0.1-8.7-1.9-17.3-5.4-25.3h24.1c3,2.7,6.5,4.9,10.3,6.4V203z M620.5,145.3c2.3,0.3,4.7,0.5,7,0.5c0.5,0,1.1-0.1,1.6-0.2
		l7.9-1.6v0.9c-2.6,2-5.8,3-9.1,2.9C625.2,147.7,622.7,146.8,620.5,145.3z M694,203h-59v-40.1c5-1.1,9.4-2.9,13.1-6.9h20.6
		c13.8,0,25.3,12.9,25.3,28.2V203z" fill="#fc5c9c" class="color000 svgShape"></path><path d="M623 78.1v-2.2c0-4.4-3.6-8-8-8s-8 3.6-8 8c0-4.4-3.6-8-8-8s-8 3.6-8 8v2.2c0 9.4 7 17 16 17S623 87.4 623 78.1zM607 78.1c0 .4.1.7 0 .8C606.9 78.8 607 78.5 607 78.1zM648 95c9 0 16-7.6 16-17v-2.2c0-4.4-3.6-8-8-8s-8 3.6-8 8c0-4.4-3.6-8-8-8s-8 3.6-8 8v2.2C632 87.4 639 95 648 95zM648 78.1c0 .4.1.7 0 .9C647.9 78.8 648 78.5 648 78.1zM291 91.4v-2.1c0-4.4-3.6-8-8-8s-8 3.6-8 8v2.1c0 .2-.3.3-.5.3s-.5-.1-.5-.3v-2.1c0-4.4-3.6-8-8-8s-8 3.6-8 8v2.1c0 9.1 7.4 16.5 16.5 16.5S291 100.5 291 91.4zM315.5 107.7c9 0 16.4-7.3 16.5-16.3v-2.1c0-4.4-3.6-8-8-8s-8 3.6-8 8v2.1c0 .2-.3.3-.5.3s-.5-.1-.5-.3v-2.1c0-4.4-3.6-8-8-8s-8 3.6-8 8v2.1C299.1 100.5 306.5 107.7 315.5 107.7zM490.7 170H484c-4.4 0-8 3.6-8 8s3.6 8 8 8h6.7c4.4 0 8-3.6 8-8S495.1 170 490.7 170zM490.7 190H484c-4.4 0-8 3.6-8 8s3.6 8 8 8h6.7c4.4 0 8-3.6 8-8S495.1 190 490.7 190zM247.2-67H279v31.7c0 4.5 3.6 8.2 8.2 8.3h25c4.4-.1 7.9-3.8 7.9-8.3V-67h32.1c4.4-.1 8-3.8 7.9-8.2v-25c0-4.3-3.4-7.7-7.7-7.8-.1 0-.1 0-.2 0H320v-32.2c0-4.3-3.4-7.8-7.6-7.8-.1 0-.1 0-.2 0h-25c-4.4-.1-8.1 3.4-8.2 7.8 0 0 0 0 0 0v32.2h-31.8c-4.4-.1-8.1 3.3-8.2 7.8 0 0 0 0 0 0v25C239.1-70.7 242.7-67.1 247.2-67zM255-92h32.2c4.4-.1 7.9-3.8 7.8-8.2V-132h9v31.8c0 4.5 3.6 8.1 8.1 8.2H344v9h-31.9c-4.4-.1-8 3.3-8.1 7.7 0 0 0 0 0 .1V-43h-9v-32.2c.1-4.2-3.3-7.7-7.6-7.8-.1 0-.2 0-.3 0H255V-92z" fill="#fc5c9c" class="color000 svgShape"></path></svg></g></svg>