<svg id="SvgjsSvg1082" width="288" height="288" xmlns="http://www.w3.org/2000/svg" version="1.1" xmlns:xlink="http://www.w3.org/1999/xlink" xmlns:svgjs="http://svgjs.com/svgjs"><defs id="SvgjsDefs1083"></defs><g id="SvgjsG1084"><svg xmlns="http://www.w3.org/2000/svg" viewBox="0 0 64 64" width="288" height="288"><g data-name="Layer 21" fill="#fc5c9c" class="color000 svgShape"><path d="M54 53h-1v-6a6 6 0 0 0-4-5.65V40h1a3 3 0 0 0 3-3v-2a3 3 0 0 0-3-3h-1v-1a6 6 0 0 0-6-6H21a6 6 0 0 0-6 6v1h-1a3 3 0 0 0-3 3v2a3 3 0 0 0 3 3h1v1.35A6 6 0 0 0 11 47v6h-1a1 1 0 0 0-1 1v4a1 1 0 0 0 1 1h3v1a3 3 0 0 0 3 3h4a3 3 0 0 0 3-3v-1h18v1a3 3 0 0 0 3 3h4a3 3 0 0 0 3-3v-1h3a1 1 0 0 0 1-1v-4a1 1 0 0 0-1-1Zm-4-19a1 1 0 0 1 1 1v2a1 1 0 0 1-1 1h-1v-4Zm-36 4a1 1 0 0 1-1-1v-2a1 1 0 0 1 1-1h1v4Zm3-7a4 4 0 0 1 4-4h22a4 4 0 0 1 4 4v10H17Zm-4 16a4 4 0 0 1 4-4h30a4 4 0 0 1 4 4v6H41v-7a1 1 0 0 0-1-1H24a1 1 0 0 0-1 1v7H13Zm26 2H25v-2h14Zm-14 2h14v2H25Zm12 4v2H27v-2Zm-26 0h14v2H11Zm10 5a1 1 0 0 1-1 1h-4a1 1 0 0 1-1-1v-1h6Zm28 0a1 1 0 0 1-1 1h-4a1 1 0 0 1-1-1v-1h6Zm4-3H39v-2h14Z" fill="#fc5c9c" class="color000 svgShape"></path><path d="M42 29H22a3 3 0 0 0-3 3v6a1 1 0 0 0 1 1h24a1 1 0 0 0 1-1v-6a3 3 0 0 0-3-3zm1 8H21v-5a1 1 0 0 1 1-1h20a1 1 0 0 1 1 1zm3 14a3 3 0 1 0-3-3 3 3 0 0 0 3 3zm0-4a1 1 0 1 1-1 1 1 1 0 0 1 1-1zm-28-2a3 3 0 1 0 3 3 3 3 0 0 0-3-3zm0 4a1 1 0 1 1 1-1 1 1 0 0 1-1 1z" fill="#fc5c9c" class="color000 svgShape"></path><path d="m62.71 9.29-8-8A1 1 0 0 0 54 1H10a1 1 0 0 0-.71.29l-8 8A1 1 0 0 0 1 10v52a1 1 0 0 0 1 1h4a1 1 0 0 0 1-1V23h50v39a1 1 0 0 0 1 1h4a1 1 0 0 0 1-1V10a1 1 0 0 0-.29-.71ZM10.41 3h43.18l6 6H4.41ZM57 17H7v-2h50ZM7 21v-2h50v2Zm54 40h-2V14a1 1 0 0 0-1-1H6a1 1 0 0 0-1 1v47H3V11h58Z" fill="#fc5c9c" class="color000 svgShape"></path></g></svg></g></svg>