<?xml version="1.0" encoding="utf-8"?>
<!-- Generator: Adobe Illustrator 26.3.1, SVG Export Plug-In . SVG Version: 6.00 Build 0)  -->
<svg version="1.1" id="Layer_1" xmlns="http://www.w3.org/2000/svg" xmlns:xlink="http://www.w3.org/1999/xlink" x="0px" y="0px"
	 viewBox="0 0 32 32" style="enable-background:new 0 0 32 32;" xml:space="preserve">
<style type="text/css">
	.st0{fill:#F797C3;}
	.st1{fill:#4045F7;}
</style>
<path class="st0" d="M26.5,14.9c-2.6-0.3-5.9-1.4-6-1.4c-0.1,0-0.1,0-0.2,0c0,0-0.1,0-0.1,0c-0.1,0-2.3,0.6-4.4,0.7
	c-2-0.1-4.3-0.7-4.4-0.7c0,0-0.1,0-0.1,0s-0.1,0-0.1,0c0,0-3.4,1.2-6,1.4c-0.2,0-0.4,0.2-0.4,0.4c0,0.2,0.2,0.4,0.4,0.4l0.5,0.1h0h0
	c0.7,0,1.5-0.1,2.3-0.1c3.6,0,7.6,0.3,7.6,0.4h0h0c0,0,4-0.4,7.6-0.4c0.9,0,1.7,0,2.4,0.1c0,0,0,0,0.1,0l0.5-0.1
	c0.2,0,0.4-0.2,0.4-0.4C26.8,15.1,26.7,14.9,26.5,14.9z M15.9,15.2c-0.1,0-3.3-0.3-6.5-0.3c1-0.3,1.8-0.5,2-0.6
	c0.4,0.1,2.5,0.6,4.4,0.7H16c1.9-0.1,3.9-0.6,4.4-0.7c0.3,0.1,1.1,0.4,2,0.6C19.2,14.9,16.1,15.2,15.9,15.2z"/>
<path class="st0" d="M31.5,14.6C31.5,14.6,31.5,14.6,31.5,14.6C30,13.3,25,9.9,23.5,9c-0.9-0.6-2-0.8-3.1-0.8
	c-1.4,0-2.9,0.4-4.5,1.2c-1.6-0.8-3.1-1.2-4.5-1.2c-1.1,0-2.1,0.3-3.1,0.8c-1.4,0.8-6.3,4.1-8,5.5c0,0-0.1,0-0.1,0.1
	c0,0.1-0.1,0.1-0.1,0.2c0,0.1,0,0.1,0,0.2c0,0,0,0.1,0,0.1c1.2,2.1,5.6,9,15.2,9c0.2,0,0.3,0,0.5,0c0.2,0,0.3,0,0.5,0
	c9.7,0,14-6.8,15.1-8.9c0,0,0-0.1,0-0.1c0-0.1,0-0.1,0-0.2C31.5,14.7,31.5,14.7,31.5,14.6z M16.4,23.1c-0.2,0-0.3,0-0.5,0
	c-0.2,0-0.3,0-0.5,0c-8.6,0-12.8-5.7-14.3-8.2c2-1.5,6.4-4.5,7.6-5.2C9.6,9.2,10.5,9,11.5,9c1.3,0,2.7,0.4,4.3,1.3
	c0.1,0,0.1,0,0.2,0c0.1,0,0.1,0,0.2,0c1.6-0.9,3-1.3,4.3-1.3c1,0,1.9,0.3,2.7,0.7c1.3,0.8,5.9,3.9,7.6,5.2
	C29.2,17.5,25.1,23.1,16.4,23.1z"/>
<path class="st1" d="M7.1,6.2c0.1,0,0.1,0,0.2-0.1C7.5,6,7.8,5.9,8.1,5.7c0.1,0,0.3-0.1,0.4-0.1c0.2-0.1,0.4-0.3,0.3-0.5
	c0-0.2-0.2-0.3-0.4-0.3c0,0-0.1,0-0.1,0C8.1,4.9,7.9,4.9,7.8,5C7.5,5.1,7.2,5.2,6.8,5.4C6.7,5.5,6.7,5.6,6.7,5.7
	c0,0.1,0,0.2,0.1,0.3C6.8,6.1,6.9,6.2,7.1,6.2z"/>
<path class="st1" d="M12.4,5.7c0.4,0.2,0.8,0.4,1.2,0.6c0.1,0,0.1,0,0.2,0c0.2,0,0.3-0.1,0.4-0.2c0.1-0.1,0.1-0.2,0-0.3
	c0-0.1-0.1-0.2-0.2-0.3c-0.4-0.2-0.9-0.4-1.4-0.6c0,0-0.1,0-0.1,0c-0.2,0-0.3,0.1-0.4,0.3c0,0.1,0,0.2,0,0.3
	C12.3,5.6,12.3,5.6,12.4,5.7z"/>
<path class="st1" d="M9.8,5.3L9.8,5.3c0.2,0,0.4,0,0.5,0c0.3,0,0.5,0,0.8,0.1c0,0,0,0,0.1,0c0.2,0,0.4-0.2,0.4-0.4
	c0-0.2-0.1-0.4-0.4-0.5c-0.3,0-0.6-0.1-0.9-0.1c-0.2,0-0.4,0-0.6,0c-0.1,0-0.2,0.1-0.3,0.2C9.4,4.7,9.3,4.8,9.3,5
	C9.4,5.2,9.5,5.3,9.8,5.3z"/>
<path class="st1" d="M22.8,5.5c0.4,0.2,0.8,0.4,1.2,0.6c0.1,0,0.1,0,0.2,0c0.2,0,0.3-0.1,0.4-0.2c0.1-0.1,0.1-0.2,0.1-0.3
	c0-0.1-0.1-0.2-0.2-0.2c-0.4-0.3-0.9-0.5-1.4-0.6c0,0-0.1,0-0.1,0c-0.2,0-0.4,0.1-0.4,0.3c0,0.1,0,0.2,0,0.3
	C22.6,5.4,22.7,5.5,22.8,5.5z"/>
<path class="st1" d="M14.8,7c0.2,0.2,0.4,0.3,0.4,0.3c0.1,0.1,0.2,0.1,0.3,0.1c0.1,0,0.2,0,0.2-0.1c0,0,0,0,0.1,0
	c0,0,0.3-0.3,0.6-0.5c0.2-0.1,0.2-0.4,0.1-0.6C16.4,6.1,16.3,6,16.2,6c-0.1,0-0.2,0-0.3,0.1c-0.2,0.2-0.3,0.3-0.4,0.4
	c0,0-0.1-0.1-0.2-0.1c-0.1-0.1-0.2-0.1-0.2-0.1c-0.1,0-0.3,0.1-0.4,0.2C14.6,6.6,14.7,6.8,14.8,7z"/>
<path class="st1" d="M17.4,6c0.1,0,0.1,0,0.2,0c0.4-0.2,0.8-0.4,1.2-0.5c0.2-0.1,0.3-0.3,0.3-0.5c-0.1-0.2-0.2-0.3-0.4-0.3
	c0,0-0.1,0-0.1,0c-0.4,0.2-0.9,0.4-1.4,0.6c-0.1,0.1-0.2,0.1-0.2,0.3c0,0.1,0,0.2,0,0.3C17.1,6,17.2,6,17.4,6z"/>
<path class="st1" d="M20.1,5.2C20.1,5.2,20.1,5.2,20.1,5.2c0.2,0,0.4-0.1,0.7-0.1s0.4,0,0.7,0.1h0c0.2,0,0.4-0.2,0.4-0.4
	s-0.1-0.4-0.4-0.4c-0.3,0-0.5,0-0.8,0s-0.5,0-0.7,0c-0.2,0-0.4,0.2-0.4,0.4S19.9,5.2,20.1,5.2z"/>
<path class="st1" d="M2.8,10.3c0.1,0,0.2,0.1,0.3,0.1c0.1,0,0.3-0.1,0.3-0.2C3.7,9.8,4,9.4,4.3,9c0.1-0.2,0.1-0.4-0.1-0.6
	C4.1,8.4,4,8.4,3.9,8.4c-0.1,0-0.3,0.1-0.3,0.2C3.3,8.9,3,9.3,2.7,9.7C2.6,9.9,2.7,10.1,2.8,10.3z"/>
<path class="st1" d="M4.9,8.1c0.1,0,0.2,0,0.3-0.1c0.3-0.4,0.7-0.7,1-1c0.2-0.2,0.2-0.4,0-0.6C6.1,6.3,6,6.2,5.9,6.2s-0.2,0-0.3,0.1
	C5.2,6.7,4.9,7,4.5,7.4C4.4,7.6,4.4,7.8,4.6,8C4.6,8,4.7,8.1,4.9,8.1z"/>
<path class="st1" d="M28.2,9.6c0.1,0.1,0.2,0.2,0.3,0.2c0.1,0,0.2,0,0.3-0.1c0.1-0.1,0.1-0.2,0.2-0.3c0-0.1,0-0.2-0.1-0.3
	c-0.3-0.4-0.6-0.7-1-1.1c-0.1-0.1-0.2-0.1-0.3-0.1c-0.1,0-0.2,0-0.3,0.1c-0.1,0.1-0.1,0.2-0.1,0.3c0,0.1,0.1,0.2,0.1,0.3
	C27.6,8.9,27.9,9.3,28.2,9.6z"/>
<path class="st1" d="M25.1,6.8c0.4,0.3,0.7,0.6,1.1,0.9c0.1,0.1,0.2,0.1,0.3,0.1c0.1,0,0.2,0,0.3-0.1c0.1-0.1,0.1-0.2,0.1-0.3
	c0-0.1,0-0.2-0.1-0.3c-0.4-0.3-0.7-0.6-1.2-0.9C25.6,6,25.5,6,25.4,6c-0.1,0-0.3,0.1-0.3,0.2C25,6.3,25,6.4,25,6.5
	C25,6.6,25.1,6.7,25.1,6.8z"/>
<path class="st1" d="M29.8,11.9c0.1,0.1,0.2,0.2,0.4,0.2c0.1,0,0.2,0,0.2-0.1c0.2-0.1,0.3-0.4,0.1-0.5c-0.2-0.4-0.5-0.8-0.8-1.2
	c-0.1-0.1-0.2-0.2-0.3-0.2c-0.1,0-0.2,0-0.2,0.1c-0.1,0.1-0.2,0.2-0.2,0.3c0,0.1,0,0.2,0.1,0.3C29.3,11.1,29.6,11.5,29.8,11.9z"/>
<path class="st1" d="M1.3,12.8c0.1,0,0.1,0.1,0.2,0.1c0.1,0,0.3-0.1,0.4-0.2c0.2-0.4,0.4-0.8,0.7-1.2c0.1-0.2,0-0.4-0.2-0.6
	c-0.1,0-0.1-0.1-0.2-0.1c-0.2,0-0.3,0.1-0.4,0.2c-0.3,0.4-0.5,0.8-0.7,1.3C1.1,12.4,1.1,12.7,1.3,12.8z"/>
<path class="st1" d="M31.7,13.7c-0.3-0.4-0.5-0.8-0.7-1.2c-0.1-0.1-0.2-0.2-0.4-0.2c-0.1,0-0.2,0-0.2,0.1c-0.2,0.1-0.3,0.4-0.1,0.5
	c0.3,0.4,0.5,0.8,0.7,1.2c0.1,0.1,0.2,0.2,0.4,0.2c0.1,0,0.2,0,0.2,0C31.8,14.2,31.8,14,31.7,13.7z"/>
<path class="st1" d="M1.2,18.5c0.1-0.1,0.1-0.2,0-0.3c-0.1-0.4-0.2-0.9-0.3-1.4c0-0.2-0.2-0.4-0.4-0.4c0,0,0,0-0.1,0
	c-0.2,0-0.4,0.3-0.3,0.5c0.1,0.5,0.2,1,0.3,1.4c0,0.2,0.2,0.3,0.4,0.3c0,0,0.1,0,0.1,0C1.1,18.7,1.2,18.6,1.2,18.5z"/>
<path class="st1" d="M2.3,20.7c-0.2-0.4-0.4-0.8-0.6-1.2c-0.1-0.2-0.2-0.3-0.4-0.3c0,0-0.1,0-0.2,0C1,19.3,0.9,19.6,1,19.8
	c0.2,0.5,0.4,0.9,0.6,1.3c0.1,0.1,0.2,0.2,0.4,0.2c0.1,0,0.1,0,0.2-0.1c0.1-0.1,0.2-0.1,0.2-0.3C2.4,20.9,2.4,20.8,2.3,20.7z"/>
<path class="st1" d="M22.7,26.1C22.6,26.1,22.6,26.1,22.7,26.1c-0.5,0.1-1,0.2-1.5,0.3c-0.1,0-0.2,0.1-0.3,0.2s-0.1,0.2-0.1,0.3
	c0,0.2,0.2,0.4,0.4,0.4c0,0,0.1,0,0.1,0c0.5-0.1,1-0.2,1.4-0.3c0.2-0.1,0.4-0.3,0.3-0.5C23,26.2,22.8,26.1,22.7,26.1z"/>
<path class="st1" d="M25.3,25.2c-0.1,0-0.1,0-0.2,0c-0.4,0.2-0.8,0.4-1.3,0.5c-0.1,0-0.2,0.1-0.3,0.2c0,0.1,0,0.2,0,0.3
	c0,0.2,0.2,0.3,0.4,0.3c0,0,0.1,0,0.1,0c0.5-0.2,0.9-0.3,1.3-0.5c0.1,0,0.2-0.1,0.2-0.2c0-0.1,0-0.2,0-0.3
	C25.7,25.3,25.5,25.2,25.3,25.2z"/>
<path class="st1" d="M29.9,21.6c-0.1,0-0.1-0.1-0.2-0.1c-0.1,0-0.3,0.1-0.4,0.2c-0.2,0.4-0.5,0.7-0.8,1.1c-0.1,0.1-0.1,0.2-0.1,0.3
	c0,0.1,0,0.2,0.1,0.3c0.1,0.1,0.2,0.1,0.3,0.1c0.1,0,0.2,0,0.3-0.1c0.3-0.4,0.6-0.8,0.9-1.2C30.1,22,30.1,21.8,29.9,21.6z"/>
<path class="st1" d="M27.8,23.7c-0.1,0-0.2,0-0.3,0.1c-0.4,0.3-0.7,0.6-1.1,0.8c-0.2,0.1-0.3,0.4-0.1,0.6c0.1,0.1,0.2,0.2,0.4,0.2
	c0.1,0,0.1,0,0.2-0.1c0.4-0.3,0.9-0.5,1.2-0.9c0.1-0.1,0.2-0.2,0.2-0.3c0-0.1,0-0.2-0.1-0.3S27.9,23.7,27.8,23.7z"/>
<path class="st1" d="M30.9,18.9C30.8,18.9,30.8,18.9,30.9,18.9c-0.3,0-0.4,0.1-0.5,0.3c-0.1,0.4-0.3,0.9-0.4,1.3c0,0.1,0,0.2,0,0.3
	s0.1,0.2,0.2,0.2c0,0,0.1,0,0.2,0c0.2,0,0.3-0.1,0.4-0.3c0.2-0.4,0.4-0.9,0.5-1.4C31.2,19.2,31.1,19,30.9,18.9z"/>
<path class="st1" d="M31.2,16.1c-0.2,0-0.4,0.2-0.4,0.4c0,0.5-0.1,1-0.1,1.4c0,0.1,0,0.2,0.1,0.3c0.1,0.1,0.2,0.1,0.3,0.2
	c0,0,0,0,0.1,0c0.2,0,0.4-0.2,0.4-0.4c0.1-0.4,0.1-0.9,0.2-1.5c0-0.1,0-0.2-0.1-0.3C31.4,16.2,31.3,16.1,31.2,16.1z"/>
<path class="st1" d="M11.4,26.5c-0.5-0.1-0.9-0.2-1.4-0.3c0,0-0.1,0-0.1,0c-0.2,0-0.4,0.1-0.4,0.3c0,0.1,0,0.2,0,0.3
	s0.2,0.2,0.3,0.2c0.4,0.1,0.9,0.2,1.4,0.3c0,0,0.1,0,0.1,0c0.2,0,0.4-0.1,0.4-0.3c0-0.1,0-0.2-0.1-0.3S11.5,26.5,11.4,26.5z"/>
<path class="st1" d="M8.6,25.8c-0.4-0.2-0.9-0.3-1.3-0.5c-0.1,0-0.1,0-0.2,0c-0.2,0-0.3,0.1-0.4,0.2c0,0.1,0,0.2,0,0.3S6.9,26,7,26
	c0.4,0.2,0.9,0.4,1.3,0.5c0,0,0.1,0,0.1,0c0.2,0,0.4-0.1,0.4-0.3c0-0.1,0-0.2,0-0.3C8.8,25.9,8.8,25.8,8.6,25.8z"/>
<path class="st1" d="M6.1,24.6c-0.4-0.2-0.8-0.5-1.2-0.8c-0.1-0.1-0.2-0.1-0.3-0.1c-0.1,0-0.2,0.1-0.3,0.2c-0.1,0.2-0.1,0.4,0.1,0.6
	c0.4,0.3,0.8,0.6,1.2,0.8c0.1,0,0.1,0.1,0.2,0.1c0.2,0,0.3-0.1,0.4-0.2s0.1-0.2,0.1-0.3C6.3,24.8,6.2,24.7,6.1,24.6z"/>
<path class="st1" d="M3.1,21.9c-0.1-0.1-0.2-0.2-0.3-0.2c-0.1,0-0.2,0-0.3,0.1c-0.2,0.1-0.2,0.4-0.1,0.6c0.3,0.4,0.6,0.8,1,1.1
	c0.1,0.1,0.2,0.1,0.3,0.1s0.2,0,0.3-0.1c0.1-0.1,0.1-0.2,0.1-0.3C4.1,23.1,4,23,4,22.9C3.6,22.6,3.4,22.2,3.1,21.9z"/>
<path class="st1" d="M19.8,26.6C19.8,26.6,19.8,26.6,19.8,26.6c-0.5,0.1-1,0.1-1.4,0.1c-0.1,0-0.2,0.1-0.3,0.1
	C18,27,18,27.1,18,27.2c0,0.2,0.2,0.4,0.4,0.4l0,0c0.5-0.1,1-0.1,1.5-0.2c0.1,0,0.2-0.1,0.3-0.1c0.1-0.1,0.1-0.2,0.1-0.3
	C20.2,26.8,20,26.6,19.8,26.6z"/>
<path class="st1" d="M17,26.8L17,26.8c-0.4,0-0.7,0-1.1,0c-0.1,0-0.2,0-0.4,0c-0.2,0-0.4,0.2-0.4,0.4s0.2,0.4,0.4,0.4
	c0.1,0,0.2,0,0.4,0c0.4,0,0.7,0,1.1,0c0.1,0,0.2-0.1,0.3-0.1c0.1-0.1,0.1-0.2,0.1-0.3C17.4,27,17.2,26.8,17,26.8z"/>
<path class="st1" d="M14.1,26.8c-0.5,0-0.9-0.1-1.4-0.1h0c-0.2,0-0.4,0.2-0.4,0.4c0,0.1,0,0.2,0.1,0.3s0.2,0.1,0.3,0.2
	c0.5,0,1,0.1,1.5,0.1l0,0c0.2,0,0.4-0.2,0.4-0.4c0-0.1,0-0.2-0.1-0.3C14.4,26.8,14.3,26.8,14.1,26.8z"/>
</svg>
