<?xml version="1.0" encoding="utf-8"?>
<!-- Generator: Adobe Illustrator 26.3.1, SVG Export Plug-In . SVG Version: 6.00 Build 0)  -->
<svg version="1.1" id="Layer_1" xmlns="http://www.w3.org/2000/svg" xmlns:xlink="http://www.w3.org/1999/xlink" x="0px" y="0px"
	 viewBox="0 0 32 32" style="enable-background:new 0 0 32 32;" xml:space="preserve">
<style type="text/css">
	.st0{fill:#F797C3;}
	.st1{fill:#4045F7;}
</style>
<path class="st0" d="M13.5,14.5c-0.2-0.1-0.4-0.2-0.6-0.2c-1.2,0-2.8,1.4-4,3.5c-0.7,1.2-1.1,2.3-1.3,3.4c-0.2,1.2,0,2,0.6,2.3
	c0.2,0.1,0.4,0.2,0.6,0.2c1.2,0,2.8-1.4,4-3.5c0.7-1.2,1.2-2.3,1.3-3.4C14.3,15.7,14.1,14.9,13.5,14.5z M13.3,16.7
	c-0.1,0.9-0.6,2-1.2,3c-1.1,2-2.5,3.1-3.2,3.1c-0.1,0-0.1,0-0.2,0c-0.3-0.2-0.3-0.7-0.2-1.4c0.1-0.9,0.5-2,1.2-3
	c1.1-2,2.5-3.1,3.2-3.1c0.1,0,0.2,0,0.2,0C13.3,15.4,13.4,16,13.3,16.7z"/>
<path class="st0" d="M24.4,21.2c-0.2-1-0.6-2.2-1.3-3.4c-1.2-2.1-2.8-3.5-4-3.5c-0.2,0-0.4,0-0.6,0.2c-0.6,0.3-0.8,1.2-0.6,2.3
	c0.2,1,0.6,2.2,1.3,3.4c1.2,2.1,2.8,3.5,4,3.5c0.3,0,0.4-0.1,0.6-0.2C24.4,23.2,24.6,22.4,24.4,21.2z M23.3,22.8c-0.1,0-0.1,0-0.2,0
	c-0.7,0-2.1-1.2-3.2-3.1c-0.6-1.1-1.1-2.1-1.2-3c-0.1-0.7,0-1.3,0.2-1.4c0.1,0,0.1,0,0.2,0c0.7,0,2.1,1.2,3.2,3.1
	c0.6,1.1,1.1,2.1,1.2,3C23.7,22.1,23.6,22.7,23.3,22.8z"/>
<path class="st0" d="M29.1,21.8C29.1,21.8,29.1,21.8,29.1,21.8c0-0.1-2.3-4.1-3.2-6.4c-0.9-2.3-2.4-6.2-2.4-6.2c-2.2-5.6-6-6-7.1-6
	c-0.3,0-0.4,0-0.4,0c-0.1,0-0.2,0-0.3,0c-1.1,0-4.9,0.4-7.1,6c0,0.1-1.5,4-2.4,6.2c-0.9,2.3-3.1,6.1-3.1,6.1c0,0,0,0.1-0.1,0.1
	c-0.7,2.2-0.6,4,0.3,5.2c1.2,1.8,3.3,1.9,3.3,1.9c0.2,0,0.4,0.1,0.7,0.1c2,0,3.4-1.2,4.8-2.5c1.3-1.1,2.5-2.1,4-2.1c0,0,0.1,0,0.1,0
	c1.5,0,2.7,1.1,3.9,2.1c1.4,1.2,2.8,2.4,4.8,2.4c0.2,0,0.4,0,0.6,0s2.2-0.2,3.3-1.8C29.8,25.8,29.9,24,29.1,21.8z M28.2,26.6
	c-0.9,1.3-2.6,1.4-2.7,1.4s0,0,0,0c-0.2,0-0.4,0-0.5,0c-1.7,0-2.9-1.1-4.3-2.2c-1.3-1.2-2.8-2.3-4.6-2.3c0,0-0.1,0-0.1,0
	c-1.8,0.1-3.2,1.2-4.5,2.4C10.2,26.9,8.9,28,7.2,28c-0.2,0-0.4,0-0.6-0.1c0,0-1.7-0.2-2.7-1.5c-0.7-1.1-0.7-2.6-0.1-4.5
	c0.3-0.4,2.3-4,3.2-6.2C8,13.5,9.4,9.5,9.5,9.5c2-5.1,5.3-5.5,6.3-5.5C15.9,4,16,4,16,4c0,0,0,0,0.1,0s0.1,0,0.1,0c0,0,0.1,0,0.2,0
	c1,0,4.3,0.4,6.3,5.5c0,0,1.5,3.9,2.4,6.2c0.9,2.2,2.9,6,3.2,6.4C28.9,24.1,28.9,25.5,28.2,26.6z"/>
<path class="st1" d="M31.4,11h-3.3l0.7-0.4c0.2-0.1,0.3-0.4,0.2-0.6c-0.1-0.1-0.2-0.2-0.4-0.2c-0.1,0-0.1,0-0.2,0.1l-2,1.2
	c-0.1,0.1-0.2,0.2-0.2,0.3c0,0,0,0,0,0.1s0,0,0,0.1c0,0.1,0.1,0.2,0.2,0.3l2,1.2c0.1,0,0.2,0.1,0.2,0.1c0.2,0,0.3-0.1,0.4-0.2
	c0.1-0.2,0.1-0.4-0.2-0.6l-0.7-0.4h3.3c0.3,0,0.4-0.2,0.4-0.4S31.6,11,31.4,11z"/>
<path class="st1" d="M3.2,12.3C3,12.4,3,12.6,3.1,12.9c0.1,0.1,0.2,0.2,0.4,0.2c0.1,0,0.2,0,0.2-0.1l2-1.2c0.1-0.1,0.2-0.2,0.2-0.4
	v0c0,0,0,0,0-0.1c0-0.1-0.1-0.3-0.2-0.3l-2-1.2c-0.1,0-0.1,0-0.2,0c-0.1,0-0.3,0.1-0.4,0.2C3,10.2,3,10.5,3.2,10.6L3.9,11H0.6
	c-0.2,0-0.4,0.2-0.4,0.4s0.2,0.4,0.4,0.4h3.3L3.2,12.3z"/>
<path class="st1" d="M15.7,7.5c0-0.1,0-0.2-0.1-0.3c-0.4-0.5-0.9-0.8-1.5-0.8c-0.1,0-0.1,0-0.2,0c-0.3,0-0.4,0.2-0.4,0.4
	c0,0.2,0.2,0.4,0.4,0.4c0,0,0,0,0,0c0.1,0,0.1,0,0.1,0c0.3,0,0.6,0.2,0.8,0.4c0.1,0.1,0.2,0.2,0.3,0.2c0.1,0,0.2,0,0.3-0.1
	S15.6,7.6,15.7,7.5z"/>
<path class="st1" d="M16.1,19.9L16.1,19.9c0.3,0,0.4-0.2,0.4-0.4V18c0-0.2-0.2-0.4-0.4-0.4c-0.2,0-0.4,0.2-0.4,0.4v1.5
	C15.7,19.7,15.9,19.9,16.1,19.9z"/>
<path class="st1" d="M16.1,20.6c-0.1,0-0.2,0-0.3,0.1c-0.1,0.1-0.1,0.2-0.1,0.3v0.7c0,0.3,0.2,0.4,0.4,0.4l0,0
	c0.1,0,0.2-0.1,0.3-0.1c0.1-0.1,0.1-0.2,0.1-0.3V21C16.5,20.8,16.3,20.6,16.1,20.6z"/>
<path class="st1" d="M16.1,14.5c-0.3,0-0.4,0.2-0.4,0.4v1.5c0,0.2,0.2,0.4,0.4,0.4l0,0c0.3,0,0.4-0.2,0.4-0.4v-1.5
	C16.5,14.7,16.3,14.5,16.1,14.5z"/>
<path class="st1" d="M16.1,11.5L16.1,11.5L16.1,11.5c-0.1,0-0.2,0-0.3,0.1c-0.1,0.1-0.1,0.2-0.1,0.3v1.5c0,0.2,0.2,0.4,0.4,0.4l0,0
	c0.3,0,0.4-0.2,0.4-0.4v-1.5C16.5,11.6,16.3,11.5,16.1,11.5z"/>
<path class="st1" d="M16.4,8.4c0,0-0.1,0-0.1,0s-0.2,0-0.2,0.1c-0.1-0.1-0.2-0.1-0.3-0.1c0,0-0.1,0-0.1,0c-0.2,0-0.4,0.3-0.3,0.5
	c0.1,0.4,0.2,0.9,0.2,1.4c0,0.2,0.2,0.4,0.4,0.4h0c0.2,0,0.4-0.2,0.4-0.4c0-0.5,0.1-1,0.2-1.4C16.8,8.7,16.7,8.5,16.4,8.4z"/>
<path class="st1" d="M10.3,11.5c0,0,0.1,0,0.1,0c0.2,0,0.4-0.1,0.4-0.3c0.2-0.5,0.4-1,0.4-1.4l0,0c0-0.1,0-0.2,0-0.3
	c-0.1-0.1-0.2-0.2-0.3-0.2c-0.1,0-0.1,0-0.1,0c-0.2,0-0.4,0.1-0.4,0.3l0,0c-0.1,0.4-0.3,0.9-0.4,1.4C9.9,11.2,10,11.4,10.3,11.5z"/>
<path class="st1" d="M9,14.4c0,0,0.1,0.1,0.2,0.1c0.2,0,0.3-0.1,0.4-0.3c0.2-0.5,0.4-1,0.6-1.4c0.1-0.2,0-0.4-0.2-0.5
	c-0.1,0-0.1,0-0.2,0c-0.2,0-0.4,0.1-0.4,0.3c-0.2,0.4-0.4,0.9-0.6,1.4C8.7,14.1,8.8,14.3,9,14.4z"/>
<path class="st1" d="M7.9,17.2c0.2,0,0.3-0.1,0.4-0.3c0,0,0.3-0.6,0.7-1.4c0.1-0.2,0-0.5-0.2-0.6c-0.1,0-0.1,0-0.2,0
	c-0.2,0-0.4,0.1-0.4,0.3c-0.4,0.8-0.6,1.3-0.6,1.3c-0.1,0.2,0,0.5,0.2,0.6C7.7,17.2,7.8,17.2,7.9,17.2z"/>
<path class="st1" d="M11.2,8.7c0.1,0,0.2,0.1,0.2,0.1c0.2,0,0.3-0.1,0.4-0.2c0.3-0.4,0.6-0.7,0.9-1C12.9,7.4,13,7.2,12.8,7
	c-0.1-0.1-0.2-0.2-0.4-0.2c-0.1,0-0.2,0-0.3,0.1c-0.4,0.3-0.8,0.7-1.1,1.2C11,8.3,11,8.6,11.2,8.7z"/>
<path class="st1" d="M18.3,7.3C18.3,7.3,18.3,7.3,18.3,7.3c0.3,0,0.4-0.2,0.4-0.4c0-0.2-0.2-0.4-0.4-0.4c-0.1,0-0.1,0-0.2,0
	c-0.6,0-1.1,0.3-1.5,0.8c-0.2,0.2-0.1,0.5,0.1,0.6c0.1,0.1,0.2,0.1,0.3,0.1s0.3-0.1,0.3-0.2c0.3-0.3,0.5-0.4,0.8-0.4
	C18.2,7.3,18.2,7.3,18.3,7.3z"/>
<path class="st1" d="M20.9,9.8L20.9,9.8c0.1,0.5,0.3,1,0.5,1.5c0.1,0.2,0.2,0.3,0.4,0.3c0,0,0.1,0,0.1,0c0.1,0,0.2-0.1,0.3-0.2
	c0-0.1,0.1-0.2,0-0.3c-0.2-0.5-0.3-1-0.4-1.4v0c-0.1-0.2-0.2-0.3-0.4-0.3c0,0-0.1,0-0.1,0C21,9.3,20.8,9.5,20.9,9.8z"/>
<path class="st1" d="M22.1,12.8c0.2,0.5,0.4,0.9,0.6,1.4c0.1,0.1,0.2,0.3,0.4,0.3c0.1,0,0.1,0,0.2-0.1c0.2-0.1,0.3-0.4,0.2-0.5
	c-0.2-0.5-0.4-1-0.6-1.4c-0.1-0.2-0.2-0.3-0.4-0.3c-0.1,0-0.1,0-0.2,0C22.1,12.4,22,12.6,22.1,12.8z"/>
<path class="st1" d="M24.1,15.3C24,15.1,23.9,15,23.7,15c-0.1,0-0.1,0-0.2,0c-0.2,0.1-0.3,0.4-0.2,0.6c0.4,0.8,0.6,1.3,0.7,1.4
	c0.1,0.2,0.2,0.3,0.4,0.3c0.1,0,0.1,0,0.2-0.1c0.2-0.1,0.3-0.4,0.2-0.6C24.7,16.6,24.5,16.1,24.1,15.3z"/>
<path class="st1" d="M19.4,7.6c0.4,0.3,0.7,0.6,0.9,1c0.1,0.1,0.2,0.2,0.4,0.2c0.1,0,0.2,0,0.2-0.1c0.2-0.2,0.3-0.4,0.1-0.6
	c-0.3-0.5-0.7-0.9-1.1-1.2c-0.1-0.1-0.2-0.1-0.3-0.1c-0.2,0-0.3,0.1-0.4,0.2c-0.1,0.1-0.1,0.2-0.1,0.3C19.3,7.4,19.3,7.5,19.4,7.6z"
	/>
</svg>
