<?xml version="1.0" encoding="utf-8"?>
<!-- Generator: Adobe Illustrator 26.3.1, SVG Export Plug-In . SVG Version: 6.00 Build 0)  -->
<svg version="1.1" id="Layer_1" xmlns="http://www.w3.org/2000/svg" xmlns:xlink="http://www.w3.org/1999/xlink" x="0px" y="0px"
	 viewBox="0 0 32 32" style="enable-background:new 0 0 32 32;" xml:space="preserve">
<style type="text/css">
	.st0{fill:#F797C3;}
	.st1{fill:#4045F7;}
</style>
<path class="st0" d="M11.1,13.7c-0.7,0-1.3,0.6-1.3,1.3c0,0.7,0.6,1.3,1.3,1.3c0.7,0,1.3-0.6,1.3-1.3C12.4,14.2,11.9,13.7,11.1,13.7
	z M11.1,15.5c-0.3,0-0.5-0.3-0.5-0.6c0-0.3,0.3-0.5,0.5-0.5c0.3,0,0.6,0.3,0.6,0.5C11.7,15.3,11.5,15.5,11.1,15.5z"/>
<path class="st0" d="M21.1,13.7c-0.7,0-1.3,0.6-1.3,1.3c0,0.7,0.6,1.3,1.3,1.3c0.7,0,1.3-0.6,1.3-1.3C22.4,14.2,21.8,13.7,21.1,13.7
	z M21.1,15.5c-0.3,0-0.5-0.3-0.5-0.6c0-0.3,0.3-0.5,0.5-0.5c0.3,0,0.6,0.3,0.6,0.5C21.7,15.3,21.4,15.5,21.1,15.5z"/>
<path class="st0" d="M28.2,12.5c0-1.7,0-3.6-0.7-5.1c-0.8-1.5-2.7-1.9-4.3-2.2c-0.9-0.2-1.8-0.4-2.4-0.7c-1.2-0.6-1.5-2.3-1.6-3.3
	c-0.1-0.6-0.5-1-1.1-1h-4.2c-0.6,0-1,0.4-1.1,1c-0.1,0.9-0.4,2.6-1.6,3.3C10.6,4.8,9.7,5,8.8,5.2C7.2,5.5,5.3,5.8,4.5,7.4
	c-0.8,1.5-0.7,3.4-0.7,5.1c0,0.7,0,1.4,0,2c-0.1,0.4,0.3,0.9,0.7,1c0,0,0.1,0,0.1,0h2.8c0.1,0,0.1,0,0.2,0c0.2,0,0.4-0.1,0.5-0.2
	c0.1,0.3,0.1,0.6,0.3,0.9c0.4,1.7,0.1,3.6-0.8,5.6c-0.3,0.7-0.6,1.3-0.9,2c-1.3,2.8-2.6,5.5-1,7.7c0.1,0.1,0.2,0.2,0.3,0.2h20.3
	c0.1,0,0.2-0.1,0.3-0.2c1.5-2.2,0.3-4.9-1-7.7c-0.3-0.6-0.6-1.2-0.9-1.9c-0.8-1.9-1-3.7-0.6-5.5c0.1-0.3,0.2-0.6,0.3-1
	c0.1,0,0.1,0,0.2,0c0.1,0,0.1,0,0.2,0l3-0.1c0,0,0,0,0.1,0c0.4-0.1,0.7-0.5,0.6-0.9C28.2,14,28.2,13.2,28.2,12.5z M27.5,14.7l-3,0.1
	c0,0-0.1,0-0.1,0h0c0,0,0,0-0.1,0c0,0,0,0,0-0.1c0-0.1,0-0.1,0-0.2c0-0.6-0.1-1.2-0.2-1.9c-0.4-1.6,0-2.2,0.1-2.2
	c0.1-0.1,0.1-0.2,0.1-0.3s-0.1-0.2-0.1-0.3c-0.1-0.1-0.2-0.1-0.3-0.1s-0.2,0.1-0.3,0.1c-0.1,0.1-0.7,0.8-0.3,2.9
	c0.2,0.8,0.4,2.2-0.1,3.4c0,0,0,0.1,0,0.1c-0.1,0.2-0.2,0.4-0.3,0.5c-0.4,0.6-1.2,1-2.2,1.1c-0.1,0-0.2,0-0.2,0
	c-2.2,0-3.2-2.2-3.3-2.5c0-0.2-0.2-0.3-0.4-0.3c0,0,0,0-0.1,0c-0.1,0-0.2,0.1-0.2,0.2c-0.1,0.1-0.1,0.2-0.1,0.3
	c0.1,0.6,1.4,3.1,4,3.1c0.1,0,0.2,0,0.3,0c0.9-0.1,1.7-0.4,2.2-0.8c0,0.5,0,1.1,0,1.6c-0.1-0.1-0.1-0.1-0.2-0.1c0,0-0.1,0-0.1,0
	c-0.2,0-0.3,0.1-0.4,0.2c0,0-0.2,0.5-0.4,1.3c0,0.1,0,0.2,0,0.3c0.1,0.1,0.1,0.1,0.2,0.2c0,0,0.1,0,0.1,0c0.2,0,0.3-0.1,0.4-0.3
	c0.2-0.7,0.4-1.2,0.4-1.2c0.1,0.9,0.4,1.8,0.8,2.7c0.3,0.7,0.6,1.3,0.9,1.9c1.2,2.7,2.3,5,1.2,6.8H6c-1.1-1.8,0-4.1,1.2-6.8
	c0.3-0.7,0.6-1.3,0.9-2c0.4-0.9,0.6-1.7,0.8-2.6c0,0,0,0,0,0c0,0,0.2,0.5,0.4,1.2c0,0.2,0.2,0.3,0.4,0.3c0,0,0.1,0,0.1,0
	c0.1,0,0.2-0.1,0.2-0.2c0-0.1,0.1-0.2,0-0.3c-0.2-0.7-0.4-1.2-0.4-1.2c-0.1-0.2-0.2-0.3-0.4-0.3c0,0-0.1,0-0.1,0
	c-0.1,0-0.1,0.1-0.2,0.1c0.1-0.6,0.1-1.2,0.1-1.8c0.5,0.4,1.2,0.7,2.1,0.7c0.1,0,0.1,0,0.2,0c2.7,0,4-2.3,4.1-2.9
	c0-0.1,0-0.2-0.1-0.3c-0.1-0.1-0.1-0.1-0.2-0.2c0,0-0.1,0-0.1,0c-0.2,0-0.4,0.1-0.4,0.3c-0.1,0.4-1.2,2.3-3.4,2.3c0,0-0.1,0-0.1,0
	c-0.9,0-1.6-0.3-2-0.9c-0.9-1.1-0.6-3-0.4-3.8c0.4-2.1-0.4-3-0.5-3C8.3,9.6,8.2,9.6,8.1,9.6s-0.2,0-0.3,0.1c-0.1,0.1-0.2,0.4,0,0.5
	c0,0,0.6,0.7,0.3,2.4c-0.1,0.4-0.2,1.1-0.2,1.8c0,0,0,0.1-0.2,0.2c-0.1,0.1-0.2,0.2-0.3,0.2c0,0-0.1,0-0.1,0H4.6
	c-0.1,0-0.1-0.1-0.1-0.2c0.1-0.6,0-1.3,0-2.1c0-1.6,0-3.5,0.6-4.8C5.8,6.5,7.4,6.2,9,5.9c1-0.2,1.9-0.4,2.6-0.8
	c1.4-0.8,1.9-2.8,2-3.8c0-0.2,0.2-0.3,0.4-0.3h4.2c0.2,0,0.4,0.1,0.4,0.3c0.1,1.1,0.5,3,2,3.8c0.7,0.4,1.7,0.6,2.6,0.8
	c1.6,0.3,3.2,0.6,3.8,1.9c0.7,1.3,0.7,3.1,0.6,4.8C27.5,13.2,27.5,14,27.5,14.7C27.6,14.7,27.5,14.7,27.5,14.7z"/>
<path class="st0" d="M16.2,25.2c-0.2,0-0.3,0.2-0.3,0.4s0.1,0.5,0.3,0.5s0.3-0.2,0.3-0.5S16.4,25.2,16.2,25.2z"/>
<path class="st1" d="M1.8,19.3h1.6l-0.1,0.1c-0.1,0-0.2,0.1-0.2,0.2c0,0.1,0,0.2,0,0.3C3.3,20,3.4,20,3.6,20c0.1,0,0.1,0,0.2-0.1
	L5,19.2c0.1,0,0.2-0.1,0.2-0.3c0,0,0,0,0-0.1c0,0,0,0,0,0c0-0.1-0.1-0.2-0.2-0.3l-1.2-0.7c-0.1,0-0.1,0-0.2,0
	c-0.1,0-0.2,0.1-0.3,0.2c0,0.1-0.1,0.2,0,0.3c0,0.1,0.1,0.2,0.2,0.2l0.1,0.1H1.8c-0.2,0-0.4,0.2-0.4,0.4C1.5,19.1,1.6,19.3,1.8,19.3
	z"/>
<path class="st1" d="M1.8,22.9h1.6l-0.1,0c-0.1,0.1-0.1,0.1-0.2,0.2s0,0.2,0,0.3c0.1,0.1,0.2,0.2,0.3,0.2c0.1,0,0.1,0,0.2-0.1
	l1.2-0.7c0.1-0.1,0.2-0.2,0.2-0.3c0,0,0,0,0,0v0c0-0.1-0.1-0.2-0.2-0.3l-1.2-0.7c-0.1,0-0.1,0-0.2,0c-0.1,0-0.2,0.1-0.3,0.2
	c0,0.1-0.1,0.2,0,0.3c0,0.1,0.1,0.2,0.2,0.2l0.1,0.1H1.8c-0.2,0-0.4,0.2-0.4,0.4C1.4,22.8,1.6,22.9,1.8,22.9z"/>
<path class="st1" d="M5.1,26.3C5.1,26.3,5.1,26.3,5.1,26.3C5.1,26.3,5.1,26.3,5.1,26.3C5.1,26.1,5,26,4.9,26l-1.2-0.7
	c-0.1,0-0.1-0.1-0.2-0.1c-0.1,0-0.3,0.1-0.3,0.2c-0.1,0.1-0.1,0.2,0,0.3c0,0.1,0.1,0.2,0.2,0.2l0.1,0.1H1.7c-0.2,0-0.4,0.2-0.4,0.4
	c0,0.2,0.2,0.4,0.4,0.4h1.7l-0.1,0.1c-0.1,0-0.2,0.1-0.2,0.2c0,0.1,0,0.2,0,0.3s0.2,0.2,0.3,0.2c0.1,0,0.1,0,0.2,0l1.2-0.7
	C5,26.6,5.1,26.5,5.1,26.3z"/>
<path class="st1" d="M27,18.6c-0.1,0.1-0.2,0.2-0.2,0.3l0,0c0,0,0,0,0,0c0,0,0,0,0,0.1c0,0.1,0.1,0.2,0.2,0.3l1.2,0.7
	c0.1,0,0.1,0.1,0.2,0.1c0.1,0,0.3-0.1,0.3-0.2c0.1-0.2,0.1-0.4-0.1-0.5l-0.1-0.1h1.7c0.2,0,0.4-0.2,0.4-0.4c0-0.2-0.2-0.4-0.4-0.4
	h-1.6l0.1-0.1c0.2-0.1,0.3-0.3,0.1-0.5c-0.1-0.1-0.2-0.2-0.3-0.2c-0.1,0-0.1,0-0.2,0L27,18.6z"/>
<path class="st1" d="M30.6,22.5c0-0.2-0.2-0.4-0.4-0.4h-1.6l0.1-0.1c0.1,0,0.2-0.1,0.2-0.2c0-0.1,0-0.2-0.1-0.3s-0.2-0.2-0.3-0.2
	c-0.1,0-0.1,0-0.2,0l-1.2,0.7c-0.1,0.1-0.2,0.2-0.2,0.3v0v0c0,0,0,0,0,0.1c0,0.1,0.1,0.2,0.2,0.3l1.2,0.7c0,0,0.1,0.1,0.2,0.1
	c0.1,0,0.3-0.1,0.3-0.2c0.1-0.1,0.1-0.2,0.1-0.3c0-0.1-0.1-0.2-0.2-0.2l-0.1,0h1.7C30.4,22.9,30.6,22.8,30.6,22.5z"/>
<path class="st1" d="M30.2,25.9h-1.6l0.1-0.1c0.2-0.1,0.2-0.3,0.1-0.5c-0.1-0.1-0.2-0.2-0.3-0.2c-0.1,0-0.1,0-0.2,0.1L27.1,26
	c-0.1,0-0.2,0.1-0.2,0.3l0,0c0,0,0,0,0,0.1c0,0,0,0,0,0c0,0.1,0.1,0.2,0.2,0.3l1.2,0.8c0.1,0,0.1,0,0.2,0c0.1,0,0.3-0.1,0.3-0.2
	c0.1-0.2,0-0.4-0.1-0.5l-0.1-0.1h1.6c0.2,0,0.4-0.2,0.4-0.4C30.6,26.1,30.4,25.9,30.2,25.9z"/>
<path class="st1" d="M21.9,23.6L21.9,23.6c0.2,0,0.4-0.2,0.4-0.4c0-0.4,0.1-0.8,0.2-1.2c0-0.1,0-0.2-0.1-0.3
	c-0.1-0.1-0.2-0.1-0.3-0.2c0,0,0,0-0.1,0c-0.2,0-0.3,0.1-0.4,0.3c-0.1,0.5-0.2,0.9-0.2,1.3C21.6,23.5,21.7,23.6,21.9,23.6z"/>
<path class="st1" d="M22.7,26c0-0.1,0-0.2,0-0.3c-0.1-0.3-0.2-0.6-0.3-0.9c0-0.1,0-0.1,0-0.2c0-0.2-0.2-0.3-0.4-0.3h0
	c-0.1,0-0.2,0.1-0.3,0.2c-0.1,0.1-0.1,0.2-0.1,0.3c0,0.1,0,0.2,0.1,0.3c0.1,0.3,0.2,0.6,0.3,1c0.1,0.1,0.2,0.2,0.4,0.2
	c0.1,0,0.1,0,0.1,0C22.6,26.1,22.6,26,22.7,26z"/>
<path class="st1" d="M23.8,28.3c0-0.1,0-0.2,0-0.3c-0.1-0.2-0.2-0.4-0.3-0.6l0,0c-0.1-0.2-0.2-0.4-0.2-0.5c-0.1-0.1-0.2-0.2-0.4-0.2
	c0,0-0.1,0-0.2,0c-0.2,0.1-0.3,0.3-0.2,0.5c0.1,0.2,0.2,0.3,0.2,0.5l0,0c0.1,0.2,0.2,0.4,0.3,0.7c0.1,0.1,0.2,0.2,0.4,0.2
	c0.1,0,0.1,0,0.2,0C23.7,28.4,23.8,28.4,23.8,28.3z"/>
<path class="st1" d="M24.3,29.2C24.2,29.1,24.1,29,24,29c0,0-0.1,0-0.1,0c-0.2,0.1-0.3,0.3-0.2,0.5c0.2,0.4,0.3,0.8,0.4,1.2
	c0.1,0.2,0.2,0.3,0.4,0.3c0,0,0.1,0,0.1,0c0.2-0.1,0.3-0.3,0.3-0.4C24.6,30,24.5,29.6,24.3,29.2z"/>
<path class="st1" d="M10.1,21.6C10,21.6,10,21.6,10.1,21.6c-0.2,0-0.3,0.1-0.3,0.2c0,0.1-0.1,0.2-0.1,0.3c0.1,0.4,0.2,0.9,0.2,1.2
	c0,0.2,0.2,0.4,0.4,0.4l0,0c0.2,0,0.4-0.2,0.4-0.4c0-0.4-0.1-0.9-0.2-1.3C10.4,21.8,10.2,21.6,10.1,21.6z"/>
<path class="st1" d="M10.2,24.2C10.2,24.2,10.2,24.2,10.2,24.2c-0.2,0-0.4,0.1-0.4,0.3c0,0.1,0,0.2,0,0.2c-0.1,0.3-0.2,0.6-0.3,0.9
	c0,0.1,0,0.2,0,0.3s0.1,0.2,0.2,0.2c0,0,0.1,0,0.1,0c0.1,0,0.3-0.1,0.3-0.3c0.2-0.4,0.3-0.7,0.3-1c0-0.1,0-0.2,0.1-0.3
	c0-0.1,0-0.2-0.1-0.3C10.4,24.3,10.3,24.2,10.2,24.2z"/>
<path class="st1" d="M9.5,26.7c-0.1,0-0.1,0-0.2,0c-0.2,0-0.3,0.1-0.4,0.2c-0.1,0.2-0.2,0.3-0.2,0.5l0,0c-0.1,0.2-0.2,0.4-0.3,0.6
	c-0.1,0.1-0.1,0.2,0,0.3s0.1,0.2,0.2,0.2c0.1,0,0.1,0,0.2,0c0.1,0,0.3-0.1,0.3-0.2c0.1-0.2,0.2-0.4,0.3-0.6l0,0
	c0.1-0.2,0.2-0.3,0.2-0.5C9.7,27,9.6,26.8,9.5,26.7z"/>
<path class="st1" d="M8.4,29c0,0-0.1,0-0.1,0c-0.2,0-0.3,0.1-0.4,0.2c-0.2,0.4-0.3,0.9-0.4,1.3c0,0.2,0.1,0.4,0.3,0.4c0,0,0,0,0.1,0
	c0.2,0,0.3-0.1,0.4-0.3c0.1-0.4,0.2-0.8,0.4-1.2C8.7,29.3,8.6,29.1,8.4,29z"/>
</svg>
