<?xml version="1.0" encoding="utf-8"?>
<!-- Generator: Adobe Illustrator 26.3.1, SVG Export Plug-In . SVG Version: 6.00 Build 0)  -->
<svg version="1.1" id="Layer_1" xmlns="http://www.w3.org/2000/svg" xmlns:xlink="http://www.w3.org/1999/xlink" x="0px" y="0px"
	 viewBox="0 0 32 32" style="enable-background:new 0 0 32 32;" xml:space="preserve">
<style type="text/css">
	.st0{fill:#F797C3;}
	.st1{fill:#4045F7;}
</style>
<path class="st0" d="M26.9,8.7l-0.2-0.4c-0.9-1.9-2-4.3-2.4-6.4c-0.2-1-1.1-1.7-2-1.7H9.6c-1,0-1.9,0.7-2,1.7C7.1,4,6.1,6.3,5.2,8.2
	L5,8.7c-1.2,2.6-1.5,4.5-1.3,7.4C3.8,18.3,5,26.5,5.4,30c0.2,1.1,1.1,1.9,2.1,1.9h5.3c1.1,0,2-0.8,2.1-1.9l0.9-7.7l0.9,7.7
	c0.1,1.1,1.1,1.9,2.1,1.9h5.4c1.1,0,1.9-0.8,2.1-1.8c0.5-3.1,1.8-10.6,2-12.9C28.6,14.3,28,11.2,26.9,8.7z M27.6,17.1
	c-0.2,2.2-1.4,9.7-2,12.8C25.5,30.5,25,31,24.3,31h-5.4c-0.7,0-1.3-0.5-1.3-1.2l-1.2-10.7c0.8,0.4,2.2,0.6,3.7,0.6
	c1.1,0,3.3-0.1,5.1-1.1c0.2-0.1,0.3-0.4,0.2-0.5c-0.1-0.1-0.2-0.2-0.4-0.2c-0.1,0-0.1,0-0.2,0.1c-1.6,0.9-3.6,1-4.7,1
	c-1.8,0-3.2-0.4-3.6-0.7v-5.2c0-0.2-0.2-0.4-0.4-0.4s-0.4,0.2-0.4,0.4v5.2c-0.5,0.4-2,0.7-3.7,0.7c-1.2,0-3.1-0.2-4.6-1
	c-0.1,0-0.1-0.1-0.2-0.1c-0.2,0-0.3,0.1-0.4,0.2c-0.1,0.2,0,0.4,0.2,0.5c1.3,0.7,3.1,1.1,5.1,1.1c1.4,0,2.7-0.2,3.5-0.5l-1.2,10.6
	c-0.1,0.7-0.7,1.2-1.3,1.2H7.6c-0.7,0-1.2-0.5-1.3-1.2C5.8,26.4,4.6,18.3,4.4,16c-0.2-2.7,0.2-4.5,1.3-7l0.2-0.4
	c0.9-1.9,2-4.3,2.4-6.5C8.5,1.4,9,1,9.6,1h12.7c0.6,0,1.1,0.4,1.2,1c0.4,2.2,1.5,4.6,2.4,6.5L26.1,9C27.3,11.4,27.8,14.4,27.6,17.1z
	"/>
<path class="st1" d="M10.2,9.2c0.1,0.1,0.2,0.2,0.4,0.2c0.1,0,0.1,0,0.2,0c0.1,0,0.2-0.1,0.2-0.2s0.1-0.2,0-0.3
	c-0.2-0.4-0.4-0.9-0.7-1.3C10.1,7.5,10,7.4,9.8,7.4c-0.1,0-0.2,0-0.2,0.1C9.5,7.6,9.5,7.7,9.4,7.8c0,0.1,0,0.2,0.1,0.3
	C9.8,8.5,10,8.8,10.2,9.2z"/>
<path class="st1" d="M5.4,16.4L5.4,16.4c0.2,0,0.3,0,0.4,0c0.1,0,0.2-0.1,0.3-0.2C6.2,16.1,6.2,16,6.2,16c0-0.2-0.2-0.4-0.4-0.4l0,0
	c-0.1,0-0.2,0-0.3,0h0c-0.1,0-0.2,0-0.4,0h0c-0.2,0-0.4,0.2-0.4,0.4c0,0.1,0,0.2,0.1,0.3c0.1,0.1,0.2,0.1,0.3,0.1
	C5.2,16.4,5.3,16.4,5.4,16.4z"/>
<path class="st1" d="M8.4,14.7c-0.1,0-0.2,0-0.2,0.1c-0.4,0.3-0.7,0.4-1.2,0.5c-0.2,0.1-0.3,0.3-0.3,0.5C6.9,16,7,16.1,7.2,16.1
	c0,0,0.1,0,0.1,0c0.5-0.2,0.9-0.4,1.3-0.6c0.1-0.1,0.2-0.1,0.2-0.3c0-0.1,0-0.2,0-0.3C8.7,14.8,8.5,14.7,8.4,14.7z"/>
<path class="st1" d="M9.4,6.8c0-0.1,0-0.2-0.1-0.3c-0.6-0.6-1-1-1-1C8.2,5.4,8.1,5.4,8,5.4c-0.1,0-0.2,0-0.3,0.1
	C7.6,5.7,7.6,5.9,7.7,6.1c0,0.1,0.4,0.4,0.9,1C8.7,7.1,8.9,7.2,9,7.2s0.2,0,0.3-0.1C9.3,7,9.4,6.9,9.4,6.8z"/>
<path class="st1" d="M10.4,12.7c-0.1,0-0.1-0.1-0.2-0.1c-0.2,0-0.3,0.1-0.4,0.2c-0.2,0.4-0.4,0.8-0.7,1.1C9,14.1,9,14.4,9.2,14.5
	c0.1,0.1,0.2,0.1,0.3,0.1s0.2,0,0.3-0.1c0.3-0.4,0.6-0.8,0.8-1.2C10.7,13,10.6,12.8,10.4,12.7z"/>
<path class="st1" d="M10.9,10L10.9,10c-0.3,0-0.4,0.2-0.4,0.4c0,0.1,0,0.1,0,0.2c0,0.1,0,0.2,0,0.3c0,0.3-0.1,0.5-0.1,0.8
	c0,0.1,0,0.2,0,0.3c0.1,0.1,0.1,0.2,0.2,0.2c0,0,0.1,0,0.1,0c0.2,0,0.3-0.1,0.4-0.3c0.1-0.3,0.1-0.6,0.2-0.9c0-0.1,0-0.2,0-0.4
	c0-0.1,0-0.2,0-0.3C11.3,10.2,11.1,10,10.9,10z"/>
<path class="st1" d="M21.3,9.6c0.1,0,0.1,0,0.2,0c0.2,0,0.3-0.1,0.4-0.3c0.2-0.4,0.4-0.7,0.7-1.1c0.1-0.1,0.1-0.2,0.1-0.3
	c0-0.1-0.1-0.2-0.2-0.3c-0.1,0-0.2-0.1-0.3-0.1c-0.1,0-0.2,0.1-0.3,0.2c-0.3,0.4-0.5,0.9-0.7,1.3c-0.1,0.1-0.1,0.2,0,0.3
	C21.2,9.5,21.3,9.6,21.3,9.6z"/>
<path class="st1" d="M21.7,12.2c0.1-0.1,0.1-0.2,0-0.3c-0.1-0.3-0.1-0.5-0.1-0.8c0-0.1,0-0.2,0-0.3c0-0.1,0-0.1,0-0.2
	c0-0.2-0.1-0.4-0.4-0.4h0c-0.2,0-0.4,0.2-0.4,0.4c0,0.1,0,0.2,0,0.2c0,0.1,0,0.3,0,0.4c0,0.3,0.1,0.6,0.2,0.9
	c0.1,0.2,0.2,0.3,0.4,0.3c0,0,0.1,0,0.1,0C21.5,12.3,21.6,12.3,21.7,12.2z"/>
<path class="st1" d="M22.2,13.1c-0.1-0.1-0.2-0.2-0.4-0.2c0,0-0.1,0-0.2,0c-0.2,0.1-0.3,0.4-0.2,0.5c0.2,0.4,0.5,0.9,0.8,1.2
	c0.1,0.1,0.2,0.1,0.3,0.1s0.2,0,0.3-0.1c0.2-0.1,0.2-0.4,0.1-0.5C22.6,13.9,22.4,13.5,22.2,13.1z"/>
<path class="st1" d="M24.3,6.3c0.2-0.2,0.2-0.4,0.1-0.6c-0.1-0.1-0.2-0.1-0.3-0.1c-0.1,0-0.2,0-0.3,0.1c0,0-0.5,0.4-1,1
	c-0.1,0.1-0.1,0.2-0.1,0.3s0.1,0.2,0.1,0.3c0.1,0.1,0.2,0.1,0.3,0.1s0.2-0.1,0.3-0.1C23.8,6.7,24.3,6.3,24.3,6.3z"/>
<path class="st1" d="M25,15.6c-0.4-0.1-0.8-0.3-1.2-0.5c-0.1,0-0.2-0.1-0.2-0.1c-0.1,0-0.3,0.1-0.4,0.2c-0.1,0.1-0.1,0.2,0,0.3
	c0,0.1,0.1,0.2,0.2,0.3c0.4,0.3,0.9,0.5,1.3,0.6c0,0,0.1,0,0.1,0c0.2,0,0.3-0.1,0.4-0.3C25.3,15.9,25.2,15.6,25,15.6z"/>
<path class="st1" d="M26.9,15.8L26.9,15.8c-0.1,0-0.3,0-0.4,0h0c-0.1,0-0.2,0-0.3,0h0c-0.2,0-0.4,0.2-0.4,0.4c0,0.1,0,0.2,0.1,0.3
	c0.1,0.1,0.2,0.1,0.3,0.1s0.2,0,0.3,0l0,0c0.1,0,0.3,0,0.4,0c0.1,0,0.2-0.1,0.3-0.1c0.1-0.1,0.1-0.2,0.1-0.3
	C27.3,15.9,27.1,15.8,26.9,15.8z"/>
<path class="st1" d="M5.6,18.4c-0.1-0.1-0.2-0.1-0.3-0.1s-0.2,0-0.3,0.1c-0.2,0.1-0.2,0.4-0.1,0.5c0,0.1,0.4,0.5,1.1,1
	C6.1,20,6.2,20,6.3,20c0.1,0,0.2-0.1,0.3-0.2c0.1-0.2,0.1-0.4-0.1-0.5C6,18.8,5.6,18.4,5.6,18.4z"/>
<path class="st1" d="M6.5,23.4c-0.1,0-0.3,0-0.4,0s-0.2,0-0.3,0.1c-0.1,0.1-0.1,0.2-0.1,0.3c0,0.2,0.2,0.4,0.4,0.4l0,0
	c0.2,0,0.3,0,0.4-0.1c0.1,0,0.2-0.1,0.3-0.2S7,23.9,7,23.8C6.9,23.6,6.8,23.4,6.5,23.4C6.6,23.4,6.6,23.4,6.5,23.4z"/>
<path class="st1" d="M9.9,21.8c0,0.1,0,0.3,0.1,0.4c0.1,0.1,0.2,0.2,0.3,0.2c0.1,0,0.2,0,0.3-0.1c0.3-0.2,0.4-0.4,0.5-0.4
	c0.1-0.1,0.2-0.3,0.1-0.4s-0.2-0.3-0.4-0.3c-0.2,0-0.5-0.1-0.7-0.1c0,0-0.1,0-0.1,0c-0.2,0-0.4,0.1-0.4,0.3c0,0.1,0,0.2,0.1,0.3
	C9.7,21.7,9.8,21.8,9.9,21.8z"/>
<path class="st1" d="M7.7,23.1c-0.2,0.1-0.3,0.3-0.2,0.5c0.1,0.1,0.2,0.2,0.4,0.2c0.1,0,0.1,0,0.2,0c0.4-0.2,0.8-0.4,1.3-0.7
	c0.2-0.1,0.3-0.4,0.1-0.5c-0.1-0.1-0.2-0.2-0.3-0.2c-0.1,0-0.2,0-0.2,0.1C8.5,22.7,8.1,22.9,7.7,23.1z"/>
<path class="st1" d="M7.2,20.7c0.4,0.3,0.9,0.5,1.3,0.7c0.1,0,0.1,0,0.2,0c0.2,0,0.3-0.1,0.4-0.2c0.1-0.1,0.1-0.2,0-0.3
	c0-0.1-0.1-0.2-0.2-0.2C8.4,20.5,8,20.3,7.7,20C7.6,20,7.5,20,7.4,20c-0.1,0-0.3,0.1-0.3,0.2C7,20.3,7,20.4,7,20.5
	C7.1,20.6,7.1,20.7,7.2,20.7z"/>
<path class="st1" d="M26.4,18.7c-0.1,0-0.2,0-0.3,0.1c0,0-0.4,0.4-1,0.9c-0.2,0.2-0.2,0.4-0.1,0.6c0.1,0.1,0.2,0.1,0.3,0.1
	c0.1,0,0.2,0,0.3-0.1c0.6-0.5,1-1,1.1-1c0.1-0.2,0.1-0.4,0-0.5C26.6,18.7,26.5,18.7,26.4,18.7z"/>
<path class="st1" d="M25.6,23.9c-0.1,0-0.2,0-0.4,0c0,0,0,0-0.1,0c-0.2,0-0.4,0.1-0.4,0.3c0,0.1,0,0.2,0.1,0.3
	c0.1,0.1,0.2,0.1,0.3,0.2c0.2,0,0.3,0,0.4,0h0c0.2,0,0.4-0.2,0.4-0.4C26,24.1,25.8,24,25.6,23.9z"/>
<path class="st1" d="M21.8,21.5C21.7,21.5,21.7,21.5,21.8,21.5c-0.3,0.1-0.6,0.1-0.8,0.1c-0.2,0-0.3,0.1-0.4,0.3
	c0,0.1,0,0.3,0.1,0.4c0,0,0.2,0.2,0.5,0.4c0.1,0.1,0.2,0.1,0.3,0.1c0.1,0,0.2-0.1,0.3-0.2c0.1-0.1,0.1-0.2,0.1-0.4
	c0.1,0,0.2-0.1,0.2-0.2c0.1-0.1,0.1-0.2,0.1-0.3C22.1,21.6,22,21.5,21.8,21.5z"/>
<path class="st1" d="M24,23.5c-0.4-0.2-0.8-0.4-1.2-0.6c-0.1-0.1-0.1-0.1-0.2-0.1c-0.2,0-0.3,0.1-0.4,0.2c-0.1,0.1-0.1,0.2-0.1,0.3
	c0,0.1,0.1,0.2,0.2,0.3c0.4,0.3,0.9,0.5,1.3,0.7c0.1,0,0.1,0,0.2,0c0.2,0,0.3-0.1,0.4-0.2C24.3,23.8,24.2,23.6,24,23.5z"/>
<path class="st1" d="M24.3,20.5c-0.1,0-0.2,0-0.2,0.1c-0.4,0.2-0.8,0.4-1.2,0.6c-0.1,0-0.2,0.1-0.2,0.2c-0.1,0.1-0.1,0.2,0,0.3
	c0.1,0.2,0.2,0.3,0.4,0.3c0.1,0,0.1,0,0.2,0c0.4-0.2,0.9-0.4,1.3-0.7c0.1-0.1,0.2-0.2,0.2-0.3c0-0.1,0-0.2-0.1-0.3
	C24.6,20.5,24.5,20.5,24.3,20.5z"/>
</svg>
