<?xml version="1.0" encoding="utf-8"?>
<!-- Generator: Adobe Illustrator 26.3.1, SVG Export Plug-In . SVG Version: 6.00 Build 0)  -->
<svg version="1.1" id="Layer_1" xmlns="http://www.w3.org/2000/svg" xmlns:xlink="http://www.w3.org/1999/xlink" x="0px" y="0px"
	 viewBox="0 0 32 32" style="enable-background:new 0 0 32 32;" xml:space="preserve">
<style type="text/css">
	.st0{fill:#F797C3;}
	.st1{fill:#4045F7;}
</style>
<path class="st0" d="M22.1,14.4H22c-0.3-0.6-0.6-1.2-0.7-1.3c-0.8-2.1-2.4-4-4.8-5.7c-2.9-2-4.5-4.7-5.2-6.1
	c-0.4-0.7-1.1-1.1-1.8-1.1H9.4L3.2,0.3C2.4,0.4,1.8,1,1.8,1.7v28.5c0,0.9,0.7,1.6,1.6,1.6h7.1c0.8,0,1.4-0.6,1.5-1.4l0.3-2.8
	c0.1-1.2,0.9-2.2,2-2.7c3.3-1.4,5.7-3.4,6.8-5.8c0.4-0.7,0.6-1.1,0.7-1.3l0.2,0c0.8,0,1.4-0.7,1.4-1.5v-0.4
	C23.5,15.1,22.9,14.4,22.1,14.4z M8.2,31H3.4c-0.4,0-0.7-0.3-0.7-0.7V1.7c0-0.3,0.2-0.6,0.5-0.6l2.8-0.1c1.2,2.6,3.8,7.3,8,9.2
	c2.6,1.2,4,3,4,5.3c0,2.3-1.6,4.6-4,5.7c-5,2.2-5.1,3.4-5.6,8.6C8.3,29.9,8.2,30.6,8.2,31z M14,24.1c-1.4,0.6-2.4,1.9-2.5,3.4
	l-0.3,2.8c0,0.4-0.3,0.6-0.7,0.6H9c0-0.4,0.1-0.7,0.1-1c0.5-5.1,0.6-6,5.1-8c2.7-1.2,4.5-3.8,4.5-6.4c0-2.6-1.6-4.7-4.5-6
	c-3.8-1.7-6.2-6-7.4-8.4L9.4,1c0.4,0,0.9,0.3,1.1,0.7c0.7,1.5,2.4,4.3,5.5,6.4c2.1,1.5,3.7,3.2,4.4,5.1c-0.8,0.7-1.3,1.6-1.4,2.8
	c-0.1,1.6,0.8,2.6,1.2,3C19.1,21.1,17,22.9,14,24.1z M20.6,15c-0.2,0.5-0.5,1.5,0.1,2.3c0.1,0.1,0.2,0.2,0.3,0.3
	c-0.1,0.2-0.2,0.4-0.3,0.6c-0.6-0.7-0.8-1.4-0.8-2.2c0.1-0.9,0.4-1.6,1-2.1c0.1,0.1,0.2,0.3,0.3,0.5C20.8,14.5,20.7,14.7,20.6,15z
	 M22.6,16.2c0,0.4-0.3,0.6-0.6,0.6c0,0-0.1,0-0.1,0l-0.4,0.1c0,0,0,0,0,0c-0.1,0-0.1,0-0.1-0.1c-0.4-0.5-0.2-1.2,0-1.6
	c0-0.1,0.1-0.1,0.1-0.1l0.6,0c0.3,0,0.6,0.3,0.6,0.6V16.2z"/>
<path class="st1" d="M7.6,7.1c-0.2,0-0.4,0-0.5,0.1c-0.9,0.4-1.3,2.1-1,5c0.2,2.6,0.2,4.6,0.2,6c0,2.6,0,4,1.3,4.1
	c0.1,0,0.2,0,0.2,0c1,0,2.3-0.6,3.2-1.6c1-1,2.1-2.8,2-5.6C12.9,10.5,9.4,7.1,7.6,7.1z M10.5,20.1c-1,1-2,1.4-2.6,1.4
	c0,0-0.1,0-0.1,0c-0.6-0.1-0.6-1.1-0.6-3.3c0-1.5,0-3.6-0.2-6.1C6.6,8.5,7.3,8,7.5,8c0,0,0.1,0,0.1,0c1.2,0,4.4,2.8,4.6,7.1
	C12.3,17.7,11.3,19.3,10.5,20.1z"/>
<path class="st1" d="M30,10.2l-2,1.2c-0.1,0-0.2,0-0.2,0c-0.2,0-0.3-0.1-0.4-0.2c-0.1-0.2-0.1-0.4,0.1-0.6l0.7-0.4H25
	c-0.2,0-0.4-0.2-0.4-0.4c0-0.3,0.2-0.4,0.4-0.4h3.2L27.6,9c-0.2-0.1-0.3-0.4-0.1-0.6c0.1-0.1,0.2-0.2,0.4-0.2c0.1,0,0.2,0,0.2,0.1
	l2,1.2c0.1,0.1,0.2,0.2,0.2,0.3c0,0,0,0,0,0.1v0C30.2,10.1,30.1,10.2,30,10.2z"/>
<path class="st1" d="M29.9,16l-2,1.2c-0.1,0-0.1,0.1-0.2,0.1c-0.2,0-0.3-0.1-0.4-0.2c-0.1-0.2,0-0.4,0.2-0.6l0.7-0.4h-3.2
	c-0.2,0-0.4-0.2-0.4-0.4s0.2-0.4,0.4-0.4h3.2l-0.6-0.4c-0.2-0.1-0.3-0.4-0.2-0.6c0.1-0.1,0.2-0.2,0.4-0.2c0.1,0,0.1,0,0.2,0.1l2,1.2
	c0.1,0.1,0.2,0.2,0.2,0.3c0,0,0,0,0,0s0,0,0,0.1C30.1,15.8,30,15.9,29.9,16z"/>
<path class="st1" d="M24.9,21.1h3.2l-0.6-0.4c-0.2-0.1-0.3-0.4-0.2-0.6c0.1-0.1,0.2-0.2,0.4-0.2c0.1,0,0.1,0,0.2,0.1l2,1.2
	c0.1,0.1,0.2,0.2,0.2,0.3v0c0,0,0,0,0,0.1c0,0.1-0.1,0.2-0.2,0.3l-2,1.2c-0.1,0-0.1,0.1-0.2,0.1c-0.2,0-0.3-0.1-0.4-0.2
	c-0.1-0.2,0-0.4,0.2-0.6l0.7-0.4h-3.2c-0.2,0-0.4-0.2-0.4-0.4S24.7,21.1,24.9,21.1z"/>
</svg>
