<?xml version="1.0" encoding="utf-8"?>
<!-- Generator: Adobe Illustrator 26.3.1, SVG Export Plug-In . SVG Version: 6.00 Build 0)  -->
<svg version="1.1" id="Layer_1" xmlns="http://www.w3.org/2000/svg" xmlns:xlink="http://www.w3.org/1999/xlink" x="0px" y="0px"
	 viewBox="0 0 32 32" style="enable-background:new 0 0 32 32;" xml:space="preserve">
<style type="text/css">
	.st0{fill:#4045F7;}
	.st1{fill:#F797C3;}
</style>
<path class="st0" d="M3.3,14.5c0.1,0,0.1,0,0.2-0.1c0.1-0.1,0.2-0.1,0.2-0.3c0-0.1,0-0.2,0-0.3l-1.4-2.3c-0.1-0.1-0.2-0.2-0.4-0.2h0
	c-0.1,0-0.3,0.1-0.3,0.2l-1.4,2.3c-0.1,0.2,0,0.4,0.2,0.5c0.1,0,0.1,0.1,0.2,0.1c0.2,0,0.3-0.1,0.4-0.2l0.6-1.1v4.1
	c0,0.2,0.2,0.4,0.4,0.4s0.4-0.2,0.4-0.4v-4.1L3,14.3C3.1,14.4,3.2,14.5,3.3,14.5z"/>
<path class="st0" d="M31.6,21.7c-0.1,0-0.1-0.1-0.2-0.1c-0.2,0-0.3,0.1-0.4,0.2l-0.6,1.1v-4.1c0-0.2-0.2-0.4-0.4-0.4
	s-0.4,0.2-0.4,0.4v4.1L29,21.9c-0.1-0.1-0.2-0.2-0.4-0.2c-0.1,0-0.1,0-0.2,0.1c-0.1,0.1-0.2,0.1-0.2,0.3c0,0.1,0,0.2,0,0.3l1.4,2.3
	c0.1,0.1,0.2,0.2,0.4,0.2l0,0c0.1,0,0.3-0.1,0.4-0.2l1.4-2.3C31.9,22.1,31.8,21.8,31.6,21.7z"/>
<path class="st0" d="M13.6,29c-0.4-0.1-0.9-0.1-1.3-0.2c0,0-0.1,0-0.1,0c-0.2,0-0.4,0.1-0.4,0.3c0,0.1,0,0.2,0.1,0.3
	c0,0.1,0.1,0.2,0.3,0.2c0.4,0.1,0.9,0.2,1.4,0.2c0,0,0,0,0.1,0c0.2,0,0.4-0.2,0.4-0.4C13.9,29.2,13.8,29,13.6,29z"/>
<path class="st0" d="M4.6,23.5c-0.4-0.7-0.5-1.2-0.5-1.2c0-0.2-0.2-0.3-0.4-0.3c0,0-0.1,0-0.1,0c-0.1,0-0.2,0.1-0.3,0.2
	s-0.1,0.2-0.1,0.3c0,0,0.1,0.6,0.5,1.4C4,24,4.1,24.1,4.2,24.1c0.1,0,0.1,0,0.2,0C4.6,24,4.7,23.7,4.6,23.5z"/>
<path class="st0" d="M10.9,28.4c-0.4-0.1-0.9-0.3-1.3-0.4c-0.1,0-0.1,0-0.2,0c-0.2,0-0.3,0.1-0.4,0.3c0,0.1,0,0.2,0,0.3
	s0.1,0.2,0.2,0.2c0.4,0.2,0.9,0.4,1.3,0.5c0.1,0,0.1,0,0.1,0c0.2,0,0.4-0.1,0.4-0.3c0-0.1,0-0.2,0-0.3C11.1,28.5,11,28.4,10.9,28.4z
	"/>
<path class="st0" d="M5.3,24.7c-0.1-0.1-0.2-0.2-0.3-0.2c-0.1,0-0.2,0-0.2,0.1c-0.1,0.1-0.2,0.2-0.2,0.3c0,0.1,0,0.2,0.1,0.3
	c0.3,0.4,0.6,0.8,1,1.1c0.1,0.1,0.2,0.1,0.3,0.1c0.1,0,0.2,0,0.3-0.1c0.1-0.1,0.1-0.2,0.1-0.3c0-0.1,0-0.2-0.1-0.3
	C5.9,25.4,5.6,25,5.3,24.7z"/>
<path class="st0" d="M8.3,27.3c-0.4-0.2-0.8-0.5-1.1-0.7c-0.1-0.1-0.2-0.1-0.3-0.1c-0.1,0-0.2,0.1-0.3,0.2c-0.1,0.2-0.1,0.4,0.1,0.6
	C7.1,27.5,7.5,27.8,8,28c0.1,0,0.1,0.1,0.2,0.1c0.2,0,0.3-0.1,0.4-0.2C8.6,27.7,8.5,27.5,8.3,27.3z"/>
<path class="st0" d="M19.2,28.9C19.1,28.9,19.1,28.9,19.2,28.9c-0.5,0.1-1,0.2-1.4,0.2c-0.2,0-0.4,0.2-0.4,0.4
	c0,0.2,0.2,0.4,0.4,0.4h0c0.5-0.1,1-0.1,1.4-0.2c0.1,0,0.2-0.1,0.3-0.2s0.1-0.2,0.1-0.3C19.5,29,19.3,28.9,19.2,28.9z"/>
<path class="st0" d="M26,24.2c-0.1,0-0.1,0-0.2,0c-0.1,0-0.3,0.1-0.4,0.2c-0.2,0.4-0.4,0.8-0.7,1.1c-0.1,0.1-0.1,0.2-0.1,0.3
	c0,0.1,0.1,0.2,0.2,0.3c0.1,0.1,0.2,0.1,0.3,0.1c0.1,0,0.2,0,0.3-0.2c0.3-0.4,0.5-0.8,0.8-1.2c0.1-0.1,0.1-0.2,0-0.3
	S26.1,24.3,26,24.2z"/>
<path class="st0" d="M24.1,26.4c-0.1,0-0.2,0.1-0.3,0.1c-0.3,0.3-0.7,0.6-1.1,0.9c-0.1,0.1-0.1,0.1-0.2,0.3c0,0.1,0,0.2,0.1,0.3
	c0.1,0.1,0.2,0.2,0.3,0.2c0.1,0,0.2,0,0.3-0.1c0.4-0.3,0.8-0.6,1.1-0.9c0.2-0.2,0.2-0.4,0-0.6C24.3,26.5,24.2,26.4,24.1,26.4z"/>
<path class="st0" d="M16.3,29.1c-0.5,0-1,0-1.4,0h0c-0.2,0-0.4,0.2-0.4,0.4c0,0.2,0.2,0.4,0.4,0.4c0.4,0,0.9,0,1.4,0
	c0.2,0,0.4-0.2,0.4-0.4S16.6,29.1,16.3,29.1z"/>
<path class="st0" d="M27.1,19c-0.2,0-0.4,0.2-0.4,0.4v0.1c0,0.2,0,0.5-0.1,1.1c0,0.1,0,0.2,0.1,0.3c0.1,0.1,0.2,0.1,0.3,0.2h0
	c0.2,0,0.4-0.2,0.4-0.4c0.1-0.5,0.1-1,0.1-1.2c0-0.1,0-0.1,0-0.1C27.5,19.1,27.3,19,27.1,19z"/>
<path class="st0" d="M21.8,28c-0.1,0-0.1,0-0.2,0c-0.4,0.2-0.8,0.4-1.3,0.5c-0.2,0.1-0.3,0.3-0.3,0.5c0.1,0.2,0.2,0.3,0.4,0.3
	c0.1,0,0.1,0,0.1,0c0.5-0.1,0.9-0.3,1.4-0.5c0.2-0.1,0.3-0.4,0.2-0.5C22.1,28.1,22,28,21.8,28z"/>
<path class="st0" d="M26.9,21.5C26.9,21.5,26.8,21.5,26.9,21.5c-0.3,0-0.4,0.1-0.5,0.3c-0.1,0.4-0.3,0.9-0.4,1.3c0,0.1,0,0.2,0,0.3
	c0,0.1,0.1,0.2,0.2,0.2c0,0,0.1,0,0.1,0c0.2,0,0.3-0.1,0.4-0.3c0.2-0.4,0.3-0.9,0.4-1.4c0-0.1,0-0.2,0-0.3
	C27.1,21.6,27,21.6,26.9,21.5z"/>
<path class="st1" d="M30.3,10.9c-0.2-0.6-1.9-6.1-9.1-8.6c-0.6-0.2-1.2-0.3-1.8-0.3c-0.3,0-0.6,0-0.9,0.1C11.1,3.2,5.3,4.6,1.5,6.2
	C0.9,6.4,0.6,6.9,0.4,7.4C0.3,8,0.4,8.5,0.7,8.9c0.5,0.7,1.2,1,1.9,1c0.1,0,0.1,0,0.2,0c0.8-0.1,3.3-0.8,6.5-1.8
	c4.4-1.3,10-2.9,11.5-2.9c0.1,0,0.2,0,0.2,0l0.3,0c1.9,0.4,5.2,0.9,8.3,6c0.1,0.1,0.2,0.2,0.4,0.2c0.2,0,0.4-0.2,0.4-0.4
	C30.3,11,30.3,11,30.3,10.9z M21.4,4.6l-0.3,0c-0.1,0-0.2,0-0.3,0c-1.7,0-7,1.6-11.7,2.9C6.2,8.3,3.4,9.1,2.7,9.2c0,0-0.1,0-0.1,0
	c-0.4,0-0.9-0.3-1.2-0.7C1.2,8.2,1.1,7.9,1.2,7.6c0.1-0.3,0.3-0.5,0.6-0.7c3.8-1.6,9.4-2.9,16.9-4c0.3,0,0.5-0.1,0.7-0.1
	c0.5,0,1.1,0.1,1.6,0.3c2.8,1,4.8,2.5,6,3.8C24.8,5.2,22.8,4.8,21.4,4.6z"/>
<path class="st1" d="M29.3,15.2c-0.1,0-0.1,0-0.2,0c-0.2,0-0.3,0.1-0.4,0.2c0,0-0.2,0.4-0.7,0.7c-0.1-0.1-0.4-0.4-0.8-0.7
	c0.7-0.8,0.9-1.4,0.9-1.5c0.1-0.2-0.1-0.4-0.3-0.5c0,0,0,0-0.1,0c-0.2,0-0.4,0.2-0.4,0.4c0,0-0.1,0.5-0.7,1.1
	c-0.5-0.4-0.9-0.7-1.2-0.9c0.7-1.1,0.6-2,0.6-2c0-0.2-0.2-0.4-0.4-0.4c0,0,0,0,0,0c-0.2,0-0.4,0.2-0.4,0.4c0,0,0,0.6-0.5,1.5
	c-0.3-0.2-1-0.5-1.6-0.8c0.6-1.4,0.4-2.3,0.4-2.3c0-0.2-0.2-0.4-0.4-0.4c0,0,0,0-0.1,0c-0.2,0-0.4,0.2-0.3,0.4c0,0,0.1,0.7-0.4,1.9
	c-0.4-0.2-1.6-0.6-2.4-0.8c0.1-0.9,0-1.7,0-1.7c0-0.2-0.2-0.4-0.4-0.4c0,0,0,0-0.1,0c-0.1,0-0.2,0.1-0.3,0.2
	c-0.1,0.1-0.1,0.2-0.1,0.3c0,0,0.1,0.6,0,1.4c-0.5-0.1-1.9-0.4-2.9-0.5v0c0-0.5,0-1,0-1.2c0-0.2-0.2-0.4-0.4-0.4h0
	c-0.1,0-0.2,0.1-0.3,0.1c-0.1,0.1-0.1,0.2-0.1,0.3c0,0.2,0,0.8,0,1.1c-0.3,0-0.5,0-0.8,0c-0.6,0-1.9,0-2.8,0.2c-0.2,0-2,0.2-7.8,2.2
	c-0.1,0-0.2,0.1-0.3,0.2c0,0.1,0,0.2,0,0.3C3.9,13.9,4,14,4.2,14c0,0,0.1,0,0.1,0c5.9-2,7.6-2.1,7.6-2.1c0,0,0,0,0,0
	c0.6-0.1,1.6-0.2,2.7-0.2c0.3,0,0.5,0,0.8,0c-0.1,0.4-0.1,0.7-0.2,1c-0.1,0-0.2,0-0.3,0c-0.5,0-1.1,0-1.6,0.1c0,0-0.1,0-0.1,0
	c-0.1,0-0.1,0-0.2,0.1l0,0c-2,0.4-3.4,1.2-4.4,1.8C8.4,14.8,8.2,15,8,15.1l-0.1,0.1c-0.8,0.4-2.4,1.2-3,1.5c-0.1,0-0.2,0.1-0.3,0.1
	c-0.4,0.2-0.7,0.4-1,0.6C3.4,17.6,2.7,18.2,3,19c0.3,1.1,1.4,1.3,2.5,1.5l0.2,0.1c0.4,0.1,0.9,0.3,1.2,0.4c0,0,0,0,0,0
	c0.2,0.1,0.3,0.2,0.4,0.2c2.7,2.6,6.3,2.6,7.5,2.6H15c0,0.6-0.1,1.4-0.1,1.5c0,0.1,0,0.2,0.1,0.3c0.1,0.1,0.2,0.1,0.3,0.1h0
	c0.2,0,0.4-0.1,0.4-0.4c0,0,0.1-0.9,0.1-1.6c0.6,0,1.5-0.1,2-0.2c0,0.6-0.1,1.4-0.1,1.4c0,0.1,0,0.2,0.1,0.3
	c0.1,0.1,0.2,0.1,0.3,0.2c0,0,0.1,0,0.1,0c0.2,0,0.4-0.2,0.4-0.4c0,0,0.1-0.9,0.1-1.6c0.6-0.2,1.3-0.4,1.7-0.5
	c0.2,0.6,0.3,1.3,0.3,1.3c0,0.2,0.2,0.4,0.4,0.4c0,0,0,0,0.1,0c0.2,0,0.4-0.3,0.3-0.5c0,0-0.1-0.8-0.4-1.5c0.6-0.3,1.2-0.8,1.5-1
	c0.4,0.5,0.7,1.2,0.7,1.2c0.1,0.1,0.2,0.2,0.4,0.2c0,0,0.1,0,0.2,0c0.1-0.1,0.2-0.1,0.2-0.2c0-0.1,0-0.2,0-0.3c0,0-0.4-0.8-0.8-1.4
	c0.5-0.5,1-1.2,1.3-1.6c0.4,0.4,0.9,1,1,1.2c0.1,0.1,0.2,0.2,0.3,0.2c0.1,0,0.2,0,0.3-0.1c0.1-0.1,0.1-0.2,0.2-0.3
	c0-0.1,0-0.2-0.1-0.3c-0.1-0.1-0.7-0.9-1.2-1.4c0.1-0.3,0.3-0.5,0.4-0.8c0-0.1,0.1-0.1,0.1-0.2c3.2-0.3,4-2,4-2.1
	C29.6,15.6,29.5,15.3,29.3,15.2z M22.8,13.5c0.5,0.3,1.1,0.6,1.4,0.7c-0.2,0.3-0.5,0.5-0.8,0.7l-0.1,0c-0.4-0.2-0.8-0.4-1.2-0.6
	C22.3,14.1,22.6,13.8,22.8,13.5z M19.9,12.4c0.7,0.2,1.7,0.6,2.1,0.8c-0.2,0.3-0.5,0.5-0.8,0.8c-0.6-0.3-1.4-0.5-1.9-0.6
	C19.5,13.1,19.7,12.8,19.9,12.4z M16.3,11.8c1,0.1,2.2,0.4,2.8,0.5c-0.2,0.4-0.4,0.7-0.7,0.9c-0.2,0-0.5-0.1-0.9-0.2
	c-0.9-0.2-1.3-0.2-1.4-0.2C16.2,12.5,16.3,12.1,16.3,11.8z M13.3,13.6c0.5-0.1,1.1-0.1,1.6-0.1c0.2,0,0.4,0,0.6,0c0,0,0.2,0,0.4,0
	l0.1,0c0.1,0,0.8,0.1,1.3,0.2l0.7,0.1c0.2,0.1,0.9,0.6,1.2,1.4c0,0,0,0,0,0.1c0.2,0.5,0.4,1.1,0.4,1.7c0,2.2-1.9,4-4.1,4
	c-2.3,0-4.1-1.8-4.1-4c0-0.6,0.1-1.2,0.4-1.8C11.8,15.3,12.4,14.2,13.3,13.6z M5.7,19.7c-0.9-0.2-1.7-0.4-1.9-1
	c0-0.1-0.1-0.3,0.4-0.8c0.2-0.2,0.4-0.4,0.7-0.5c0.1,0,0.2-0.1,0.3-0.1c0.1,0,0.3-0.1,0.5-0.2c-0.3,1-0.3,1.8,0.2,2.7L5.7,19.7z
	 M25.2,17.1c-0.2,0-0.3,0.1-0.4,0.2c0,0.1-0.1,0.2-0.1,0.3c0,0,0,0,0,0c-0.1,0.3-0.3,0.6-0.6,1.1c-0.4,0.5-1.2,1.6-1.7,2
	c-0.5,0.4-1.5,1-2,1.3c-0.6,0.2-1.7,0.6-2.3,0.7c-0.5,0.1-1.7,0.2-2.4,0.2c0,0-0.1,0-0.2,0h-0.1c-0.1,0-0.2,0-0.3,0
	c-2.1,0-4.9-0.3-7.1-2.3c-0.1-0.1-0.3-0.3-0.5-0.4c-1.6-1.4-1-2.7-0.6-3.4c0.1-0.1,0.1-0.2,0.1-0.3c0.5-0.3,1-0.5,1.4-0.7l0.1-0.1
	c0.2-0.1,0.4-0.3,0.7-0.4c0.7-0.4,1.5-0.9,2.6-1.3c-0.4,0.4-0.5,0.8-0.6,0.9c-0.4,0.7-0.5,1.4-0.5,2.1c0,2.7,2.2,4.8,4.9,4.8
	c2.7,0,5-2.1,5-4.8c0-0.7-0.2-1.4-0.4-2c-0.1-0.3-0.2-0.6-0.4-0.8c0.5,0.1,1.1,0.3,1.5,0.5c0.3,0.1,1.2,0.5,1.8,0.8l0.3,0.2
	c0.2,0.1,0.7,0.4,1.1,0.7c0.2,0.1,0.4,0.3,0.5,0.3c0,0,0.1,0.1,0.2,0.2l0.1,0c0,0,0.1,0.1,0.1,0.1C25.3,17.1,25.2,17.1,25.2,17.1z
	 M25.1,16c0,0-0.8-0.5-1-0.6c0.3-0.3,0.5-0.5,0.8-0.8c0.3,0.2,0.6,0.5,1.1,0.8C25.7,15.7,25.5,15.8,25.1,16z M26,17
	c0.1-0.2,0-0.3-0.1-0.4h0l-0.1-0.1c0.3-0.2,0.5-0.3,0.8-0.5c0.3,0.2,0.5,0.4,0.7,0.6C26.9,16.8,26.5,16.9,26,17z"/>
<path class="st1" d="M14.3,15c-0.8,0-1.5,0.6-1.5,1.4s0.7,1.4,1.5,1.4c0.8,0,1.4-0.6,1.4-1.4S15.1,15,14.3,15z M14.3,17.1
	c-0.4,0-0.6-0.3-0.6-0.6s0.3-0.6,0.6-0.6c0.4,0,0.6,0.3,0.6,0.6S14.6,17.1,14.3,17.1z"/>
</svg>
