<svg id="SvgjsSvg1101" width="288" height="288" xmlns="http://www.w3.org/2000/svg" version="1.1" xmlns:xlink="http://www.w3.org/1999/xlink" xmlns:svgjs="http://svgjs.com/svgjs"><defs id="SvgjsDefs1102"></defs><g id="SvgjsG1103"><svg xmlns="http://www.w3.org/2000/svg" enable-background="new 0 0 70 70" viewBox="0 0 70 70" width="288" height="288"><path fill="#fcefee" d="M27.5133972,28.8629436c1.9498005,1.9498005,3.0378056,4.7496433,2.8216877,7.9436016
		c-6.3887959,0.44487-11.2101593-4.3764954-10.7652874-10.7652893
		C22.7637539,25.8251381,25.5635967,26.9131432,27.5133972,28.8629436z" class="colorFFF svgShape"></path><path fill="#fcefee" d="M33.1873856,28.8629436c-1.9498005,1.9498005-3.0378056,4.7496433-2.8216877,7.9436016
		c6.3887959,0.44487,11.2101612-4.3764954,10.7652874-10.7652893C37.9370308,25.8251381,35.137188,26.9131432,33.1873856,28.8629436
		z" class="colorFFF svgShape"></path><path fill="#c5e3f6" d="M35.3661728,26.0659752c0,3.8265457-1.6797676,7.6415558-5.0259552,10.5636063
		c-6.7056408-5.8325672-6.7056408-15.2946434,0-21.1272106C33.6864052,18.4244213,35.3661728,22.2394314,35.3661728,26.0659752z" class="color8F9FFF svgShape"></path><path fill="#fc5c9c" d="M15.68643 61.6310196c-1.1152344-.6806641-2.2041016-1.4384766-3.2353516-2.2519531-.2163086-.1699219-.53125-.1337891-.7021484.0830078s-.1337891.53125.0830078.7021484c1.0625.8378906 2.184082 1.6191406 3.3339844 2.3203125.2321501.1426468.5419416.0715103.6870117-.1660156C15.9969769 62.0821915 15.9222698 61.7745743 15.68643 61.6310196zM45.375885 64.1271133c-8.1358337 3.2721939-17.5246277 3.2155533-25.9209003-.5175781-.2514648-.1103516-.5473633.0019531-.6601563.2539063-.1118164.2519531.0014648.5478516.2539063.6601563 8.6975594 3.8699722 18.3777142 3.880394 26.7001972.53125.2558594-.1035156.3808594-.3945313.2773438-.6503906C45.9237366 64.1476212 45.6336975 64.0265274 45.375885 64.1271133zM59.1317444 11.3693008c-.1767578-.2109375-.4941406-.2363281-.7041016-.0595703-.2109375.1777344-.2382813.4931641-.0595703.7041016 5.0371094 5.9667969 7.8115234 13.5488281 7.8115234 21.3486328 0 1.3271484-.0791016 2.6621094-.2333984 3.9677734-.0332031.2734375.1630859.5224609.4375.5546875.0195313.0029297.0390625.0039063.0595703.0039063.2490234 0 .4648438-.1865234.4951172-.4414063.1601563-1.3447266.2412109-2.71875.2412109-4.0849609C67.1795959 25.3263321 64.3211975 17.5157852 59.1317444 11.3693008zM3.6532271 16.9991837c.2377195.1379356.5446255.0577087.6831057-.1826172 3.378418-5.8378906 8.3740234-10.4589844 14.4467773-13.3652344.2490234-.1191406.3544922-.4179688.2353516-.6669922-.1201172-.25-.418457-.3544922-.6669922-.2353516C12.0960979 5.5421529 6.9505906 10.3028946 3.4710982 16.3165665 3.3324263 16.5548477 3.4144576 16.8614883 3.6532271 16.9991837z" class="color2A44E2 svgShape"></path><path fill="#fc5c9c" d="M33.0404358,3.1398089c-16.6600361,0-30.2200336,13.5599976-30.2200336,30.2200317
			c0,16.9447823,13.6625004,30.2299805,30.2200336,30.2299805c16.4895859,0,30.2199707-13.2567635,30.2199707-30.2299805
			C63.2604065,16.6998062,49.7104187,3.1398089,33.0404358,3.1398089z M33.0404358,62.5898209
			c-2.8052425,0-4.710619-0.3743744-6.4400043-0.7199707c-0.1185169-0.7976418-0.0851631-4.2502594-2.1900024-8.7999878
			c-1.4400024-3.1100464-3.5-5.9000244-6.1099854-8.2800293c-3.8900146-3.5499878-6.1200562-8.5999756-6.1200562-13.8599854
			c0-10.455471,8.4688034-18.7399902,18.7300415-18.7399902c10.3481884,0,18.7500019,8.372467,18.7500019,18.7399902v2.2699585
			c0,0.0700073,0.0199585,0.1400146,0.0499878,0.210022l4.1699829,8.789978c0.0499878,0.1000366,0,0.2000122-0.0199585,0.2300415
			c-0.0200195,0.039978-0.0900269,0.1199951-0.210022,0.1199951h-4.0900269c-0.2699585,0-0.5,0.2199707-0.5,0.5v3.8900146
			c0,1.5-1.2199707,2.7299805-2.7199707,2.7299805h-2.2399902c-0.2700195,0-0.5,0.2199707-0.5,0.5v10.4400024
			C41.114933,61.6745377,36.9913712,62.5898209,33.0404358,62.5898209z M44.6004333,60.1998062V50.669838h1.7399902
			c2.0599976,0,3.7199707-1.6799927,3.7199707-3.7299805v-3.3900146h3.5900269c0.4299927,0,0.8200073-0.2200317,1.0599976-0.5800171
			c0.2299805-0.3699951,0.25-0.8099976,0.0700073-1.2000122l-4.1199951-8.6900024v-2.1499634
			c0-10.8441696-8.7795601-19.7399902-19.7500019-19.7399902c-10.7012005,0-19.7300415,8.6170654-19.7300415,19.7399902
			c0,5.539978,2.3500366,10.8599854,6.4500122,14.5999756c2.5100098,2.2900391,4.4899902,4.9700317,5.8699951,7.960022
			c1.210022,2.5999756,1.9100342,5.3300171,2.0700073,8.1199951c-12.8499756-3.3599854-21.75-14.8800049-21.75-28.25
			c0-16.1099854,13.1099854-29.2200317,29.2200336-29.2200317c16.1099854,0,29.2199707,13.1100464,29.2199707,29.2200317
			C62.2604065,45.1198502,55.3504333,55.5798111,44.6004333,60.1998062z" class="color2A44E2 svgShape"></path><path fill="#fc5c9c" d="M50.2743225 18.5616837c-.2353516.1445313-.3095703.4521484-.1660156.6875 1.5371094 2.515625 2.546875 5.2724609 2.9990234 8.1914063.0420494.2727928.2971344.4599972.5703125.4179688.2734375-.0419922.4599609-.2978516.4179688-.5703125-.4726563-3.0507813-1.5273438-5.9316406-3.1337891-8.5605469C50.8172913 18.4913712 50.5077209 18.4171524 50.2743225 18.5616837zM47.4989319 14.3370743c-.1953125-.1953125-.5117188-.1953125-.7070313 0s-.1953125.5117188 0 .7070313c.6416016.6416016 1.2490234 1.3261719 1.8066406 2.0341797.1721001.2181072.4861069.2530823.7021484.0830078.2167969-.1699219.2539063-.484375.0830078-.7021484C48.8026428 15.7208633 48.1688538 15.0069962 47.4989319 14.3370743zM41.1604309 25.5398331c-1.9100342-.1300049-3.710022.1900024-5.2999878.9000244.0099487-.1199951.0099487-.25.0099487-.3699951 0-4.1300049-1.8499756-8.0200195-5.1999531-10.9400024-.1900024-.1700439-.4700317-.1700439-.6600342 0-3.3499756 2.9099731-5.2000122 6.7999878-5.2000122 10.9400024 0 .1199951 0 .2399902.0100098.3599854-1.5899658-.7000122-3.3900146-1.0200195-5.2799683-.8900146-.25.0200195-.4500122.2199707-.4700317.4699707-.2199707 3.0900269.75 5.9700317 2.7300415 8.0800171 3.2804909 3.5161476 7.9748039 3.2207222 8.0761719 3.2397461.350769 3.3256226 3.1711445 5.9264526 6.5881367 5.9264526.2763672 0 .5-.2236328.5-.5s-.2236328-.5-.5-.5c-2.8651123 0-5.2315693-2.1535034-5.5776997-4.9263306.1000557-.0189743 4.6131115.4045334 8.0133686-3.2398682 1.9799805-2.1099854 2.9500122-4.9799805 2.7299805-8.0800171C41.6104431 25.7598038 41.4104309 25.5598526 41.1604309 25.5398331zM25.8103924 26.0698624c0-3.710022 1.6100464-7.210022 4.5300293-9.9000244 2.9199848 2.7000122 4.5299702 6.2000122 4.5299702 9.9000244 0 3.8779545-1.8571739 7.5144386-4.5299702 9.8899536-.1699829-.1499634-.3300171-.3099976-.4899902-.4699707C27.3188076 32.945919 25.8103924 29.6438198 25.8103924 26.0698624zM22.5304241 33.4098282c-1.6900024-1.8099976-2.5599976-4.2399902-2.4799805-6.8900146 1.7599487-.039978 3.4199829.3200073 4.8499756 1.0500488.3499756 3.25 1.8699951 6.2999878 4.3800049 8.75C26.6203899 36.2598038 24.2304363 35.2398453 22.5304241 33.4098282zM38.1704407 33.4098282c-.8800049.9500122-1.9400024 1.6799927-3.1199951 2.1699829-1.1300049.4700317-2.3600464.7300415-3.6600361.7600098 2.5100117-2.4599609 4.0300312-5.5100098 4.3900166-8.7600098 1.4400024-.7399902 3.0999756-1.0999756 4.8699951-1.0599976C40.7304382 29.169838 39.8604431 31.5998306 38.1704407 33.4098282z" class="color2A44E2 svgShape"></path></svg></g></svg>