<svg id="SvgjsSvg1090" width="288" height="288" xmlns="http://www.w3.org/2000/svg" version="1.1" xmlns:xlink="http://www.w3.org/1999/xlink" xmlns:svgjs="http://svgjs.com/svgjs"><defs id="SvgjsDefs1091"></defs><g id="SvgjsG1092"><svg xmlns="http://www.w3.org/2000/svg" data-name="Artboard 30" viewBox="0 0 64 64" width="288" height="288"><path d="M57.333,13a5.461,5.461,0,0,0-1.824.314A6.1,6.1,0,0,0,50.161,10a5.99,5.99,0,0,0-4.91,2.609,4.918,4.918,0,0,0-2.849-.587,5.037,5.037,0,0,0-1.743.493A6.553,6.553,0,0,0,34.933,9a6.344,6.344,0,0,0-4,1.439A3.075,3.075,0,0,0,29.77,8.564l-11.219-7.4a1,1,0,0,0-1.1,0L6.171,8.607A3.02,3.02,0,0,0,5,10.985V13a3,3,0,0,0,3,3,2.966,2.966,0,0,0,1-.184V21.08A7,7,0,0,0,3,28V52.11A6.976,6.976,0,0,0,1,57v5a1,1,0,0,0,1,1H62a1,1,0,0,0,1-1V18.922A5.805,5.805,0,0,0,57.333,13ZM8,14a1,1,0,0,1-1-1V10.985a.994.994,0,0,1,.332-.751L18,3.2l10.609,6.994a1.006,1.006,0,0,1,.391.793V13a1,1,0,0,1-2,0V12a1,1,0,0,0-.47-.848l-8-5a1,1,0,0,0-1.06,0l-8,5A1,1,0,0,0,9,12v1A1,1,0,0,1,8,14Zm12,7H16V16a2,2,0,0,1,4,0Zm-2-9a4,4,0,0,0-4,4v5H11V12.554l7-4.375,7,4.375V21H22V16A4,4,0,0,0,18,12ZM10,23H28.931a19.434,19.434,0,0,1,7.039,1.42l-1.8,1.187A3.02,3.02,0,0,0,33,27.985V30a3,3,0,0,0,3,3,2.966,2.966,0,0,0,1-.184v2.54a24.458,24.458,0,0,0-6.109,3.583L18.58,30.185a1,1,0,0,0-1.16,0L5,39.017V28A5.006,5.006,0,0,1,10,23ZM48,39H44V34a2,2,0,0,1,4,0Zm-2-9a4,4,0,0,0-4,4v5H39V29.554l7-4.375,7,4.375V39H50V34A4,4,0,0,0,46,30Zm8.53-1.848-8-5a1,1,0,0,0-1.06,0l-8,5A1,1,0,0,0,37,29v1a1,1,0,0,1-2,0V27.985a.994.994,0,0,1,.332-.751L46,20.2l10.609,6.994a1.006,1.006,0,0,1,.391.793V30a1,1,0,0,1-2,0V29A1,1,0,0,0,54.53,28.152ZM5,41.985a1,1,0,0,1,.36-.771L18,32.227l12.609,8.965a1.006,1.006,0,0,1,.391.793V44a1,1,0,0,1-2,0V43a1,1,0,0,0-.427-.819l-10-7a1,1,0,0,0-1.146,0l-10,7A1,1,0,0,0,7,43v1a1,1,0,0,1-2,0ZM21,55H15V48a3,3,0,0,1,6,0ZM18,43a5.006,5.006,0,0,0-5,5v7H9V43.521l9-6.3,9,6.3V55H23V48A5.006,5.006,0,0,0,18,43ZM7,50.08a6.937,6.937,0,0,0-2,.605V46.816a2.809,2.809,0,0,0,2,0ZM3,57a5.009,5.009,0,0,1,4-4.9V56a1,1,0,0,0,1,1H28a1,1,0,0,0,1-1V52a3,3,0,0,1,3,3v6H3Zm58,4H34V59a3.992,3.992,0,0,1,3.8-4.069,4.784,4.784,0,0,1,.848.1,1.055,1.055,0,0,0,1.191-.766,5.412,5.412,0,0,1,10.5-.326,1,1,0,0,0,1.436.553l.193-.108a3.474,3.474,0,0,1,3.943.565,1,1,0,0,0,1.641-.454A4.828,4.828,0,0,1,61,51.118Zm0-11.914a6.75,6.75,0,0,0-4.868,3.581,5.425,5.425,0,0,0-4.325-.382A7.512,7.512,0,0,0,45.133,48a7.6,7.6,0,0,0-6.96,4.947c-.128-.01-.256-.016-.378-.016a5.611,5.611,0,0,0-3.844,1.58A4.99,4.99,0,0,0,29,50V46.816A2.966,2.966,0,0,0,30,47a3,3,0,0,0,3-3V41.985a2.99,2.99,0,0,0-.575-1.729A22.109,22.109,0,0,1,37,37.558V40a1,1,0,0,0,1,1H54a1,1,0,0,0,1-1V37.7c3.783,2.289,6,5.316,6,8.3ZM55,35.4V32.816A2.966,2.966,0,0,0,56,33a3,3,0,0,0,3-3V27.985a3.05,3.05,0,0,0-1.23-2.421l-11.219-7.4a1,1,0,0,0-1.1,0l-7.512,4.957A20.945,20.945,0,0,0,28.931,21H27V15.816A2.966,2.966,0,0,0,28,16a3,3,0,0,0,2.948-2.485A4.548,4.548,0,0,1,34.933,11a4.651,4.651,0,0,1,4.332,3.312,1,1,0,0,0,1.534.5l.139-.1a3.034,3.034,0,0,1,1.653-.694,3,3,0,0,1,2.3.781,1.015,1.015,0,0,0,.876.211,1.057,1.057,0,0,0,.719-.575A4.1,4.1,0,0,1,50.161,12a4.181,4.181,0,0,1,3.892,2.983,1,1,0,0,0,1.542.485A3.482,3.482,0,0,1,57.333,15,3.8,3.8,0,0,1,61,18.922V40.387A17.739,17.739,0,0,0,55,35.4Z" fill="#fc5c9c" class="color000 svgShape"></path><rect width="2" height="2" x="55" y="47" fill="#fc5c9c" class="color000 svgShape"></rect><rect width="2" height="2" x="53" y="43" fill="#fc5c9c" class="color000 svgShape"></rect><rect width="2" height="2" x="51" y="47" fill="#fc5c9c" class="color000 svgShape"></rect><rect width="2" height="2" x="11" y="29" fill="#fc5c9c" class="color000 svgShape"></rect><rect width="2" height="2" x="9" y="25" fill="#fc5c9c" class="color000 svgShape"></rect><rect width="2" height="2" x="7" y="29" fill="#fc5c9c" class="color000 svgShape"></rect></svg></g></svg>