<svg id="SvgjsSvg1011" width="288" height="288" xmlns="http://www.w3.org/2000/svg" version="1.1" xmlns:xlink="http://www.w3.org/1999/xlink" xmlns:svgjs="http://svgjs.com/svgjs"><defs id="SvgjsDefs1012"></defs><g id="SvgjsG1013"><svg xmlns="http://www.w3.org/2000/svg" enable-background="new 0 0 160 160" viewBox="0 0 160 160" width="288" height="288"><path d="M80.126 99.97c3.434 0 6.123-3.168 6.123-7.213 0-1.381-1.119-2.5-2.5-2.5s-2.5 1.119-2.5 2.5c0 1.373-.728 2.213-1.123 2.213s-1.122-.84-1.122-2.213.727-2.214 1.122-2.214c1.381 0 2.5-1.119 2.5-2.5s-1.119-2.5-2.5-2.5c-3.433 0-6.122 3.169-6.122 7.214C74.004 96.734 76.75 99.97 80.126 99.97zM71.59 49.248l-20.03-16.39c-.75-.61-1.79-.73-2.66-.32-.87.41-1.43 1.29-1.43 2.26v5.52h-4.76c-.06-.84-.14-1.67-.22-2.5-.06-.62-.13-1.23-.21-1.85l-.05-.37c-.57-4.58-1.55-9.14-2.91-13.55l-4.4-14.28c-.57-1.84-2.53-2.88-4.38-2.31s-2.88 2.53-2.31 4.38l4.4 14.28c1.24 4.02 2.13 8.17 2.66 12.35l.04.37c.04.33.08.65.11.98.1.83.18 1.67.24 2.5H19.2c-.66 0-1.3.26-1.77.73-.47.47-.73 1.1-.73 1.77v16.74c0 1.38 1.12 2.5 2.5 2.5h28.27v5.52c0 .97.56 1.85 1.43 2.26.34.16.71.24 1.07.24.57 0 1.13-.19 1.59-.56l20.03-16.4c.58-.47.92-1.18.92-1.93S72.17 49.728 71.59 49.248zM52.47 62.308v-2.75c0-1.38-1.12-2.5-2.5-2.5H21.7v-11.74h28.27c.67 0 1.3-.27 1.77-.74.47-.46.73-1.1.73-1.76v-2.75l13.59 11.12L52.47 62.308zM142.57 41.048c-.47-.47-1.11-.73-1.77-.73h-16.48c.06-.83.14-1.67.24-2.5.03-.33.07-.66.11-.99l.04-.36c.53-4.18 1.42-8.33 2.66-12.35l4.4-14.28c.57-1.85-.46-3.81-2.31-4.38-1.85-.57-3.81.47-4.38 2.31l-4.4 14.28c-1.36 4.41-2.34 8.97-2.91 13.55l-.05.37c-.08.62-.15 1.23-.21 1.85-.09.83-.16 1.67-.22 2.5h-4.76v-5.52c0-.97-.56-1.85-1.43-2.26-.87-.41-1.91-.29-2.66.32l-20.03 16.39c-.58.48-.92 1.19-.92 1.94s.34 1.46.92 1.93l20.03 16.4c.46.37 1.02.56 1.59.56.36 0 .73-.08 1.07-.24.87-.41 1.43-1.29 1.43-2.26v-5.52h28.27c1.38 0 2.5-1.12 2.5-2.5v-16.74C143.3 42.148 143.04 41.518 142.57 41.048zM138.3 57.058h-28.27c-1.38 0-2.5 1.12-2.5 2.5v2.75l-13.59-11.12 13.59-11.12v2.75c0 .66.26 1.3.73 1.76.47.47 1.1.74 1.77.74h28.27V57.058z" fill="#fc5c9c" class="color000 svgShape"></path><path d="M137.93,97.648c-1.11-6.23-3.09-12.27-5.89-17.94l-0.22-0.43c-2.34-4.74-4.16-9.67-5.43-14.72h-7.21c1.41,6.13,3.54,12.1,6.37,17.82l0.21,0.42c2.51,5.08,4.28,10.49,5.28,16.08l0.89,4.98c0.089,0.493,0.157,0.992,0.233,1.488H80.126h-0.252H27.838c0.076-0.497,0.143-0.995,0.232-1.488l0.89-4.98c1-5.59,2.77-11,5.28-16.08l0.21-0.42c2.83-5.72,4.96-11.69,6.37-17.82h-7.21c-1.28,5.05-3.1,9.99-5.44,14.73l-0.21,0.41c-2.8,5.68-4.78,11.72-5.89,17.95l-0.89,4.98c-0.7,3.92-1.05,7.93-1.05,11.91c0,7.17,0.57,14.4,1.69,21.48l2.5,15.73c0.28,1.72,1.76,2.95,3.45,2.95c0.19,0,0.37-0.02,0.56-0.05c1.91-0.3,3.21-2.09,2.91-4l-2.51-15.73c-0.294-1.867-0.539-3.745-0.753-5.629h24.732c6.635,0,12.989,2.825,17.434,7.75l5.827,6.457c0.223,0.247,0.485,0.443,0.762,0.614v7.084c0,1.933,1.567,3.5,3.5,3.5s3.5-1.567,3.5-3.5v-7.083c0.277-0.172,0.54-0.368,0.763-0.615l5.827-6.457c4.444-4.925,10.799-7.75,17.433-7.75h24.267c-0.216,1.884-0.464,3.762-0.761,5.629l-2.5,15.73c-0.3,1.91,1,3.7,2.91,4c0.19,0.03,0.37,0.05,0.56,0.05c1.69,0,3.17-1.23,3.45-2.95l2.5-15.73c1.12-7.08,1.7-14.31,1.7-21.48c0-3.98-0.36-7.99-1.06-11.91L137.93,97.648z M107.754,122.289c-8.611,0-16.859,3.667-22.63,10.061l-4.784,5.302h-0.216l-4.784-5.302c-5.771-6.394-14.019-10.061-22.631-10.061H27.387c-0.154-2.585-0.257-5.172-0.257-7.751c0-0.729,0.022-1.461,0.048-2.192h52.696h0.252h52.705c0.027,0.731,0.049,1.462,0.049,2.192c0,2.581-0.104,5.167-0.261,7.751H107.754z" fill="#fc5c9c" class="color000 svgShape"></path></svg></g></svg>