<svg id="SvgjsSvg1065" width="288" height="288" xmlns="http://www.w3.org/2000/svg" version="1.1" xmlns:xlink="http://www.w3.org/1999/xlink" xmlns:svgjs="http://svgjs.com/svgjs"><defs id="SvgjsDefs1066"></defs><g id="SvgjsG1067"><svg xmlns="http://www.w3.org/2000/svg" viewBox="0 0 64 64" width="288" height="288"><g data-name="Layer 15" fill="#fc5c9c" class="color000 svgShape"><path d="M61,62c-1.791,0-4.06-1.246-5.065-1.857C54.723,60.713,51.793,62,50,62c-1.826,0-4.831-1.334-6-1.889C42.831,60.666,39.826,62,38,62s-4.831-1.334-6-1.889C30.831,60.666,27.826,62,26,62s-4.831-1.334-6-1.889C18.831,60.666,15.826,62,14,62c-1.793,0-4.723-1.287-5.935-1.857C7.06,60.754,4.791,62,3,62a1,1,0,0,1,0-2c1.387,0,3.68-1.322,4.445-1.832a1,1,0,0,1,1-.063C9.5,58.633,12.556,60,14,60c1.285,0,4.088-1.162,5.553-1.9a1,1,0,0,1,.894,0C21.5,58.633,24.556,60,26,60c1.285,0,4.088-1.162,5.553-1.9a1,1,0,0,1,.894,0C33.5,58.633,36.556,60,38,60c1.285,0,4.088-1.162,5.553-1.9a1,1,0,0,1,.894,0C45.5,58.633,48.556,60,50,60c1.285,0,4.088-1.162,5.553-1.9a1.007,1.007,0,0,1,1,.063C57.32,58.678,59.613,60,61,60a1,1,0,0,1,0,2Z" fill="#fc5c9c" class="color000 svgShape"></path><path d="M15 61a1 1 0 0 1-.781-.375c-.414-.517-10.158-12.74-12.189-20.7A1 1 0 0 1 2.6 38.764l29-12.68a.994.994 0 0 1 .8 0l29 12.68a1 1 0 0 1 .569 1.163c-2.031 7.958-11.775 20.181-12.189 20.7a1 1 0 1 1-1.56-1.25c.094-.119 9.211-11.554 11.579-19.129L32 28.091 4.2 40.246C6.57 47.825 15.686 59.256 15.78 59.375A1 1 0 0 1 15 61zM34 23H30a1 1 0 0 1 0-2h4a1 1 0 0 1 0 2zM42 23H38a1 1 0 0 1 0-2h4a1 1 0 0 1 0 2zM50 23H46a1 1 0 0 1 0-2h4a1 1 0 0 1 0 2zM26 23H22a1 1 0 0 1 0-2h4a1 1 0 0 1 0 2zM18 23H14a1 1 0 0 1 0-2h4a1 1 0 0 1 0 2z" fill="#fc5c9c" class="color000 svgShape"></path><path d="M57,39a1,1,0,0,1-.977-.787l-4.2-19.3A3.923,3.923,0,0,0,47.9,16H16.1a3.923,3.923,0,0,0-3.925,2.91l-4.2,19.3a1,1,0,0,1-1.956-.426l4.2-19.3A5.93,5.93,0,0,1,16.1,14H47.9a5.93,5.93,0,0,1,5.88,4.485l4.2,19.3a1,1,0,0,1-.765,1.191A1.051,1.051,0,0,1,57,39Z" fill="#fc5c9c" class="color000 svgShape"></path><path d="M46,16H18a1,1,0,0,1-.992-1.124L17.64,9.82A4.172,4.172,0,0,1,21.6,6H42.4A4.172,4.172,0,0,1,46.36,9.82l.632,5.056A1,1,0,0,1,46,16ZM19.133,14H44.867l-.491-3.932A2.184,2.184,0,0,0,42.4,8H21.6a2.184,2.184,0,0,0-1.978,2.068Z" fill="#fc5c9c" class="color000 svgShape"></path><path d="M35 12H29a1 1 0 0 1 0-2h6a1 1 0 0 1 0 2zM38 8H26a1 1 0 0 1-.895-1.447l2-4A1 1 0 0 1 28 2h8a1 1 0 0 1 .9.553l2 4A1 1 0 0 1 38 8zM27.618 6h8.764l-1-2H28.618zM40 42a4 4 0 1 1 4-4A4 4 0 0 1 40 42zm0-6a2 2 0 1 0 2 2A2 2 0 0 0 40 36z" fill="#fc5c9c" class="color000 svgShape"></path><path d="M40,44a1,1,0,0,1-1-1V41a1,1,0,0,1,2,0v2A1,1,0,0,1,40,44Z" fill="#fc5c9c" class="color000 svgShape"></path></g></svg></g></svg>