<?xml version="1.0" standalone="no"?>
<!DOCTYPE svg PUBLIC "-//W3C//DTD SVG 20010904//EN"
 "http://www.w3.org/TR/2001/REC-SVG-20010904/DTD/svg10.dtd">
<svg version="1.0" xmlns="http://www.w3.org/2000/svg"
 width="1000.000000pt" height="1000.000000pt" viewBox="0 0 1000.000000 1000.000000"
 preserveAspectRatio="xMidYMid meet">
<metadata>
Created by potrace 1.14, written by Peter Selinger 2001-2017
</metadata>
<g transform="translate(0.000000,1000.000000) scale(0.100000,-0.100000)"
fill="#000000" stroke="none">
<path d="M4718 9995 c-1 -1 -50 -6 -108 -9 -58 -4 -114 -9 -125 -11 -11 -3
-47 -7 -79 -10 -181 -17 -470 -72 -696 -131 -127 -33 -459 -140 -525 -168 -16
-8 -82 -35 -145 -61 -516 -216 -1058 -564 -1446 -930 -130 -123 -290 -285
-359 -366 -16 -19 -55 -64 -86 -99 -86 -100 -237 -302 -326 -435 -353 -531
-596 -1104 -732 -1730 -23 -109 -91 -449 -91 -458 0 -1 192 -2 427 -2 371 0
528 -5 633 -20 14 -2 63 -7 110 -11 47 -4 90 -8 95 -9 6 0 9 -5 8 -10 0 -6 -4
-32 -7 -60 -4 -27 -9 -66 -11 -85 -12 -94 -18 -200 -19 -357 l0 -171 -466 -2
c-256 0 -534 -1 -618 -2 l-154 -2 7 -170 c3 -94 8 -184 10 -201 2 -16 6 -60
10 -97 3 -37 8 -77 10 -90 2 -13 9 -59 15 -103 10 -76 13 -98 25 -155 3 -14 8
-41 11 -60 21 -119 95 -394 154 -570 207 -622 524 -1178 959 -1685 129 -150
410 -429 561 -556 541 -457 1149 -787 1810 -982 84 -25 197 -56 233 -63 10 -2
26 -5 35 -8 9 -3 28 -7 42 -10 14 -3 68 -14 120 -25 52 -11 115 -23 140 -26
25 -3 70 -10 100 -15 195 -31 268 -35 715 -35 376 0 593 7 614 19 3 2 33 6 66
10 33 3 69 8 80 10 11 2 40 7 65 11 25 4 54 9 65 11 10 2 37 6 59 10 22 3 44
7 47 10 4 2 24 6 44 10 174 27 685 180 850 254 11 5 65 28 120 51 464 192 969
510 1375 865 64 56 359 350 410 409 312 357 526 675 727 1077 51 103 93 189
93 192 0 3 11 29 24 58 141 306 298 858 346 1213 6 44 12 91 14 105 3 14 7 57
11 95 3 39 8 86 10 105 5 41 14 155 20 261 l4 76 -147 1 c-81 1 -352 1 -602 1
-495 0 -502 0 -506 4 -2 1 -4 81 -5 177 -3 192 -16 375 -35 472 -3 14 -1 28 3
31 5 3 47 8 93 12 47 3 101 8 120 10 122 13 352 19 668 19 254 -1 362 3 362
10 0 6 -5 40 -10 76 -5 36 -12 90 -15 120 -15 147 -24 204 -51 332 -72 345
-198 705 -371 1058 -249 510 -572 959 -989 1374 -110 109 -189 181 -285 260
-52 43 -103 86 -114 95 -81 67 -323 235 -485 337 -167 105 -488 272 -651 339
-35 14 -73 30 -84 35 -274 125 -762 262 -1135 320 -41 6 -86 13 -100 16 -14 2
-72 8 -130 14 -58 6 -123 13 -145 16 -43 6 -661 14 -667 9z m617 -559 c22 -2
74 -8 115 -11 41 -4 84 -9 95 -11 11 -2 45 -6 75 -10 45 -5 357 -65 410 -78 8
-2 51 -13 96 -25 331 -85 758 -259 1047 -427 32 -19 60 -34 63 -34 6 0 115
-70 254 -163 395 -264 782 -633 1075 -1023 219 -291 427 -654 550 -959 20 -49
40 -99 45 -110 41 -96 155 -453 148 -461 -2 -1 -65 -5 -140 -8 -129 -5 -223
-12 -311 -21 -50 -6 -204 -18 -241 -19 -27 -1 -30 3 -57 79 -77 216 -204 497
-293 650 -19 33 -44 77 -56 99 -35 64 -167 264 -246 372 -68 95 -95 121 -113
110 -4 -3 -43 -7 -86 -11 -44 -3 -91 -8 -105 -10 -14 -2 -50 -7 -80 -10 -52
-6 -149 -20 -215 -31 -149 -25 -452 -103 -575 -149 -123 -45 -150 -55 -215
-83 -39 -16 -83 -36 -99 -44 l-29 -15 -45 91 c-242 484 -602 899 -1122 1292
-58 44 -115 86 -127 94 -11 8 -51 37 -88 63 -37 27 -73 46 -79 44 -11 -4 -303
-218 -341 -249 -11 -10 -51 -42 -90 -73 -124 -101 -207 -176 -345 -315 -186
-187 -258 -271 -383 -450 -37 -52 -72 -100 -77 -107 -6 -7 -10 -15 -10 -19 0
-3 -9 -19 -21 -35 -11 -16 -16 -29 -10 -29 17 0 128 -65 306 -181 55 -36 112
-73 126 -82 l26 -17 59 87 c178 264 410 520 649 716 38 32 80 66 93 77 l24 20
36 -28 c20 -15 39 -29 42 -32 3 -3 37 -32 75 -65 462 -394 791 -894 942 -1435
82 -291 107 -477 107 -800 1 -216 -10 -355 -39 -525 -1 -11 -6 -36 -9 -55 -3
-19 -8 -46 -10 -60 -4 -26 -53 -234 -66 -285 -18 -66 -34 -116 -75 -240 -24
-71 -47 -139 -51 -150 -4 -11 15 9 42 45 67 89 269 289 384 382 261 209 584
392 924 523 137 53 304 107 416 135 118 29 142 39 136 59 -3 9 -8 31 -11 49
-22 129 -81 359 -96 377 -5 5 -9 16 -9 25 0 9 -6 24 -13 34 -13 18 -18 18
-118 -8 -262 -68 -451 -135 -688 -244 -64 -30 -122 -56 -128 -59 -10 -4 -13
17 -14 83 0 87 -1 107 -14 249 -6 70 -30 248 -40 295 -2 14 -10 50 -16 80 -6
30 -20 88 -30 128 -11 40 -17 78 -13 83 6 11 95 53 219 104 176 72 454 149
650 179 120 19 106 23 152 -46 272 -410 445 -858 503 -1303 22 -177 33 -467
20 -599 -5 -65 -7 -66 -95 -80 -500 -82 -1069 -331 -1475 -645 -197 -152 -416
-373 -566 -571 -194 -256 -386 -605 -493 -900 -7 -19 -17 -44 -21 -55 -48
-112 -168 -558 -196 -720 -2 -16 -13 -79 -24 -140 -25 -141 -28 -169 -35 -290
-4 -55 -8 -129 -10 -164 l-5 -63 44 6 c46 7 45 7 181 31 85 14 124 21 170 30
11 2 43 9 70 15 28 6 60 14 71 16 215 41 611 179 839 292 249 123 571 335 752
494 332 293 568 569 790 924 127 203 285 547 361 785 45 140 46 133 -12 130
-27 -1 -56 -4 -65 -6 -9 -1 -41 -6 -71 -10 -131 -18 -340 -67 -404 -96 -15 -7
-31 -29 -41 -58 -31 -81 -142 -308 -201 -409 -52 -89 -198 -310 -213 -322 -3
-3 -40 -48 -82 -100 -78 -97 -233 -259 -324 -340 -28 -25 -68 -60 -88 -78
-194 -171 -530 -378 -807 -496 -131 -55 -309 -118 -320 -111 -20 13 92 404
185 640 33 85 159 343 194 399 48 76 193 289 204 301 7 7 28 32 47 56 19 24
78 88 130 143 354 367 788 611 1330 747 80 20 326 66 400 74 25 3 65 7 90 10
177 23 455 31 812 26 l76 -1 -4 -32 c-45 -311 -182 -793 -300 -1056 -128 -282
-185 -393 -297 -577 -332 -544 -800 -1035 -1311 -1371 -45 -30 -85 -57 -91
-61 -5 -5 -37 -24 -70 -44 -450 -272 -923 -458 -1418 -559 -166 -34 -190 -38
-327 -55 -25 -4 -56 -8 -70 -10 -14 -2 -59 -6 -100 -9 -41 -4 -106 -9 -145
-12 -187 -15 -595 -4 -775 21 -19 3 -55 8 -80 11 -25 3 -54 7 -65 9 -11 1 -40
6 -65 9 -108 15 -364 73 -510 116 -529 155 -1005 394 -1445 723 -66 50 -122
93 -125 96 -3 4 -30 26 -60 51 -89 72 -136 116 -305 285 -527 526 -906 1161
-1118 1875 -55 186 -134 551 -123 569 4 7 438 5 631 -2 81 -3 68 19 120 -199
253 -1067 969 -1972 1951 -2466 375 -189 667 -282 1164 -372 124 -23 232 -42
240 -43 17 -2 18 11 6 118 -4 39 -9 88 -12 110 -12 110 -16 148 -30 245 -24
165 -24 169 -45 280 -11 58 -27 132 -36 165 -8 33 -16 67 -18 75 -25 120 -114
390 -183 555 -273 650 -698 1161 -1267 1522 -251 159 -538 287 -868 388 l-108
33 6 -67 c3 -36 8 -77 10 -91 2 -14 9 -54 14 -90 13 -82 54 -240 78 -304 l18
-49 135 -56 c510 -214 897 -530 1195 -976 203 -304 361 -682 449 -1071 l22
-101 -95 32 c-201 68 -385 152 -562 255 -126 74 -143 84 -149 90 -3 3 -38 27
-78 54 -558 374 -1005 967 -1225 1627 -40 121 -97 332 -111 414 -3 17 -10 55
-16 85 -6 30 -13 78 -16 105 -3 28 -7 56 -10 63 -7 23 -18 232 -18 337 1 144
21 464 29 473 9 10 247 -55 459 -124 659 -217 1262 -566 1669 -966 59 -59 107
-105 107 -104 0 1 -11 36 -25 77 -50 144 -140 465 -181 644 -25 105 -60 324
-71 440 -14 142 -8 437 12 550 18 104 38 202 44 211 18 34 436 -334 632 -556
149 -168 342 -442 473 -667 26 -46 52 -85 56 -88 7 -4 93 131 109 170 8 20
116 192 169 269 145 212 284 372 514 593 l75 73 -9 47 c-5 27 -12 59 -14 73
-11 52 -94 289 -128 364 l-36 78 -42 -33 c-173 -137 -404 -369 -555 -556 -41
-51 -80 -90 -86 -87 -7 2 -22 19 -33 37 -57 86 -268 317 -410 448 -69 64 -248
208 -320 256 -189 128 -605 362 -794 446 -19 8 -62 28 -95 42 -233 104 -500
183 -745 221 -25 3 -52 8 -60 9 -16 3 -114 14 -170 20 -19 2 -73 7 -120 10
-47 4 -100 8 -118 10 -31 4 -36 -1 -101 -88 -144 -192 -247 -352 -348 -542
-70 -134 -145 -297 -138 -303 3 -3 64 -15 137 -28 131 -22 280 -54 348 -74 19
-5 40 -10 47 -10 6 0 44 62 83 137 39 76 101 182 137 236 l65 98 42 -6 c22 -4
48 -9 56 -10 8 -1 35 -6 60 -10 69 -11 67 -11 196 -44 155 -39 355 -105 469
-155 152 -67 166 -76 161 -93 -9 -32 -48 -187 -51 -208 -45 -252 -55 -356 -57
-552 -1 -73 -4 -131 -7 -129 -3 1 -22 10 -41 19 -19 8 -69 31 -110 50 -202 92
-600 225 -781 261 -13 2 -87 18 -164 35 -77 17 -183 37 -235 46 -52 9 -106 18
-120 20 -14 3 -61 9 -105 15 -44 6 -91 13 -105 15 -14 2 -54 7 -90 10 -36 4
-72 8 -80 10 -8 1 -51 6 -95 9 -44 4 -100 9 -125 11 -138 13 -286 22 -403 25
-42 1 -79 6 -82 10 -16 26 136 479 240 715 39 89 171 349 200 395 14 22 25 42
25 44 0 5 53 90 139 221 292 448 729 889 1196 1207 79 54 246 158 275 172 8 3
47 25 85 46 204 116 545 262 790 339 128 39 296 86 345 95 14 3 68 14 120 25
119 25 142 29 210 37 30 3 57 8 60 9 3 2 37 6 75 10 39 4 78 9 88 11 9 1 63 6
120 10 56 3 103 8 105 9 6 5 533 -3 577 -9z"/>
</g>
</svg>
