<svg xmlns="http://www.w3.org/2000/svg" version="1.1" xmlns:xlink="http://www.w3.org/1999/xlink" xmlns:svgjs="http://svgjs.dev/svgjs" width="1000" height="143" viewBox="0 0 1000 143"><g transform="matrix(1,0,0,1,-0.6060605889641693,-0.37166818409265545)"><svg viewBox="0 0 396 57" data-background-color="#ffffff" preserveAspectRatio="xMidYMid meet" height="143" width="1000" xmlns="http://www.w3.org/2000/svg" xmlns:xlink="http://www.w3.org/1999/xlink"><g id="tight-bounds" transform="matrix(1,0,0,1,0.24000000677017397,0.14814836068654813)"><svg viewBox="0 0 395.52 56.70370418131844" height="56.70370418131844" width="395.52"><g><svg viewBox="0 0 475.3008385220802 68.14147993701619" height="56.70370418131844" width="395.52"><g transform="matrix(1,0,0,1,79.7808385220803,9.417527256128867)"><svg viewBox="0 0 395.5199999999999 49.30642542475845" height="49.30642542475845" width="395.5199999999999"><g id="textblocktransform"><svg viewBox="0 0 395.5199999999999 49.30642542475845" height="49.30642542475845" width="395.5199999999999" id="textblock"><g><svg viewBox="0 0 395.5199999999999 49.30642542475845" height="49.30642542475845" width="395.5199999999999"><g transform="matrix(1,0,0,1,0,0)"><svg width="395.5199999999999" viewBox="2.5 -40.5 330.7565002441406 41" height="49.30642542475845" data-palette-color="#ffffff"><g transform="matrix(1,0,0,1,0,0)"><g><svg width="9.580678796489888" viewBox="3.1600000858306885 -36.86000061035156 56.83000183105469 37.369998931884766" height="6.300321420372139" data-palette-color="#ffffff" id="scriptelement" x="321.6915864227811" y="-36.87560073551566"><path d="M10.85 0L3.16 0 3.16-36.36 27.24-36.36 27.24-30.02 10.85-30.02 10.85-21.36 25.64-21.36 25.64-15.02 10.85-15.02 10.85 0ZM59.5-25.91L52.13-25.91Q51.92-28.05 50.3-29.24 48.68-30.43 45.91-30.43L45.91-30.43Q44.03-30.43 42.74-29.91 41.44-29.39 40.76-28.46 40.07-27.54 40.07-26.37L40.07-26.37Q40.04-25.39 40.49-24.66 40.94-23.93 41.74-23.41 42.54-22.89 43.59-22.51 44.64-22.12 45.82-21.86L45.82-21.86 49.09-21.08Q51.47-20.54 53.46-19.66 55.45-18.77 56.9-17.47 58.36-16.18 59.17-14.42 59.98-12.66 59.99-10.39L59.99-10.39Q59.98-7.05 58.3-4.61 56.62-2.17 53.47-0.83 50.32 0.51 45.88 0.51L45.88 0.51Q41.47 0.51 38.22-0.83 34.96-2.18 33.14-4.84 31.32-7.49 31.23-11.42L31.23-11.42 38.67-11.42Q38.79-9.59 39.73-8.37 40.66-7.16 42.23-6.54 43.8-5.93 45.79-5.93L45.79-5.93Q47.74-5.93 49.19-6.5 50.64-7.07 51.44-8.08 52.23-9.09 52.23-10.4L52.23-10.4Q52.23-11.63 51.52-12.46 50.8-13.3 49.42-13.88 48.04-14.47 46.06-14.95L46.06-14.95 42.1-15.94Q37.5-17.06 34.83-19.44 32.17-21.82 32.19-25.85L32.19-25.85Q32.17-29.15 33.96-31.62 35.74-34.09 38.86-35.48 41.99-36.86 45.97-36.86L45.97-36.86Q50.02-36.86 53.04-35.48 56.07-34.09 57.76-31.62 59.44-29.15 59.5-25.91L59.5-25.91Z" opacity="1" transform="matrix(1,0,0,1,0,0)" fill="#ffffff" class="undefined-123" id="p-123"></path></svg></g></g><path d="M319.707-33.725C319.707-37.467 322.74-40.5 326.482-40.5 330.223-40.5 333.256-37.467 333.256-33.725 333.256-29.984 330.223-26.951 326.482-26.951 322.74-26.951 319.707-29.984 319.707-33.725ZM326.482-27.351C330.002-27.351 332.856-30.205 332.856-33.725 332.856-37.246 330.002-40.1 326.482-40.1 322.961-40.1 320.107-37.246 320.107-33.725 320.107-30.205 322.961-27.351 326.482-27.351Z" fill="#ffffff" id="scriptcircle" data-fill-palette-color="primary"></path><g class="undefined-text-0" data-fill-palette-color="primary" id="text-0"><path d="M10 0L2.5 0 2.5-40 20.8-40 20.8-33.4 10-33.4 10-23.65 20.3-23.65 20.3-17.05 10-17.05 10 0ZM31.8 0L24.3 0 24.3-40 31.8-40 31.8 0ZM44.45 0L36.8 0 36.8-40 44.8-40 44.7-30.3 43.84-21.35 45.7-21.35 48.09-30.3 51.7-40 59.9-40 53.25-23.55 60.2 0 52.59 0 48.05-16 44.45-9 44.45 0ZM70.54 0L63.04 0 63.04-40 73.19-40Q78.79-40 81.28-37.74 83.77-35.48 83.94-30.25L83.94-30.25Q83.99-28.85 84.01-27.8 84.02-26.75 84.01-25.7 83.99-24.65 83.94-23.25L83.94-23.25Q83.84-20 82.86-17.93 81.87-15.85 79.79-14.75L79.79-14.75 84.49 0 76.54 0 72.74-13.5 70.54-13.5 70.54 0ZM70.54-33.4L70.54-20.1 73.19-20.1Q76.29-20.1 76.44-22.85L76.44-22.85Q76.69-26.75 76.44-30.65L76.44-30.65Q76.29-33.4 73.19-33.4L73.19-33.4 70.54-33.4ZM94.49 0L86.79 0 92.34-40 105.14-40 110.69 0 102.99 0 102.14-8.35 95.34-8.35 94.49 0ZM96.94-23.8L96.04-14.95 101.44-14.95 100.54-23.8 99.94-33.4 97.54-33.4 96.94-23.8ZM126.26 0L118.76 0 118.76-33.4 111.84-33.4 111.84-40 133.19-40 133.19-33.4 126.26-33.4 126.26 0ZM146.16 0.5L146.16 0.5Q140.54 0.5 138.01-1.83 135.49-4.15 135.26-9.55L135.26-9.55Q135.24-10.75 135.26-12.28 135.29-13.8 135.46-15L135.46-15 142.51-15Q142.41-13.18 142.39-11.4 142.36-9.63 142.51-8.15L142.51-8.15Q142.74-5.6 146.16-5.6L146.16-5.6Q149.36-5.6 149.66-8.15L149.66-8.15Q149.96-10.68 149.66-13.2L149.66-13.2Q149.56-14.25 148.76-15.13 147.96-16 146.76-16.25L146.76-16.25 142.16-17.3Q138.24-18.2 136.71-20.6 135.19-23 135.06-26.75L135.06-26.75Q134.99-28.78 135.06-30.5L135.06-30.5Q135.29-35.88 137.86-38.19 140.44-40.5 146.16-40.5L146.16-40.5Q151.76-40.5 154.27-38.19 156.79-35.88 157.01-30.5L157.01-30.5Q157.06-29.43 157.02-27.88 156.99-26.33 156.91-25L156.91-25 149.71-25Q149.79-26.73 149.81-28.45 149.84-30.18 149.76-31.9L149.76-31.9Q149.69-34.4 146.16-34.4L146.16-34.4Q142.89-34.4 142.56-31.9L142.56-31.9Q142.26-29.33 142.56-26.75L142.56-26.75Q142.69-25.75 143.26-24.91 143.84-24.08 145.11-23.8L145.11-23.8 149.16-22.95Q153.41-22.05 155.24-19.56 157.06-17.07 157.21-13.2L157.21-13.2Q157.26-12.35 157.24-11.39 157.21-10.43 157.16-9.55L157.16-9.55Q156.94-4.15 154.39-1.83 151.84 0.5 146.16 0.5ZM179.63 0L161.33 0 161.33-40 179.63-40 179.63-33.4 168.83-33.4 168.83-23.65 179.13-23.65 179.13-17.05 168.83-17.05 168.83-6.6 179.63-6.6 179.63 0ZM191.03 0L183.53 0 183.53-40 193.68-40Q199.28-40 201.77-37.74 204.26-35.48 204.43-30.25L204.43-30.25Q204.48-28.85 204.49-27.8 204.51-26.75 204.49-25.7 204.48-24.65 204.43-23.25L204.43-23.25Q204.33-20 203.34-17.93 202.36-15.85 200.28-14.75L200.28-14.75 204.98 0 197.03 0 193.23-13.5 191.03-13.5 191.03 0ZM191.03-33.4L191.03-20.1 193.68-20.1Q196.78-20.1 196.93-22.85L196.93-22.85Q197.18-26.75 196.93-30.65L196.93-30.65Q196.78-33.4 193.68-33.4L193.68-33.4 191.03-33.4ZM226.03 0L212.93 0 207.13-40 214.88-40 217.83-19.95 218.28-6.6 220.68-6.6 221.13-19.95 224.08-40 231.83-40 226.03 0ZM242.58 0L235.08 0 235.08-40 242.58-40 242.58 0ZM258.22 0.5L258.22 0.5Q252.42 0.5 249.86-1.83 247.3-4.15 247.17-9.55L247.17-9.55Q247.1-13.28 247.07-16.64 247.05-20 247.07-23.39 247.1-26.78 247.17-30.55L247.17-30.55Q247.25-35.73 249.91-38.11 252.57-40.5 258.22-40.5L258.22-40.5Q263.75-40.5 266.36-38.05 268.97-35.6 269.12-30.5L269.12-30.5Q269.17-29.28 269.15-27.76 269.12-26.25 269.07-25L269.07-25 261.57-25Q261.62-26.4 261.65-27.96 261.67-29.53 261.62-30.9L261.62-30.9Q261.6-32.77 260.8-33.59 260-34.4 258.22-34.4L258.22-34.4Q256.4-34.4 255.56-33.59 254.72-32.77 254.67-30.9L254.67-30.9Q254.37-20 254.67-9.15L254.67-9.15Q254.72-7.25 255.56-6.43 256.4-5.6 258.22-5.6L258.22-5.6Q260.1-5.6 260.92-6.43 261.75-7.25 261.82-9.15L261.82-9.15Q261.9-10.78 261.9-12.05 261.9-13.33 261.82-15L261.82-15 269.32-15Q269.37-13.8 269.37-12.28 269.37-10.75 269.32-9.55L269.32-9.55Q269.17-4.15 266.61-1.83 264.05 0.5 258.22 0.5ZM291.7 0L273.4 0 273.4-40 291.7-40 291.7-33.4 280.9-33.4 280.9-23.65 291.2-23.65 291.2-17.05 280.9-17.05 280.9-6.6 291.7-6.6 291.7 0ZM305.82 0.5L305.82 0.5Q300.19 0.5 297.67-1.83 295.14-4.15 294.92-9.55L294.92-9.55Q294.89-10.75 294.92-12.28 294.94-13.8 295.12-15L295.12-15 302.17-15Q302.07-13.18 302.04-11.4 302.02-9.63 302.17-8.15L302.17-8.15Q302.39-5.6 305.82-5.6L305.82-5.6Q309.02-5.6 309.32-8.15L309.32-8.15Q309.62-10.68 309.32-13.2L309.32-13.2Q309.22-14.25 308.42-15.13 307.62-16 306.42-16.25L306.42-16.25 301.82-17.3Q297.89-18.2 296.37-20.6 294.84-23 294.72-26.75L294.72-26.75Q294.64-28.78 294.72-30.5L294.72-30.5Q294.94-35.88 297.52-38.19 300.09-40.5 305.82-40.5L305.82-40.5Q311.42-40.5 313.93-38.19 316.44-35.88 316.67-30.5L316.67-30.5Q316.72-29.43 316.68-27.88 316.64-26.33 316.57-25L316.57-25 309.37-25Q309.44-26.73 309.47-28.45 309.49-30.18 309.42-31.9L309.42-31.9Q309.34-34.4 305.82-34.4L305.82-34.4Q302.54-34.4 302.22-31.9L302.22-31.9Q301.92-29.33 302.22-26.75L302.22-26.75Q302.34-25.75 302.92-24.91 303.49-24.08 304.77-23.8L304.77-23.8 308.82-22.95Q313.07-22.05 314.89-19.56 316.72-17.07 316.87-13.2L316.87-13.2Q316.92-12.35 316.89-11.39 316.87-10.43 316.82-9.55L316.82-9.55Q316.59-4.15 314.04-1.83 311.49 0.5 305.82 0.5Z" fill="#ffffff" data-fill-palette-color="primary"></path></g></svg></g></svg></g></svg></g></svg></g><g><svg viewBox="0 0 68.14077483350502 68.14147993701619" height="68.14147993701619" width="68.14077483350502"><g><svg xmlns="http://www.w3.org/2000/svg" xmlns:xlink="http://www.w3.org/1999/xlink" version="1.1" x="0" y="0" viewBox="2.1510000228881836 2.1500015258789062 95.84900665283203 95.8499984741211" enable-background="new 0 0 100 100" xml:space="preserve" height="68.14147993701619" width="68.14077483350502" class="icon-icon-0" data-fill-palette-color="accent" id="icon-0"><g fill="#d498ca" data-fill-palette-color="accent"><path fill="#d498ca" d="M98 50.075C98 76.543 76.542 98 50.075 98 23.606 98 2.151 76.543 2.151 50.075c0-26.468 21.456-47.925 47.924-47.925C76.542 2.15 98 23.607 98 50.075zM49.797 6.185c-24.373 0-44.133 19.758-44.133 44.131 0 24.375 19.76 44.133 44.133 44.133S93.93 74.691 93.93 50.316C93.93 25.943 74.17 6.185 49.797 6.185z" data-fill-palette-color="accent"></path><path fill="#d498ca" d="M90.862 50.438c0 22.613-18.331 40.945-40.944 40.945-22.614 0-40.945-18.332-40.945-40.945 0-22.614 18.332-40.945 40.945-40.945C72.531 9.493 90.862 27.825 90.862 50.438zM21.963 34.746l-8.713 3.712 4.68 8.552-6.778 7.423 8.068 5.97-3.066 9.198 9.681 2.258 1.131 9.683 9.843-1.776 4.679 8.231 8.229-5.811 8.067 5.811 4.843-8.393 9.681 2.259 1.131-10.329 9.844-1.771-3.067-9.521 8.067-5.809-6.454-7.262 4.519-8.875-9.037-3.873 1.129-9.843-10.166-0.162-2.904-9.52-9.197 3.872-6.454-7.1-6.454 7.262-9.197-4.034-3.228 9.52-9.843-0.323L21.963 34.746z" data-fill-palette-color="accent"></path><path fill="#d498ca" d="M76.019 60.886l2.098 5.809-6.132 1.13-10.166-7.906-1.291 1.452 8.876 9.519-0.322 5.973-5.971-1.454L57.001 63.82c-0.675 0.37-1.38 0.693-2.111 0.963l4.671 12.562-3.229 4.841-4.355-3.389-1.265-13.12c-0.382 0.031-0.769 0.05-1.156 0.05s-0.77-0.019-1.15-0.047l-0.624 13.278-4.841 3.551-3.066-5.002 4.348-12.723c-0.708-0.261-1.391-0.568-2.047-0.924l-5.852 11.547-5.809 1.292-0.646-5.486 8.913-9.851c-0.566-0.549-1.092-1.14-1.57-1.769l-10.085 8.068-5.809-0.967 1.613-5.648 12.263-5.002h0.001c-0.312-0.77-0.563-1.569-0.748-2.394l-12.646 3.2-4.518-3.388 3.549-4.035h13.253c0.032-0.624 0.105-1.24 0.209-1.843l-0.068-0.092-13.071-2.905-2.42-4.357 5.325-2.582 11.664 5.611c0.264-0.522 0.555-1.027 0.875-1.514L26.158 34.1l-0.484-5.647h5.809l7.906 9.521c0 0 0.21 0.074 0.498 0.165 0.478-0.383 0.978-0.738 1.5-1.063-0.114-0.391-0.222-0.717-0.222-0.717L34.71 26.354l1.453-5.809 5.325 2.098 4.246 12.578c0.531-0.134 1.073-0.24 1.625-0.317l-1.354-13.067 3.712-4.034 3.712 3.872L52.007 34.94c0.646 0.103 1.274 0.246 1.891 0.426l3.565-12.401 5.486-2.743 1.937 5.971-6.779 10.488 1.776 1.614 8.23-9.682h5.81L73.438 34.1l-10.489 7.261 0.161 1.292c0 0-0.006 0.022-0.016 0.058 0.146 0.264 0.288 0.532 0.423 0.805 1.75-0.791 11.856-5.704 11.856-5.704l5.325 2.582c0 0-1.936 4.68-2.42 4.68-0.426 0-10.897 1.985-13.471 2.474 0.126 0.717 0.203 1.451 0.227 2.198l13.403-0.154 3.712 4.197-4.681 3.387-12.85-3.331c-0.186 0.776-0.428 1.532-0.727 2.256L76.019 60.886zM49.879 38.618c-1.157 0-2.098 0.94-2.098 2.098 0 1.159 0.94 2.099 2.098 2.099s2.098-0.939 2.098-2.099C51.977 39.558 51.036 38.618 49.879 38.618zM56.494 41.361c-1.158 0-2.097 0.94-2.097 2.098 0 1.159 0.938 2.099 2.097 2.099 1.159 0 2.099-0.94 2.099-2.099C58.593 42.301 57.653 41.361 56.494 41.361zM59.399 48.138c-1.158 0-2.097 0.941-2.097 2.098 0 1.158 0.938 2.097 2.097 2.097 1.159 0 2.099-0.938 2.099-2.097C61.498 49.079 60.559 48.138 59.399 48.138zM56.655 54.916c-1.157 0-2.098 0.939-2.098 2.097 0 1.16 0.94 2.097 2.098 2.097 1.159 0 2.099-0.938 2.099-2.097C58.754 55.855 57.814 54.916 56.655 54.916zM49.879 57.98c-1.157 0-2.098 0.941-2.098 2.1 0 1.157 0.94 2.097 2.098 2.097s2.098-0.939 2.098-2.097C51.977 58.922 51.036 57.98 49.879 57.98zM43.263 54.916c-1.159 0-2.097 0.939-2.097 2.097 0 1.16 0.938 2.097 2.097 2.097 1.159 0 2.098-0.937 2.098-2.097C45.361 55.855 44.422 54.916 43.263 54.916zM40.197 48.138c-1.159 0-2.097 0.941-2.097 2.098 0 1.158 0.938 2.097 2.097 2.097 1.159 0 2.098-0.938 2.098-2.097C42.295 49.079 41.356 48.138 40.197 48.138zM42.779 41.361c-1.159 0-2.097 0.94-2.097 2.098 0 1.159 0.938 2.099 2.097 2.099s2.097-0.94 2.097-2.099C44.876 42.301 43.938 41.361 42.779 41.361zM49.717 47.494c-1.516 0-2.742 1.227-2.742 2.743 0 1.515 1.227 2.741 2.742 2.741s2.742-1.227 2.742-2.741C52.459 48.721 51.232 47.494 49.717 47.494z" data-fill-palette-color="accent"></path></g></svg></g></svg></g></svg></g><defs></defs></svg><rect width="395.52" height="56.70370418131844" fill="none" stroke="none" visibility="hidden"></rect></g></svg></g></svg>