<svg xmlns="http://www.w3.org/2000/svg" version="1.1" xmlns:xlink="http://www.w3.org/1999/xlink" xmlns:svgjs="http://svgjs.dev/svgjs" width="1000" height="401" viewBox="0 0 1000 401"><g transform="matrix(1,0,0,1,-0.6060606060606233,-0.4454865769628782)"><svg viewBox="0 0 396 159" data-background-color="#ffffff" preserveAspectRatio="xMidYMid meet" height="401" width="1000" xmlns="http://www.w3.org/2000/svg" xmlns:xlink="http://www.w3.org/1999/xlink"><g id="tight-bounds" transform="matrix(1,0,0,1,0.2400000000000091,0.17663931605261496)"><svg viewBox="0 0 395.52 158.64672136789477" height="158.64672136789477" width="395.52"><g><svg viewBox="0 0 654.276518871553 262.43634857142854" height="158.64672136789477" width="395.52"><g transform="matrix(1,0,0,1,258.756518871553,34.77448458202913)"><svg viewBox="0 0 395.52 192.88737940737028" height="192.88737940737028" width="395.52"><g id="textblocktransform"><svg viewBox="0 0 395.52 192.88737940737028" height="192.88737940737028" width="395.52" id="textblock"><g><svg viewBox="0 0 395.52 192.88737940737028" height="192.88737940737028" width="395.52"><g transform="matrix(1,0,0,1,0,0)"><svg width="395.52" viewBox="-0.09999999999999964 -39.75 331.08619736438834 158.3" height="192.88737940737028" data-palette-color="#111111"><g transform="matrix(1,0,0,1,0,0)"><g><svg width="15.046627364388259" viewBox="3.16 -36.86 93.12 37.36" height="6.035863484208371" data-palette-color="#111111" id="scriptelement" x="312.82331368219417" y="-32.12836174210418"><path d="M10.85 0L3.16 0 3.16-36.36 27.24-36.36 27.24-30.02 10.85-30.02 10.85-21.36 25.64-21.36 25.64-15.02 10.85-15.02 10.85 0ZM42.15-30.02L31.02-30.02 31.02-36.36 60.88-36.36 60.88-30.02 49.75-30.02 49.75 0 42.15 0 42.15-30.02ZM96.28-23.63L96.28-23.63 88.51-23.63Q88.29-25.14 87.64-26.32 86.98-27.5 85.95-28.34 84.92-29.17 83.58-29.62 82.24-30.06 80.68-30.06L80.68-30.06Q77.85-30.06 75.76-28.67 73.66-27.27 72.51-24.62 71.36-21.96 71.36-18.18L71.36-18.18Q71.36-14.29 72.52-11.65 73.68-9 75.78-7.65 77.87-6.3 80.62-6.3L80.62-6.3Q82.17-6.3 83.49-6.71 84.81-7.12 85.84-7.91 86.87-8.7 87.56-9.84 88.24-10.97 88.51-12.43L88.51-12.43 96.28-12.39Q95.98-9.89 94.78-7.57 93.59-5.26 91.57-3.44 89.55-1.62 86.78-0.56 84 0.5 80.5 0.5L80.5 0.5Q75.63 0.5 71.81-1.7 67.98-3.91 65.77-8.08 63.56-12.25 63.56-18.18L63.56-18.18Q63.56-24.13 65.8-28.3 68.03-32.48 71.87-34.67 75.71-36.86 80.5-36.86L80.5-36.86Q83.66-36.86 86.37-35.97 89.08-35.09 91.17-33.39 93.27-31.69 94.59-29.24 95.91-26.79 96.28-23.63Z" opacity="1" transform="matrix(1,0,0,1,0,0)" fill="#111111" class="undefined-123" data-fill-palette-color="primary" id="sv-123"></path></svg></g></g><path d="M309.707-29.11C309.707-34.986 314.471-39.75 320.347-39.75 326.223-39.75 330.986-34.986 330.986-29.11 330.986-23.234 326.223-18.471 320.347-18.471 314.471-18.471 309.707-23.234 309.707-29.11ZM320.347-18.871C326.002-18.871 330.586-23.455 330.586-29.11 330.586-34.766 326.002-39.35 320.347-39.35 314.691-39.35 310.107-34.766 310.107-29.11 310.107-23.455 314.691-18.871 320.347-18.871Z" fill="#111111" id="scriptcircle" data-fill-palette-color="primary"></path><svg></svg><svg></svg><svg></svg><g class="undefined-text-0" data-fill-palette-color="primary" id="text-0"><path d="M4.7 0v-36.5h19.6v5.25h-12.8v10.1h11.15v5.2h-11.15v15.95zM30.3 0v-28.6h6.7v28.6zM33.65-32v0c-2.5 0-3.75-1.293-3.75-3.88 0-2.58 1.25-3.87 3.75-3.87v0c2.567 0 3.85 1.29 3.85 3.87 0 2.587-1.283 3.88-3.85 3.88zM53.1-13.2v13.2h-6.7v-37.6l6.7-0.5v20.4h2.05l7.55-10.9h7.25l-9.6 13.6 10.5 15h-7.25l-9.1-13.2zM81.85-19.95v19.95h-6.7v-28.6h3.15l2.65 4.45c2.3-3.267 5.55-4.983 9.75-5.15v0 5.75c-3.933 0.1-6.883 1.3-8.85 3.6zM105.55-29.3v0c7.267 0 10.9 3.317 10.9 9.95v0 19.35h-4.35l-1.9-3.5c-2.667 2.8-5.783 4.2-9.35 4.2v0c-2.533 0-4.457-0.71-5.77-2.13-1.32-1.413-1.98-3.313-1.98-5.7 0-2.38 0.75-4.303 2.25-5.77 1.5-1.467 4.3-2.5 8.4-3.1v0l6-0.9v-2.4c0-3.233-1.533-4.85-4.6-4.85v0c-2.9 0-4.617 1.467-5.15 4.4v0l-5.2-1.55c1.267-5.333 4.85-8 10.75-8zM103-4.2v0c2.267 0 4.517-1.117 6.75-3.35v0-5.15l-4.8 0.85c-2.167 0.367-3.6 0.95-4.3 1.75-0.7 0.8-1.05 1.7-1.05 2.7 0 1 0.3 1.783 0.9 2.35 0.6 0.567 1.433 0.85 2.5 0.85zM125.7-24.25h-4.6v-4.35h4.6v-5.2l6.7-1.7v6.9h5.45v4.35h-5.45v16.15c0 1.433 0.21 2.45 0.63 3.05 0.413 0.6 1.03 0.9 1.85 0.9 0.813 0 1.703-0.133 2.67-0.4v0l0.85 4.15c-1.967 0.733-3.723 1.1-5.27 1.1-1.553 0-2.797-0.183-3.73-0.55-0.933-0.367-1.633-0.793-2.1-1.28-0.467-0.48-0.817-1.137-1.05-1.97v0c-0.367-1.167-0.55-2.617-0.55-4.35v0z" fill="#111111" fill-rule="nonzero" stroke="none" stroke-width="1" stroke-linecap="butt" stroke-linejoin="miter" stroke-miterlimit="10" stroke-dasharray="" stroke-dashoffset="0" font-family="none" font-weight="none" font-size="none" text-anchor="none" style="mix-blend-mode: normal" data-fill-palette-color="primary" opacity="1"></path><path transform="translate(0,53.35)" d="M9.5-31.35h-9.6v-5.15h25.95v5.15h-9.55v31.35h-6.8zM32.55-6.95c0.867 1.667 2.533 2.5 5 2.5 2.467 0 4.133-0.833 5-2.5 0.867-1.667 1.3-4.117 1.3-7.35 0-3.233-0.433-5.683-1.3-7.35-0.867-1.667-2.533-2.5-5-2.5-2.467 0-4.133 0.833-5 2.5-0.867 1.667-1.3 4.117-1.3 7.35 0 3.233 0.433 5.683 1.3 7.35zM50.55-14.3c0 10-4.333 15-13 15-8.667 0-13-5-13-15 0-10 4.333-15 13-15 8.667 0 13 5 13 15zM65.35 0.7v0c-5.867 0-8.8-3.033-8.8-9.1v0-20.2h6.7v19.1c0 1.733 0.343 3.007 1.03 3.82 0.68 0.82 1.82 1.23 3.42 1.23v0c2.267 0 4.417-1.067 6.45-3.2v0-20.95h6.7v28.6h-4.35l-1.9-3.45c-2.6 2.767-5.683 4.15-9.25 4.15zM96.95-19.95v19.95h-6.7v-28.6h3.15l2.65 4.45c2.3-3.267 5.55-4.983 9.75-5.15v0 5.75c-3.933 0.1-6.883 1.3-8.85 3.6zM110.6 0v-28.6h6.7v28.6zM113.95-32v0c-2.5 0-3.75-1.293-3.75-3.88 0-2.58 1.25-3.87 3.75-3.87v0c2.567 0 3.85 1.29 3.85 3.87 0 2.587-1.283 3.88-3.85 3.88zM147.15-8v0c0 5.7-4 8.55-12 8.55v0c-3.5 0-6.1-0.76-7.8-2.28-1.7-1.513-2.767-3.72-3.2-6.62v0l5.2-0.8c0.367 3.2 2.357 4.8 5.97 4.8 3.62 0 5.43-1.133 5.43-3.4v0c0-0.933-0.357-1.633-1.07-2.1-0.72-0.467-2.163-0.95-4.33-1.45v0l-2.3-0.55c-2.967-0.7-5.093-1.727-6.38-3.08-1.28-1.347-1.92-3.303-1.92-5.87v0c0-5.667 3.867-8.5 11.6-8.5v0c3.333 0 5.823 0.757 7.47 2.27 1.653 1.52 2.68 3.73 3.08 6.63v0l-5.2 0.75c-0.367-3.167-2.207-4.75-5.52-4.75-3.32 0-4.98 1.133-4.98 3.4v0c0 0.933 0.327 1.64 0.98 2.12 0.647 0.487 1.97 0.963 3.97 1.43v0l2.6 0.65c2.967 0.733 5.11 1.757 6.43 3.07 1.313 1.32 1.97 3.23 1.97 5.73zM167.85-29.3v0c4 0 6.8 1.15 8.4 3.45v0c2.867-2.3 5.927-3.45 9.18-3.45 3.247 0 5.653 0.807 7.22 2.42 1.567 1.62 2.35 3.847 2.35 6.68v0 20.2h-6.7v-19.1c0-1.733-0.317-3.01-0.95-3.83-0.633-0.813-1.75-1.22-3.35-1.22v0c-2.267 0-4.35 0.783-6.25 2.35v0c0.067 0.667 0.1 1.2 0.1 1.6v0 20.2h-6.7v-19.1c0-1.733-0.333-3.01-1-3.83-0.667-0.813-1.94-1.22-3.82-1.22-1.887 0-3.763 0.667-5.63 2v0 22.15h-6.7v-28.6h3.55l1.75 2.35c2.7-2.033 5.55-3.05 8.55-3.05z" fill="#111111" fill-rule="nonzero" stroke="none" stroke-width="1" stroke-linecap="butt" stroke-linejoin="miter" stroke-miterlimit="10" stroke-dasharray="" stroke-dashoffset="0" font-family="none" font-weight="none" font-size="none" text-anchor="none" style="mix-blend-mode: normal" data-fill-palette-color="primary" opacity="1"></path><path transform="translate(0,106.7)" d="M17.6-31.7v0c-3.133 0-5.25 1.023-6.35 3.07-1.1 2.053-1.65 5.503-1.65 10.35 0 4.853 0.55 8.313 1.65 10.38 1.1 2.067 3.217 3.1 6.35 3.1v0c2.433 0 4.16-0.667 5.18-2 1.013-1.333 1.553-3.267 1.62-5.8v0l5.5 0.25c-0.267 4.3-1.29 7.55-3.07 9.75-1.787 2.2-4.863 3.3-9.23 3.3v0c-5.7 0-9.633-1.667-11.8-5v0c-1.1-1.667-1.873-3.61-2.32-5.83-0.453-2.213-0.68-4.92-0.68-8.12 0-3.2 0.227-5.91 0.68-8.13 0.447-2.213 1.22-4.153 2.32-5.82v0c2.167-3.333 6.1-5 11.8-5v0c4.1 0 7.05 0.917 8.85 2.75 1.8 1.833 2.9 4.533 3.3 8.1v0l-5.5 0.85c-0.2-2-0.817-3.533-1.85-4.6-1.033-1.067-2.633-1.6-4.8-1.6zM41.1-6.95c0.867 1.667 2.533 2.5 5 2.5 2.467 0 4.133-0.833 5-2.5 0.867-1.667 1.3-4.117 1.3-7.35 0-3.233-0.433-5.683-1.3-7.35-0.867-1.667-2.533-2.5-5-2.5-2.467 0-4.133 0.833-5 2.5-0.867 1.667-1.3 4.117-1.3 7.35 0 3.233 0.433 5.683 1.3 7.35zM59.1-14.3c0 10-4.333 15-13 15-8.667 0-13-5-13-15 0-10 4.333-15 13-15 8.667 0 13 5 13 15zM68.75-28.6l2.15 2.6c3.133-2.2 6.343-3.3 9.63-3.3 3.28 0 5.653 0.807 7.12 2.42 1.467 1.62 2.2 3.847 2.2 6.68v0 20.2h-6.7v-19.5c0-1.7-0.307-2.9-0.92-3.6-0.62-0.7-1.697-1.05-3.23-1.05v0c-2.4 0-4.633 0.75-6.7 2.25v0 21.9h-6.7v-28.6zM119.2-8v0c0 5.7-4 8.55-12 8.55v0c-3.5 0-6.1-0.76-7.8-2.28-1.7-1.513-2.767-3.72-3.2-6.62v0l5.2-0.8c0.367 3.2 2.36 4.8 5.98 4.8 3.613 0 5.42-1.133 5.42-3.4v0c0-0.933-0.357-1.633-1.07-2.1-0.72-0.467-2.163-0.95-4.33-1.45v0l-2.3-0.55c-2.967-0.7-5.09-1.727-6.37-3.08-1.287-1.347-1.93-3.303-1.93-5.87v0c0-5.667 3.867-8.5 11.6-8.5v0c3.333 0 5.827 0.757 7.48 2.27 1.647 1.52 2.67 3.73 3.07 6.63v0l-5.2 0.75c-0.367-3.167-2.207-4.75-5.52-4.75-3.32 0-4.98 1.133-4.98 3.4v0c0 0.933 0.327 1.64 0.98 2.12 0.647 0.487 1.97 0.963 3.97 1.43v0l2.6 0.65c2.967 0.733 5.11 1.757 6.43 3.07 1.313 1.32 1.97 3.23 1.97 5.73zM134.35 0.7v0c-5.867 0-8.8-3.033-8.8-9.1v0-20.2h6.7v19.1c0 1.733 0.343 3.007 1.03 3.82 0.68 0.82 1.82 1.23 3.42 1.23v0c2.267 0 4.417-1.067 6.45-3.2v0-20.95h6.7v28.6h-4.35l-1.9-3.45c-2.6 2.767-5.683 4.15-9.25 4.15zM165.95-38.5v38.5h-6.7v-37.6zM175.7-24.25h-4.6v-4.35h4.6v-5.2l6.7-1.7v6.9h5.45v4.35h-5.45v16.15c0 1.433 0.21 2.45 0.63 3.05 0.413 0.6 1.03 0.9 1.85 0.9 0.813 0 1.703-0.133 2.67-0.4v0l0.85 4.15c-1.967 0.733-3.723 1.1-5.27 1.1-1.553 0-2.797-0.183-3.73-0.55-0.933-0.367-1.633-0.793-2.1-1.28-0.467-0.48-0.817-1.137-1.05-1.97v0c-0.367-1.167-0.55-2.617-0.55-4.35v0zM203.4-29.3v0c7.267 0 10.9 3.317 10.9 9.95v0 19.35h-4.35l-1.9-3.5c-2.667 2.8-5.783 4.2-9.35 4.2v0c-2.533 0-4.457-0.71-5.77-2.13-1.32-1.413-1.98-3.313-1.98-5.7 0-2.38 0.75-4.303 2.25-5.77 1.5-1.467 4.3-2.5 8.4-3.1v0l6-0.9v-2.4c0-3.233-1.533-4.85-4.6-4.85v0c-2.9 0-4.617 1.467-5.15 4.4v0l-5.2-1.55c1.267-5.333 4.85-8 10.75-8zM200.85-4.2v0c2.267 0 4.517-1.117 6.75-3.35v0-5.15l-4.8 0.85c-2.167 0.367-3.6 0.95-4.3 1.75-0.7 0.8-1.05 1.7-1.05 2.7 0 1 0.3 1.783 0.9 2.35 0.6 0.567 1.433 0.85 2.5 0.85zM226.35-28.6l2.15 2.6c3.133-2.2 6.343-3.3 9.63-3.3 3.28 0 5.653 0.807 7.12 2.42 1.467 1.62 2.2 3.847 2.2 6.68v0 20.2h-6.7v-19.5c0-1.7-0.31-2.9-0.93-3.6-0.613-0.7-1.687-1.05-3.22-1.05v0c-2.4 0-4.633 0.75-6.7 2.25v0 21.9h-6.7v-28.6zM261.43-21.75c-0.853 1.6-1.28 4.083-1.28 7.45 0 3.367 0.427 5.85 1.28 7.45 0.847 1.6 2.33 2.4 4.45 2.4 2.113 0 3.63-0.433 4.55-1.3 0.913-0.867 1.403-2.233 1.47-4.1v0l5.25 0.25c-0.2 3.4-1.19 5.967-2.97 7.7-1.787 1.733-4.713 2.6-8.78 2.6v0c-4.767 0-8.017-1.55-9.75-4.65v0c-0.833-1.5-1.407-3.067-1.72-4.7-0.32-1.633-0.48-3.527-0.48-5.68 0-2.147 0.16-4.047 0.48-5.7 0.313-1.647 0.887-3.203 1.72-4.67v0c1.7-3.067 4.95-4.6 9.75-4.6v0c4.033 0 6.933 0.823 8.7 2.47 1.767 1.653 2.767 4.113 3 7.38v0l-5.2 0.7c-0.067-1.867-0.557-3.233-1.47-4.1-0.92-0.867-2.437-1.3-4.55-1.3-2.12 0-3.603 0.8-4.45 2.4zM305.3-28.6l-14.3 40.45-5.95-0.9 4.05-10.55-10.45-29h6.75l6.85 19.9 6.2-19.9z" fill="#111111" fill-rule="nonzero" stroke="none" stroke-width="1" stroke-linecap="butt" stroke-linejoin="miter" stroke-miterlimit="10" stroke-dasharray="" stroke-dashoffset="0" font-family="none" font-weight="none" font-size="none" text-anchor="none" style="mix-blend-mode: normal" data-fill-palette-color="primary" opacity="1"></path></g></svg></g></svg></g></svg></g></svg></g><g><svg viewBox="0 0 244.43135999999998 262.43634857142854" height="262.43634857142854" width="244.43135999999998"><g><svg xmlns="http://www.w3.org/2000/svg" xmlns:xlink="http://www.w3.org/1999/xlink" version="1.1" x="0" y="0" viewBox="32 15 448 481" style="enable-background:new 0 0 512 512;" xml:space="preserve" height="262.43634857142854" width="244.43135999999998" class="icon-icon-0" data-fill-palette-color="accent" id="icon-0"><rect x="352" y="480" width="24" height="16" fill="#d498ca" data-fill-palette-color="accent"></rect><path d="M263 442.3c-4.5-4.5-7-10.6-7-17V416c0-13.2 10.8-24 24-24 4.4 0 8-3.6 8-8v-24c0-4.4-3.6-8-8-8h-17.4c-2.1 0-4.2 0.8-5.7 2.3L218.3 393c-4.5 4.5-10.6 7-17 7H192c-4.4 0-8 3.6-8 8v17.4c0 2.1 0.8 4.2 2.3 5.7l6.6 6.6c4.5 4.5 7 10.6 7 17v22.8c26.6 4.3 53.8 3.2 80-3.3v-11.6c0-2.1-0.8-4.2-2.3-5.7L263 442.3z" fill="#d498ca" data-fill-palette-color="accent"></path><path d="M256 268.7c0 4.2-1.7 8.3-4.7 11.3L232 299.3v4.7h20.7l11.3-11.3c3-3 7.1-4.7 11.3-4.7H288v-24h-32V268.7z" fill="#d498ca" data-fill-palette-color="accent"></path><path d="M408 120c-8.8 0-16 7.2-16 16v88h32v-88C424 127.2 416.8 120 408 120z" fill="#d498ca" data-fill-palette-color="accent"></path><path d="M344 224h32v-82.8c-9.2-9.5-19.4-18.2-30.3-25.7 4.5-2.8 54.2-36.3 87.3-52l-12.4 24.8 14.3 7.2 26.9-53.7L408 15l-7.2 14.3 32.7 16.4c-36.2 16.5-70.6 36.8-102.4 60.7-9.2-5.3-18.8-9.8-28.7-13.5l-5.1 5.1 26.1 65.3c3.6 8.9 1.5 19.1-5.3 25.9l-24 24-40-72L203.3 192h-23.5l13.6 33.9-36.3 36.3-19.2-48.1-48.1-19.2 36.3-36.3 33.9 13.6v-23.5l50.8-50.8-23.2-12.9C130.5 98 81.9 135.4 54.8 187.4l25.9 25.9c9.8 9.8 9.8 25.6 0 35.3-4.7 4.7-11 7.3-17.7 7.3H33.5c-1 8-1.5 16-1.5 24 0 2.7 0.1 5.3 0.2 8h30.4c3.9 0 7.6-1.5 10.3-4.3l1.4-1.4c12-11.9 31.3-11.9 43.3 0l9.4 9.4c5.8 5.7 9 13.5 9 21.7v5.3c0 8.1-3.2 15.9-9 21.7L108.3 359c-2.8 2.7-4.3 6.5-4.3 10.3 0 16.9-13.7 30.6-30.6 30.6H72c7.6 10.2 16.2 19.6 25.7 28.1 0 0 0 0 0.1 0 7 6.3 14.3 12.1 22.1 17.4 18.5-98.4 63.6-189.9 130.2-264.6l11.9 10.6c-66.1 74.1-110.3 165.2-127.6 263 10.8 6.1 22.2 11.2 34 15.1l0 0c5.1 1.7 10.3 3.2 15.5 4.5v-19.6c0-2.1-0.8-4.2-2.3-5.7l-6.6-6.6c-4.5-4.5-7-10.6-7-17V408c0-13.2 10.8-24 24-24h9.4c2.1 0 4.2-0.8 5.7-2.3l38.6-38.6c4.5-4.5 10.6-7 17-7H280c13.2 0 24 10.8 24 24v24c0 13.2-10.8 24-24 24-4.4 0-8 3.6-8 8v9.4c0 2.1 0.8 4.2 2.3 5.7l14.6 14.6c4.5 4.5 7 10.6 7 17v6.9c10.5-3.5 20.7-8 30.4-13.2-4.1-4.4-6.4-10.3-6.4-16.3V248C320 234.8 330.8 224 344 224zM304 288c0 8.8-7.2 16-16 16h-12.7L264 315.3c-3 3-7.1 4.7-11.3 4.7H232c-8.8 0-16-7.2-16-16v-4.7c0-4.2 1.7-8.3 4.7-11.3l19.3-19.3V264c0-8.8 7.2-16 16-16h32c8.8 0 16 7.2 16 16V288z" fill="#d498ca" data-fill-palette-color="accent"></path><path d="M72 231c0-2.4-0.9-4.7-2.6-6.3l-21.9-21.9c-5 12-8.9 24.4-11.5 37.2h27C68 240 72 236 72 231z" fill="#d498ca" data-fill-palette-color="accent"></path><path d="M190.5 68l0.1 0.3 46.6 25.9L176 155.3V176h20.7l61.2-61.2 40 72 9-9c2.3-2.3 3-5.7 1.8-8.6l-30-75.1L299.7 73c10.9-10.9 17.9-25.1 19.8-40.5-15.3 1.9-29.6 8.8-40.5 19.8l-21.1 21.1-75.1-30c-3-1.2-6.4-0.5-8.6 1.8l-9 9 25 13.9C190.3 68 190.4 68 190.5 68z" fill="#d498ca" data-fill-palette-color="accent"></path><path d="M88 369.4c0-8.1 3.2-15.9 9-21.7l18.7-18.7c2.8-2.7 4.3-6.5 4.3-10.3v-5.3c0-3.9-1.5-7.6-4.3-10.3l-9.4-9.4c-5.7-5.7-15-5.7-20.7 0 0 0 0 0 0 0l-1.4 1.4c-5.7 5.8-13.5 9-21.7 9H33.4c3.4 28.3 12.8 55.6 27.7 80h12.3C81.4 384 88 377.4 88 369.4z" fill="#d498ca" data-fill-palette-color="accent"></path><polygon points="118.2,189.1 150.2,201.8 162.9,233.8 174.6,222.1 161.8,190.2 129.9,177.4 " fill="#d498ca" data-fill-palette-color="accent"></polygon><path d="M472 240H344c-4.4 0-8 3.6-8 8v192c0 4.4 3.6 8 8 8h128c4.4 0 8-3.6 8-8V248C480 243.6 476.4 240 472 240zM376 432h-16V256h16V432zM416 432h-16V256h16V432zM456 432h-16V256h16V432z" fill="#d498ca" data-fill-palette-color="accent"></path><rect x="448" y="480" width="24" height="16" fill="#d498ca" data-fill-palette-color="accent"></rect></svg></g></svg></g></svg></g><defs></defs></svg><rect width="395.52" height="158.64672136789477" fill="none" stroke="none" visibility="hidden"></rect></g></svg></g></svg>