<svg xmlns="http://www.w3.org/2000/svg" viewBox="0 0 176.4 176.6" xml:space="preserve">
  <path d="M154.1 90.7c.2-4.2 0-8.2-.7-12.1 9.9-1.1 16.8-.7 22.1-.7l-.9-7.3c-3.5-19-14.1-36.6-29.4-49.7C129.8 8.2 109.9 0 88.1 0 64.5 0 42.8 9.3 26.9 24.5 13.9 36.9 4.6 53.4 1.1 72.2L0 77.9c6.4-.2 12.8-.4 22.5.7-.7 4-.9 8.2-.7 12.1-4.2-.2-17.7 0-21.9 0 0 44.4 38 85.9 87.4 85.9 36.6 0 72-22.7 84.3-59.8 3.8-11 4.2-19.4 4.6-26.1-3.3 0-17.9-.2-22.1 0zm-66 76.4c-38.9 0-72-28.9-77.7-66.7 4.6 0 8.6 0 12.6.2 3.8 20.3 16.8 37.8 35.3 47 9.9 5.1 17.7 6 24.9 7.3-.9-8.2-1.8-21.6-9.9-35.3-7.5-12.6-19.2-21.9-35.5-26.3.2 3.3.9 7.3 2.2 10.6 13.5 4.9 26.9 15.7 31.8 38.9-21-6.4-38.2-25.2-40.2-50.8-.2-4 0-7.7.4-11.7 27.4 6.4 39.5 21.4 39.5 21.4-6.4-18.8-5.7-26.9-4-34.4C79.9 76.4 84.8 85.4 88.1 91c3.3-5.7 6.4-11.7 15.2-19.6-.4-2.6-1.5-6.4-3.3-9.9-5.3 4.2-9.3 8.6-11.9 12.1-2-2.6-8.2-10.6-17.4-15.7 0 0-4.4-2.9-8.4-4.6-8.8-4.4-15-5.7-25.4-6.4-2.2 2.9-6.4 8.2-9.9 16.6 2.9.4 6 .9 9.7 2 1.3-2.9 2.9-5.7 4.9-8.4C48.2 58 54 60 59 62.4c-1.5 5.3-2.2 10.8-2 16.1C42.4 71 23.2 69.4 12 69 20.8 34 51.9 9.7 88.1 9.7c35.8 0 67.1 24.5 76.2 58.7-3.5 0-7.9.4-12.8.9-2.6-8.4-6.8-15.9-12.4-23.2-9.1.7-17 2.2-25.4 6.2-6.2-13.2-15.5-21-25.6-28-8.8 6.2-16.8 12.8-22.7 22.5 2.9 1.5 6 3.5 8.2 5.1 3.3-5.3 7.9-10.8 14.6-15.9 20.1 15.5 26.7 38.9 16.6 65.3 0 0 8.8-14.4 33.8-20.3-.4-2.6-1.1-6.2-2.4-9.3-5.7 1.3-11.5 3.3-16.6 6 0-5.5-.7-11-2.2-16.3 5.1-2.6 10.8-4.4 17.4-5.3 8.2 11.7 10.8 23.6 9.9 35.8-25.8 4.4-44.4 21.2-50.1 51.2-1.1 6-.9 4.4-1.3 11.7 7.3-1.3 23.8-2.9 39.7-17.7 8.8-8.2 15.5-18.8 18.8-30.5-3.3.2-7.5.9-10.8 2.2-6.2 16.1-19.6 28.7-36.4 33.8 3.8-18.1 13-30 26.3-36.6 11.5-5.7 24.9-6.2 35.1-5.7-5.9 38.3-38.6 66.8-77.9 66.8z" fill="#4045f7"/>
</svg>