<?xml version="1.0" encoding="utf-8"?>
<!-- Generator: Adobe Illustrator 26.2.1, SVG Export Plug-In . SVG Version: 6.00 Build 0)  -->
<svg version="1.1" id="Layer_1" xmlns="http://www.w3.org/2000/svg" xmlns:xlink="http://www.w3.org/1999/xlink" x="0px" y="0px"
	 viewBox="0 0 382.1 80" style="enable-background:new 0 0 382.1 80;" xml:space="preserve">
<style type="text/css">
	.st0{opacity:0.6;fill:#FFFFFF;}
	.st1{fill:#F797C3;}
	.st2{fill:#FFFFFF;}
</style>
<path class="st0" d="M108,63.5h2.5v4.6h4.7v-4.6h2.5V75h-2.5v-4.6h-4.7V75H108V63.5z M120.4,70.7c0-2.6,1.8-4.6,4.4-4.6
	c3,0,4.3,2.3,4.3,4.8v0.7H123c0.2,1.1,1,1.7,2.2,1.7c0.8,0,1.4-0.3,2.1-0.9l1.4,1.3c-0.8,1-2,1.6-3.6,1.6
	C122.4,75.3,120.4,73.4,120.4,70.7z M126.7,70c-0.1-1.1-0.8-1.9-1.9-1.9s-1.7,0.7-1.9,1.9H126.7z M131,72.5c0-1.9,1.5-2.9,3.6-2.9
	c0.9,0,1.5,0.1,2.2,0.4v-0.1c0-1.1-0.6-1.6-1.9-1.6c-1,0-1.6,0.2-2.4,0.5l-0.6-1.9c1-0.4,1.9-0.7,3.4-0.7c1.4,0,2.3,0.3,3,1
	s1,1.6,1,2.8v5.1h-2.4v-1c-0.6,0.7-1.4,1.1-2.7,1.1C132.4,75.2,131,74.3,131,72.5L131,72.5z M136.8,71.9v-0.4
	c-0.4-0.2-1-0.3-1.6-0.3c-1.1,0-1.7,0.4-1.7,1.2c0,0.7,0.6,1.1,1.4,1.1C136,73.5,136.8,72.9,136.8,71.9L136.8,71.9z M142,63h2.5v12
	H142V63z M147.9,72.6v-4.2h-1.1v-2.1h1.1V64h2.5v2.3h2.1v2.1h-2.1v3.8c0,0.6,0.3,0.9,0.8,0.9c0.4,0,0.9-0.1,1.2-0.3v2
	c-0.5,0.3-1.1,0.5-2,0.5C148.9,75.2,147.9,74.6,147.9,72.6z M154.9,63h2.5v4.5c0.6-0.7,1.3-1.4,2.6-1.4c1.9,0,3,1.2,3,3.3v5.7h-2.5
	v-4.9c0-1.2-0.5-1.8-1.5-1.8s-1.6,0.6-1.6,1.8v4.9h-2.5V63z M174.3,65.9h-3.5v-2.3h9.6v2.3h-3.5v9.2h-2.5v-9.2H174.3z M180.4,70.7
	c0-2.6,2-4.6,4.8-4.6c2.7,0,4.8,2,4.8,4.6c0,2.5-2,4.6-4.8,4.6C182.5,75.3,180.4,73.2,180.4,70.7z M187.5,70.7
	c0-1.3-0.9-2.5-2.3-2.5s-2.3,1.1-2.3,2.4s0.9,2.4,2.3,2.4C186.7,73.1,187.5,72,187.5,70.7z M192.3,71.9v-5.7h2.5v4.9
	c0,1.2,0.5,1.8,1.5,1.8s1.6-0.6,1.6-1.8v-4.9h2.5V75h-2.5v-1.3c-0.6,0.7-1.3,1.4-2.6,1.4C193.4,75.2,192.3,74,192.3,71.9z
	 M203.3,66.2h2.5V68c0.5-1.2,1.3-2,2.8-1.9v2.6h-0.1c-1.7,0-2.7,1-2.7,3.1v3.3h-2.5V66.2z M210.8,63h2.6v2.2h-2.6V63z M210.9,66.2
	h2.5V75h-2.5V66.2z M215.6,73.9l1.1-1.6c1,0.7,1.9,1.1,2.8,1.1c0.7,0,1.1-0.3,1.1-0.7c0-0.5-0.9-0.7-1.8-1c-1.2-0.3-2.6-0.9-2.6-2.7
	c0-1.8,1.5-2.8,3.2-2.8c1.1,0,2.3,0.4,3.3,1l-1,1.7c-0.9-0.5-1.7-0.8-2.4-0.8c-0.6,0-0.9,0.3-0.9,0.6c0,0.5,0.8,0.8,1.8,1.1
	c1.2,0.4,2.7,1,2.7,2.6c0,2-1.5,2.9-3.4,2.9C218.2,75.2,216.8,74.8,215.6,73.9L215.6,73.9z M225.2,66.2h2.5v1.3
	c0.6-0.7,1.3-1.4,2.6-1.4c1.2,0,2,0.5,2.5,1.4c0.8-0.9,1.7-1.4,2.9-1.4c1.9,0,3,1.1,3,3.2v5.8h-2.5v-4.9c0-1.2-0.5-1.8-1.5-1.8
	c-0.9,0-1.5,0.6-1.5,1.8v4.9h-2.5v-4.9c0-1.2-0.5-1.8-1.5-1.8c-0.9,0-1.5,0.6-1.5,1.8v4.9h-2.5V66.2z M247.2,63.5h2.5v4.6h4.7v-4.6
	h2.5V75h-2.5v-4.6h-4.7V75h-2.5V63.5z M263,65.9h-3.5v-2.3h9.6v2.3h-3.5v9.2H263V65.9z M271.6,63.5h2.7l3,4.9l3-4.9h2.7V75h-2.5
	v-7.5l-3.2,4.9h-0.1l-3.2-4.9V75h-2.5V63.5H271.6z M286.5,63.5h2.5v9.2h5.8V75h-8.3V63.5z M305.6,65.9H302v-2.3h9.6v2.3h-3.5v9.2
	h-2.5V65.9z M311.7,70.7c0-2.6,1.8-4.6,4.4-4.6c3,0,4.3,2.3,4.3,4.8v0.7h-6.1c0.2,1.1,1,1.7,2.2,1.7c0.8,0,1.4-0.3,2.1-0.9l1.4,1.3
	c-0.8,1-2,1.6-3.6,1.6C313.7,75.3,311.7,73.4,311.7,70.7L311.7,70.7z M318,70c-0.1-1.1-0.8-1.9-1.9-1.9s-1.7,0.7-1.9,1.9H318z
	 M322.9,66.2h2.5v1.3c0.6-0.7,1.3-1.4,2.6-1.4c1.2,0,2,0.5,2.5,1.4c0.8-0.9,1.7-1.4,2.9-1.4c1.9,0,3,1.1,3,3.2v5.8h-2.5v-4.9
	c0-1.2-0.5-1.8-1.5-1.8c-0.9,0-1.5,0.6-1.5,1.8v4.9h-2.5v-4.9c0-1.2-0.5-1.8-1.5-1.8c-0.9,0-1.5,0.6-1.5,1.8v4.9h-2.5V66.2z
	 M339.1,66.2h2.5v1.3c0.6-0.8,1.4-1.4,2.8-1.4c2.1,0,4,1.6,4,4.6s-1.9,4.6-4,4.6c-1.3,0-2.2-0.6-2.8-1.3v3.8h-2.5V66.2z M345.9,70.7
	c0-1.5-1-2.5-2.2-2.5s-2.1,1-2.1,2.4c0,1.5,1,2.4,2.1,2.4C344.9,73.1,345.9,72.1,345.9,70.7z M350.9,63h2.5v12h-2.5V63z M355.9,72.5
	c0-1.9,1.5-2.9,3.6-2.9c0.9,0,1.5,0.1,2.2,0.4v-0.1c0-1.1-0.6-1.6-1.9-1.6c-1,0-1.6,0.2-2.4,0.5l-0.6-1.9c1-0.4,1.9-0.7,3.4-0.7
	c1.4,0,2.3,0.3,3,1s1,1.6,1,2.8v5.1h-2.4v-1c-0.6,0.7-1.4,1.1-2.7,1.1C357.2,75.2,355.9,74.3,355.9,72.5z M361.6,71.9v-0.4
	c-0.4-0.2-1-0.3-1.6-0.3c-1.1,0-1.7,0.4-1.7,1.2c0,0.7,0.6,1.1,1.4,1.1C360.8,73.5,361.6,72.9,361.6,71.9L361.6,71.9z M367.1,72.6
	v-4.2H366v-2.1h1.1V64h2.5v2.3h2.1v2.1h-2.1v3.8c0,0.6,0.3,0.9,0.8,0.9c0.4,0,0.9-0.1,1.2-0.3v2c-0.5,0.3-1.1,0.5-2,0.5
	C368.1,75.2,367.1,74.6,367.1,72.6z M373.4,70.7c0-2.6,1.8-4.6,4.4-4.6c3,0,4.3,2.3,4.3,4.8v0.7H376c0.2,1.1,1,1.7,2.2,1.7
	c0.8,0,1.4-0.3,2.1-0.9l1.4,1.3c-0.8,1-2,1.6-3.6,1.6C375.4,75.3,373.4,73.4,373.4,70.7z M379.7,70c-0.1-1.1-0.8-1.9-1.9-1.9
	s-1.7,0.7-1.9,1.9H379.7z"/>
<path class="st1" d="M69.8,41.1c0.1-1.9,0-3.7-0.3-5.5c4.5-0.5,7.6-0.3,10-0.3L79.1,32c-1.6-8.6-6.4-16.6-13.3-22.5
	c-7-5.8-16-9.5-25.9-9.5C29.2,0,19.4,4.2,12.2,11.1C6.3,16.7,2.1,24.2,0.5,32.7L0,35.3c2.9-0.1,5.8-0.2,10.2,0.3
	c-0.3,1.8-0.4,3.7-0.3,5.5c-1.9-0.1-8,0-9.9,0C0,61.2,17.2,80,39.6,80c16.6,0,32.6-10.3,38.2-27.1c1.7-5,1.9-8.8,2.1-11.8
	C78.3,41.1,71.7,41,69.8,41.1z M39.9,75.7c-17.6,0-32.6-13.1-35.2-30.2c2.1,0,3.9,0,5.7,0.1c1.7,9.2,7.6,17.1,16,21.3
	c4.5,2.3,8,2.7,11.3,3.3c-0.4-3.7-0.8-9.8-4.5-16c-3.4-5.7-8.7-9.9-16.1-11.9c0.1,1.5,0.4,3.3,1,4.8c6.1,2.2,12.2,7.1,14.4,17.6
	c-9.5-2.9-17.3-11.4-18.2-23c-0.1-1.8,0-3.5,0.2-5.3c12.4,2.9,17.9,9.7,17.9,9.7c-2.9-8.5-2.6-12.2-1.8-15.6
	c5.6,4.1,7.8,8.2,9.3,10.7c1.5-2.6,2.9-5.3,6.9-8.9c-0.2-1.2-0.7-2.9-1.5-4.5c-2.4,1.9-4.2,3.9-5.4,5.5c-0.9-1.2-3.7-4.8-7.9-7.1
	c0,0-2-1.3-3.8-2.1c-4-2-6.8-2.6-11.5-2.9c-1,1.3-2.9,3.7-4.5,7.5c1.3,0.2,2.7,0.4,4.4,0.9c0.6-1.3,1.3-2.6,2.2-3.8
	c3,0.4,5.6,1.3,7.9,2.4c-0.7,2.4-1,4.9-0.9,7.3c-6.6-3.4-15.3-4.1-20.4-4.3c4-15.8,18.1-26.8,34.5-26.8c16.2,0,30.4,11.1,34.5,26.6
	c-1.6,0-3.6,0.2-5.8,0.4c-1.2-3.8-3.1-7.2-5.6-10.5c-4.1,0.3-7.7,1-11.5,2.8c-2.8-6-7-9.5-11.6-12.7c-4,2.8-7.6,5.8-10.3,10.2
	c1.3,0.7,2.7,1.6,3.7,2.3c1.5-2.4,3.6-4.9,6.6-7.2c9.1,7,12.1,17.6,7.5,29.6c0,0,4-6.5,15.3-9.2c-0.2-1.2-0.5-2.8-1.1-4.2
	c-2.6,0.6-5.2,1.5-7.5,2.7c0-2.5-0.3-5-1-7.4c2.3-1.2,4.9-2,7.9-2.4c3.7,5.3,4.9,10.7,4.5,16.2c-11.7,2-20.1,9.6-22.7,23.2
	c-0.5,2.7-0.4,2-0.6,5.3c3.3-0.6,10.8-1.3,18-8c4-3.7,7-8.5,8.5-13.8c-1.5,0.1-3.4,0.4-4.9,1c-2.8,7.3-8.9,13-16.5,15.3
	C49,56.4,53.2,51,59.2,48c5.2-2.6,11.3-2.8,15.9-2.6C72.5,62.8,57.7,75.7,39.9,75.7z"/>
<path class="st2" d="M107.3,49.9V6.6h8.3L134,37.1h-4.4l18.1-30.5h8.2l0.1,43.3h-9.4V21h1.7l-14.5,24.3h-4.5L114.6,21h2.1v28.9
	C116.7,49.9,107.3,49.9,107.3,49.9z M201,50.6c-3.4,0-6.6-0.6-9.5-1.7s-5.4-2.7-7.5-4.7s-3.8-4.4-4.9-7.1c-1.2-2.7-1.8-5.7-1.8-8.9
	s0.6-6.2,1.8-8.9s2.8-5.1,5-7.1c2.1-2,4.7-3.6,7.5-4.7c2.9-1.1,6-1.7,9.4-1.7s6.6,0.6,9.4,1.7c5.6,2.1,10.1,6.3,12.5,11.8
	c1.2,2.7,1.8,5.7,1.8,8.9s-0.6,6.2-1.8,8.9c-2.4,5.5-6.9,9.7-12.5,11.8C207.5,50.1,204.3,50.6,201,50.6z M200.9,42.1
	c1.9,0,3.7-0.3,5.3-1s3.1-1.6,4.3-2.8s2.2-2.7,2.9-4.4s1-3.6,1-5.6c0-2.1-0.3-3.9-1-5.6s-1.6-3.2-2.8-4.4c-1.2-1.2-2.6-2.2-4.3-2.8
	c-1.6-0.7-3.4-1-5.4-1c-1.9,0-3.7,0.3-5.3,1s-3.1,1.6-4.3,2.8s-2.2,2.7-2.9,4.4c-0.7,1.7-1,3.6-1,5.6s0.3,3.9,1,5.6s1.6,3.2,2.8,4.4
	s2.6,2.2,4.3,2.8C197.2,41.8,199,42.1,200.9,42.1z M245.7,49.9V6.6h18.7c3.9,0,7.2,0.6,10,1.9s5,3.1,6.5,5.4s2.3,5.2,2.3,8.4
	s-0.8,6-2.3,8.3s-3.7,4.1-6.5,5.3s-6.1,1.9-10,1.9h-13.2l4.5-4.4v16.4h-10V49.9z M255.7,34.5l-4.5-4.7h12.6c3.1,0,5.4-0.7,6.9-2
	s2.3-3.2,2.3-5.5c0-2.4-0.8-4.2-2.3-5.6c-1.5-1.3-3.8-2-6.9-2h-12.6l4.5-4.8L255.7,34.5L255.7,34.5z M273.2,49.9l-10.8-15.7h10.7
	L284,49.9H273.2z M304.8,49.9V6.6h10v43.3C314.8,49.9,304.8,49.9,304.8,49.9z M333,49.9l19.3-43.3h9.9l19.3,43.3H371l-15.8-38.2h4
	l-15.9,38.2H333z M342.6,40.6l2.7-7.6h22.3l2.7,7.6H342.6z"/>
</svg>
