<?xml version="1.0" encoding="utf-8"?>
<!-- Generator: Adobe Illustrator 26.2.1, SVG Export Plug-In . SVG Version: 6.00 Build 0)  -->
<svg version="1.1" id="Layer_1" xmlns="http://www.w3.org/2000/svg" xmlns:xlink="http://www.w3.org/1999/xlink" x="0px" y="0px"
	 viewBox="0 0 176.4 176.6" style="enable-background:new 0 0 176.4 176.6;" xml:space="preserve">
<style type="text/css">
	.st0{fill:#FFFFFF;}
</style>
<path class="st0" d="M154.1,90.7c0.2-4.2,0-8.2-0.7-12.1c9.9-1.1,16.8-0.7,22.1-0.7l-0.9-7.3c-3.5-19-14.1-36.6-29.4-49.7
	C129.8,8.2,109.9,0,88.1,0C64.5,0,42.8,9.3,26.9,24.5C13.9,36.9,4.6,53.4,1.1,72.2L0,77.9c6.4-0.2,12.8-0.4,22.5,0.7
	c-0.7,4-0.9,8.2-0.7,12.1c-4.2-0.2-17.7,0-21.9,0c0,44.4,38,85.9,87.4,85.9c36.6,0,72-22.7,84.3-59.8c3.8-11,4.2-19.4,4.6-26.1
	C172.9,90.7,158.3,90.5,154.1,90.7z M88.1,167.1c-38.9,0-72-28.9-77.7-66.7c4.6,0,8.6,0,12.6,0.2c3.8,20.3,16.8,37.8,35.3,47
	c9.9,5.1,17.7,6,24.9,7.3c-0.9-8.2-1.8-21.6-9.9-35.3C65.8,107,54.1,97.7,37.8,93.3c0.2,3.3,0.9,7.3,2.2,10.6
	c13.5,4.9,26.9,15.7,31.8,38.9c-21-6.4-38.2-25.2-40.2-50.8c-0.2-4,0-7.7,0.4-11.7c27.4,6.4,39.5,21.4,39.5,21.4
	c-6.4-18.8-5.7-26.9-4-34.4C79.9,76.4,84.8,85.4,88.1,91c3.3-5.7,6.4-11.7,15.2-19.6c-0.4-2.6-1.5-6.4-3.3-9.9
	c-5.3,4.2-9.3,8.6-11.9,12.1c-2-2.6-8.2-10.6-17.4-15.7c0,0-4.4-2.9-8.4-4.6c-8.8-4.4-15-5.7-25.4-6.4c-2.2,2.9-6.4,8.2-9.9,16.6
	c2.9,0.4,6,0.9,9.7,2c1.3-2.9,2.9-5.7,4.9-8.4C48.2,58,54,60,59,62.4c-1.5,5.3-2.2,10.8-2,16.1C42.4,71,23.2,69.4,12,69
	C20.8,34,51.9,9.7,88.1,9.7c35.8,0,67.1,24.5,76.2,58.7c-3.5,0-7.9,0.4-12.8,0.9c-2.6-8.4-6.8-15.9-12.4-23.2
	c-9.1,0.7-17,2.2-25.4,6.2c-6.2-13.2-15.5-21-25.6-28c-8.8,6.2-16.8,12.8-22.7,22.5c2.9,1.5,6,3.5,8.2,5.1
	c3.3-5.3,7.9-10.8,14.6-15.9c20.1,15.5,26.7,38.9,16.6,65.3c0,0,8.8-14.4,33.8-20.3c-0.4-2.6-1.1-6.2-2.4-9.3
	c-5.7,1.3-11.5,3.3-16.6,6c0-5.5-0.7-11-2.2-16.3c5.1-2.6,10.8-4.4,17.4-5.3c8.2,11.7,10.8,23.6,9.9,35.8
	c-25.8,4.4-44.4,21.2-50.1,51.2c-1.1,6-0.9,4.4-1.3,11.7c7.3-1.3,23.8-2.9,39.7-17.7c8.8-8.2,15.5-18.8,18.8-30.5
	c-3.3,0.2-7.5,0.9-10.8,2.2c-6.2,16.1-19.6,28.7-36.4,33.8c3.8-18.1,13-30,26.3-36.6c11.5-5.7,24.9-6.2,35.1-5.7
	C160.1,138.6,127.4,167.1,88.1,167.1z"/>
</svg>
